<?xml version="1.0" encoding="utf-8"?>
<!-- Generator: Adobe Illustrator 26.5.0, SVG Export Plug-In . SVG Version: 6.00 Build 0)  -->
<svg version="1.0" id="Layer_1" xmlns="http://www.w3.org/2000/svg" xmlns:xlink="http://www.w3.org/1999/xlink" x="0px" y="0px"
	 viewBox="0 0 285 281.7" style="enable-background:new 0 0 285 281.7;" xml:space="preserve">
<style type="text/css">
	.st0{fill:#FFF200;}
	.st1{fill:#FFFF00;}
	.st2{clip-path:url(#SVGID_00000013163267574826965450000011444292253482731184_);}
	.st3{opacity:0.5;clip-path:url(#SVGID_00000005971740833074383860000004776951012160890547_);}
	.st4{clip-path:url(#SVGID_00000116951791524215975900000010970646335134177962_);fill:#FFFFFF;}
	.st5{clip-path:url(#SVGID_00000145040035873075227020000004850575711285394572_);fill:#FFFF80;}
	.st6{clip-path:url(#SVGID_00000005971740833074383860000004776951012160890547_);fill:#FF0000;}
	.st7{clip-path:url(#SVGID_00000005971740833074383860000004776951012160890547_);fill:#FFFFFF;}
</style>
<g>
	<path class="st1" d="M230.3,127.9H16.1V16.4c0,0,69.8-5,104.5,12.6c34.7,17.6,100.8,67.8,106.6,72c5.8,4.1,17.2,9.4,17.2,16.9
		C244.4,125.3,240.5,127.9,230.3,127.9 M23.7,166.1L23.7,166.1c0-8.1,6.5-14.6,14.6-14.6h35.4c6.6,0,12,5.4,12,12v3.2H24.3
		C24,166.7,23.7,166.4,23.7,166.1 M229.8,271.7H10.6c-1.2,0-2.1-1-2.1-2.1s1-2.1,2.1-2.1h219.2c1.2,0,2.1,1,2.1,2.1
		S231,271.7,229.8,271.7 M269.4,111.1c-8.9-5.9-84.8-60.1-115.9-82.4C122.3,6.5,76.4,0,64.5,0H17.6C2.4,0,0,5.9,0,14.9v248.7
		c0,16.4,5.3,18.1,15.8,18.1h208.7c14.3,0,15.5-8.1,15.5-12.5c0-4.4,3.8-42.7,11.6-68.5c7.8-25.7,14.6-36.3,28-55.2
		C293,126.7,278.3,117.1,269.4,111.1"/>
</g>
</svg>
