<?xml version="1.0" encoding="utf-8"?>
<!-- Generator: Adobe Illustrator 26.5.0, SVG Export Plug-In . SVG Version: 6.00 Build 0)  -->
<svg version="1.1" id="Layer_1" xmlns="http://www.w3.org/2000/svg" xmlns:xlink="http://www.w3.org/1999/xlink" x="0px" y="0px"
	 viewBox="0 0 1938.9 567.8" style="enable-background:new 0 0 1938.9 567.8;" xml:space="preserve">
<style type="text/css">
	.st0{fill:#FFF200;}
</style>
<g>
	<path class="st0" d="M1524.3,378.8c2.8,5.8,3.4,13.3,3.6,15.9h0.2C1527.9,392,1527.2,384.3,1524.3,378.8z"/>
	<path class="st0" d="M1430.7,383.6v-1.1c-1.2-2.6-2.6-5.3-4.1-8.1l-0.3,0.2C1427.8,377.5,1429.3,380.5,1430.7,383.6z"/>
	<path class="st0" d="M1431.8,408.3l1.1-0.5v-19.2c-0.7-1.7-1.4-3.4-2.2-5v23.6C1430.7,407.8,1431.1,408.3,1431.8,408.3z"/>
	<path class="st0" d="M1301.2,410.3c-0.5-3.4-0.8-7-1.1-10.6l-0.5,0.2l-0.1,0c0,3.8,0.1,7.3,0.3,10.3c3.9,37,9.8,69,17.6,95.8h1.1
		c-7.3-25.5-12.9-56.1-16.8-90.8C1301.5,413.6,1301.4,412,1301.2,410.3z"/>
	<path class="st0" d="M1451.2,449.4c-1.4-9-3.4-18.4-6.2-27.7l-0.4,0.4c2.4,8.9,4.4,17.8,5.8,26.9c1.7,10.8,2.6,22.2,2.8,34.1h0.8
		C1453.7,471.4,1452.8,460,1451.2,449.4z"/>
	<path class="st0" d="M1444.5,418.7c-3.1-10.9-7.2-21.5-11.7-31.8v1.6c4.3,9.9,7.9,19.9,10.8,30.1H1444.5z"/>
	<path class="st0" d="M1907.8,562.1V282.3c0-0.5,3.6-42.2-29-74.8l-0.5-0.3h-0.3l-0.6,0.2l-0.2,0.2c-32.6,32.6-29.1,74.5-29,74.8
		l0.2,10.9l-0.2,0.5v268.4h-34.7V417l-0.5-1.1h-10.6V298.6l-0.2-0.6l-9.5-9.2V161.4l-0.2-0.6l-13.4-8.9V1.1l-0.5-1.1h-7.9l-1.1,0.5
		l0.2,75.1l-8.9,8.4l-0.3,0.5l0.2,133.7l-9,9l-0.3,0.5l0.2,114.3l-8.1,8.1l-0.3,0.5V496h-10.9l-1.1,0.5v65.6h-18.5v-54.3l-0.5-1.1
		H1684v-12.2l-0.5-1.1h-10.7v-38.6h4.8c0.6,0,1.1-0.5,1.1-1.1l-0.5-1.1h-10v-44.9h3.4c0.6,0,1.1-0.5,1.1-1.1l-0.5-1.1h-4.1v-10
		c0-0.6-0.3-14.2-6.1-20.7v-5.5c0-0.6-0.5-1.1-1.1-1.1l-1.1,0.5l0.2,5.6c-6.1,6.9-6.2,20.9-6.2,21v10.1h-3.4c-0.6,0-1.1,0.5-1.1,1.1
		l0.5,1.1h4.1v44.9h-9.3c-0.6,0-1.1,0.5-1.1,1.1l0.5,1.1h5.5V494l-4.2,0.2c-0.3-0.3-2.3-2.8-2.3-5c0-0.3,0-0.8,0.2-1.4
		c0.5-4.8,1.7-16-11.5-20.6h-1.2c-12.8,4.4-11.7,15.6-11.2,20.6c0,0.6,0.2,1.1,0.2,1.4c0,2.2-2,4.8-1.9,4.8l-3.6,0.3
		c-0.4-0.7-2.4-4-3.1-7.3c0.4,2.8,1.7,5.5,2.6,7h-11.8v-8.3c0-0.5-1.1-10-7.8-10.3c-6.9,0.3-7.8,9.8-7.8,10.3v8.3h-12.6
		c0.8-2,2.3-5.6,2.3-9c0-0.6-0.2-1.6-0.2-2.6c-0.8-7.5-2.6-25.2,16.8-31.8h1.4c13.4,4.6,16.8,14.3,17.3,22.5
		c-0.5-8.7-4.1-19.4-19.2-24.5h-2c-21.3,7.2-19.3,26-18.5,34.1c0.2,1.1,0.2,1.9,0.2,2.5c0,3.9-2.6,8.4-2.6,8.9l-3.7,0.2
		c-0.3-0.3-1.7-2.1-2.2-4c0.3,1.4,1,2.7,1.6,3.7h-23.1c0.8-1.2,1.7-3.1,1.7-4.8c0.2-0.3,0.2-0.9,0-1.6c-0.5-4.4-1.6-14.3,9.7-18.2
		h0.5c7.6,2.6,9.6,8.2,9.9,12.8c-0.3-5.2-2.5-11.6-11.7-14.8h-1.2c-12.8,4.4-11.7,15.6-11.2,20.4c0,0.6,0.2,1.1,0.2,1.4
		c0,2.2-2,4.8-1.9,4.8h-4.7v0h-18.8v-38.9h18.8v38.9h0.2v-38.9h4.7c0.6,0,1.1-0.5,1.1-1.1l-0.5-1.1h-9.8V408h-0.2v44.7h0.2v0.2
		h-10.1V408h10v-0.2h3.4c0.6,0,1.1-0.5,1.1-1.1l-0.5-1.1h-3.9v-8.9h-0.2v8.9h0.2v0.2h-10.1v-9h10v-1.1c0-0.1,0-0.4,0-0.9h-9.8
		c0.2-3.1,0.9-12.5,5-17.9c0.5,0.6,0.9,1.3,1.2,2c-0.7-1.4-1.5-2.8-2.5-3.9v-5.5c0-0.6-0.5-1.1-1.1-1.1l-1.1,0.5l0.2,5.6
		c-5.8,6.5-6.2,19.6-6.2,21v10.1h-3.4c-0.6,0-1.1,0.5-1.1,1.1l0.5,1.1h4.1v44.9h-9.3c-0.6,0-1.1,0.5-1.1,1.1l0.5,1.1h5.5v38.9h-10.3
		l-1.1,0.5v12.6h-27.7l-1.1,0.5v54.7h-25.6c7.1-25.2,10.8-50.6,10.8-75.3l-0.9,1c0.1,24.2-3.5,49.2-10.4,74.3h-5.8v-36.7l-0.5-1.1
		h-0.6l-1.1,0.5v37.3h-29.1v-12.2c0-0.6-0.5-1.1-1.1-1.1l-1.1,0.5v12.8H1385l28.8-31.5v18.5c0,0.6,0.5,1.1,1.1,1.1l1.1-0.5
		l-0.2-21.2l37.2-40.7c0-1,0-2,0-3.1l0.3-0.6l-0.2-0.3c0-0.3,0-0.5,0-0.8H1416v-24.6l-0.5-1.1h-0.6l-1.1,0.5v25.2h-29.9l60.7-61
		c-0.3-1.1-0.6-2.2-0.9-3.3h-27.5v-31.8l-0.5-1.1h-0.6l-1.1,0.5v32.4h-30.2l39.9-49.8c1,1.9,2,3.7,2.9,5.4l10.5-6.7
		c0.3-0.3,0.6-0.8,0.5-1.2l-0.6-0.8l-14.9,0.3l-0.7-1.4c-4.7-8.1-9.8-16.2-15.6-24.1v0.4c-0.7-1-1.5-2-2.2-3v16.6
		c0,0.6,0.5,1.1,1.1,1.1l1.1-0.5v-14.2c4.8,6.8,9.7,14.2,14.3,22.3l1.6,2.8l0.4,0l0.1,0.2h-28v-24.1l-0.5-1.1h-0.6l-1.1,0.5v24.8
		h-9.3v-53.3c5.2,5.5,10.3,11.3,15.1,17.2c-19.5-24.7-36.9-38-37.2-38.1l-1.1-0.2l-0.6,0.6v80.4h-13.4c-0.6,0-1.1,0.5-1.1,1.1
		l0.5,1.1h13.9v187.1h-17.2c-8.6-14.5-16.1-32.6-22.4-53.9h-0.9c-0.2-0.7-0.4-1.5-0.6-2.2h-49.1c-6.5-31.9-11.8-66.8-15.9-103.3
		l47.1-2.8c0-0.6,0-1.2,0-1.9h-0.2l-47.4,2.8c-2.8-27.7-5.1-56.1-6.7-84.6l50.5-2.8c0.2,13.7,0.5,26.9,1.1,39.6
		c0.6,14.3,1.6,28.5,2.7,42.3c0.1-5.3,0.4-11.2,0.8-17.4c0.2,3.3,0.4,6.6,0.7,9.8c0.8-16.5,2.6-38.2,5.8-65l-1.1-1
		c-2.3,19.1-4.3,39-5.4,56.1c-0.6-8.3-1.1-16.7-1.5-25c-0.5-12.3-0.9-25.1-1.1-38.2l8,7.1c0.1-0.7,0.2-1.5,0.3-2.2l1.1,1
		c4.8-39.6,10.4-75.7,10.4-76l-17.3-24.5c0,0.2,0,0.5,0,0.7l16.1,23.1v0.6c-0.2,0.7-5.7,35.9-10.3,75l-8.1-7.4
		c-0.5-45.3,1.6-80.5,2.3-91.3l-3.2-4.5l-55,9.6l-0.9,0.5v0.5c-0.2,29.3,0.6,59,2,88.3c1.6,29.3,3.9,58.4,7.2,85.8l-0.2,0.3v0.3
		c1.9,16.5,3.9,32.9,6.5,47.8l-0.3,0.3v0.3c0.2,36.1-1.5,98.4-7.7,112.1h-46.8V314.5c0-0.6-0.5-1.1-1.1-1.1h-154.4
		c-0.6,0-1.1,0.5-1.1,1.1v247.6H1011V358.3l-0.2-0.6l-26.2-17.6v-56.5l-0.2-0.8L937,256.1h-1.1l-47.2,26.3l-0.5,0.5l0.3,56.2
		L862.4,357l-0.5,0.5v204.6h-23.7V146.4c0-0.5-0.3-0.8-1.1-1.1l-0.6,0.2l-48.9,51.2l-0.3,0.5v364.9h-5.1V239.9l-0.2-0.6l-40-40.8
		c-0.2-0.2-0.3-0.3-0.8-0.3h-0.5l-0.6,0.6v363.3h-26.5V354.4l-0.5-1.1h-4.5v-79.8l-0.5-1.1h-5.3v-57.2l-0.5-1.1h-30.8v-26
		c0-0.6-0.5-1.1-1.1-1.1l-1.1,0.5v26.6H639l-1.1,0.5v57.9h-4.8l-1.1,0.5v80.2H628l-1.1,0.5v208.3h-16.3l6.2-52.5l7.8-9.7l0.3-0.9
		l-0.3-0.3c-0.3-0.3-32.7-31.2-72.7-59.7c-32.1-22.7-77.6-49.8-112.9-49.8c-4.4,0-8.6,0.5-12.3,1.2c-16.5,3.6-26.9,11.1-31,22.4
		c-10.1,28.8,25.4,73.1,25.7,73.4c0.5,1.7,0.8,2.6,0.9,3.1l11.3,72.8h-94.7c25.2-6.1,45.9-17.7,57.5-32.6l0.6-0.9l0.2,0.2
		c2.5-3.1,4.4-6.1,5.5-8.9c0.6,0,1.1-0.5,1.1-1.1l-0.2-0.3c2.8-5.9,4.1-12,3.7-18.4l0.2-0.5v-0.3c-0.2-3-0.5-5.8-1.2-8.9
		c0.2-0.2,0.2-0.3,0.2-0.6l-0.5-1.1h-0.2c-9.3-31.6-54.4-54.5-107.3-54.5c-47,0-88.6,18.2-103.6,45.3c-3.7,6.9-5.6,13.9-5.6,20.9
		c0,27.6,28.2,52.1,69.9,61.7h-64.5h-15.7h-7.7c11.6-71.7,3.3-128.4-5.9-163.3c-10.1-38.6-23.4-59.8-23.4-60.1l-0.8-0.5h-0.3
		L28.9,363.4l-0.5,0.3v0.3c-10.4,36.1-8.1,88.8-4.2,126.6c3.5,34.3,8.7,63,10.3,71.4H0v5.7h178.8h15.7h1744.4v-5.7H1907.8z
		 M1435.6,368.1l-7.6,4.8c-0.8-1.6-1.6-3-2.5-4.5L1435.6,368.1z M1243.3,227.9l55.1-9.7c-0.5,6.9-3,44.1-2.5,93l-50.6,2.8
		C1243.9,285.7,1243.1,256.7,1243.3,227.9z M45.5,562.1h-9.1c-1.6-8.5-6.8-36.7-10.4-71.4c-3.6-36.1-5.9-86.3,3.3-122.1
		c1.9,6.7,6.1,23.4,9.7,48.4C43.5,447.7,48.3,497.6,45.5,562.1z M157,562.1c1-5.7,2-11.5,2.8-17.2l-0.3-1.1l-0.6-0.2l-1.1,0.3v0.5
		c-0.7,5.9-1.8,11.9-2.9,17.7h-10.8c2.8-15.1,4.7-31.1,5.4-47.4c0-0.6-0.5-1.1-1.1-1.1l-0.9,0.5v0.6c-0.8,16.3-2.6,32.3-5.4,47.4
		h-10.2c8.7-55.4,6.5-112.9-6.7-166.4c-0.2-0.5-0.5-0.8-1.1-0.8c0,0,0,0-0.2,0l-0.5,0.3l-0.2,0.2l-0.2,0.5v0.3
		c13,53.3,15.4,110.7,6.5,165.9h-20c0.3-2.9,0.7-5.9,1-8.9v-0.6l-0.2-0.2c-0.2-0.2-0.5-0.3-0.8-0.5l-0.9,0.5v0.5
		c-0.3,3.1-0.7,6.2-1,9.2H96.9c2.6-19.2,3.8-38.8,3.8-58.2c0-0.6-0.5-1.1-1.1-1.1l-1.1,0.5v0.6c0,19.3-1.2,38.8-3.8,58.2H72.6
		c2.4-19.4,3.3-39.9,2.7-61.3c0-0.6-0.5-0.9-1.1-0.9l-1.1,0.5v0.6c0.6,21.3-0.3,41.9-2.7,61.1H59.8c0.3-3.6,0.6-7.4,0.7-11.1
		c0-0.6-0.5-1.1-1.1-1.1l-0.9,0.5v0.5c-0.3,3.8-0.5,7.6-0.7,11.3H47.3c2.9-64.9-1.9-115.1-6.4-146c-4.4-29.1-9.2-46.7-10.6-51.2
		l40.3-9c5.8,12.9,10.6,27.4,15.4,47l0.8,0.8h0.5l0.5-0.3l0.2-0.2l0.2-0.6v-0.3c-4.8-19.6-9.7-34.1-15.4-47l25.2-5.6
		c9.3,29,16,57.9,20.1,86.5c0,0.5,0.5,0.9,1.1,0.9l0.6-0.2l0.2-0.2l0.3-0.5v-0.3c-4.1-28.5-10.7-57.6-20.1-86.6l29.8-6.7
		c4.7,10.9,9,23.1,13.6,38.5l0.8,0.8h0.5l0.9-0.8l-0.2-0.6c-4.5-15.4-8.7-27.6-13.4-38.5l8.3-2.2c1.4,2.3,13.6,23.4,23.1,59.3
		c9.2,34.8,17.5,91.4,5.7,163H157z M396.3,527.1h-22.7c1.7-2.3,3.4-4.8,4.7-7.5v0.2l22.6-0.2C399.6,522.1,398,524.6,396.3,527.1z
		 M328.6,546.1c-28.8,0-52.2-20.4-52.2-45.5c0-25.1,23.4-45.5,52.2-45.5c28.8,0,52.2,20.4,52.2,45.5
		C380.7,525.7,357.4,546.1,328.6,546.1z M383.7,461.2c10.3,7.9,17.3,17.4,20.4,27.3h-20.6c-0.6,0-1.1,0.5-1.1,1.1l0.5,1.1h21.7
		c0.6,2.6,1.1,5.1,1.2,7.6l-15.6,0.2c-0.6,0-1.1,0.5-0.9,1.1l0.5,1.1l16.4-0.2c0,5.8-1.4,11.7-3.6,17.3l-23.1,0.2
		c2.3-5.3,3.6-11.1,3.6-17c0-7.2-1.9-14-5.1-20.1H377l-0.5-0.3l-0.2-0.2l-0.2-0.6c0-0.5,0.3-0.8,0.6-0.9
		c-4.2-6.9-10.3-12.9-18.1-17.4l24.8,0.2L383.7,461.2z M270,562.1c-6-1-11.8-2.3-17.5-3.9h51.4l1.1-0.5V557l-0.5-1.1h-0.6
		c-19,0-38,0-57.6,0.5l0.2-0.3c-18.7-6.4-33.6-15.7-43.1-27.3c13.4-0.2,26.8-0.2,39.7-0.3c0.6,0,1.1-0.5,1.1-1.1l-0.5-1.1H243
		c-13.6,0-27.4,0.2-41.1,0.3l-0.2,0.2c-1.9-2.3-3.4-4.8-4.7-7.3h-1.4l-0.5-1.1c0-0.5,0.3-0.8,0.8-0.9c-1.2-2.6-2.2-5.1-2.8-7.8
		c26.8-0.2,42.5-0.2,69.2-0.2c0.6,0,1.1-0.5,1.1-1.1l-0.5-1.1h-0.6c-26.9,0-42.5,0-69.6,0.2c-0.6-2.8-0.8-5.1-0.8-7.5
		c0-3,0.5-6.2,1.4-9.7h40.5c0.6,0,1.1-0.5,1.1-1.1l-0.5-1.1h-40.7c0.9-2.8,2-5.5,3-7.8c19.3-0.3,38.8-0.5,57.9-0.5l0.6-0.2l0.2-0.2
		c0.2-0.2,0.3-0.5,0.3-0.8l-0.5-1.1h-0.6c-18.7,0.2-37.7,0.3-56.4,0.5c15.3-25.5,55.6-42.5,100.6-42.5c24.3,0,48,5,67,14.2
		c-8.6,0-17,0.2-25.5,0.2c-0.6,0-1.1,0.5-1.1,1.1l0.5,1.1c0,0,19.3-0.2,28.7-0.2c0.3,0,0.6-0.2,0.8-0.3c4.2,2.2,8.3,4.7,11.8,7.3
		c-8.6,0-17.3-0.2-25.9-0.2l-0.3,0.2c-8.1-3.9-17.1-6.1-26.3-6.1c-19.9,0-38.2,9.5-47.7,24.8h-13.1c-0.6,0-1.1,0.5-1.1,1.1l0.5,1.1
		h12.5c-1.7,3-3,6.1-3.7,9.3v0.2c0,0.3-0.2,0.6-0.3,0.8c-0.9,3.4-1.4,6.9-1.4,10.4c0,9.5,3.3,18.4,8.9,25.9h1.6l0.5,1.1
		c0,0.3-0.2,0.6-0.5,0.8c9.8,11.8,25.9,19.8,43.9,19.8c17.9,0,33.6-7.6,43.6-19.3l0.2,0.3h22.1c-2.3,2.8-5.3,5.5-8.3,8.1l0.3,0.8
		c0,0.3-0.2,0.5-0.3,0.8L386,539l-0.6,0.2h-1.7c-9.2,7.2-20.7,13.1-33.8,17.4l0.3,0.6c0,0.6-0.5,1.1-1.1,1.1h-4.2
		c-5.3,1.5-10.7,2.8-16.3,3.8H270z M611.3,542.9c-1.7-0.6-5-1.7-9.7-3.3l0.9-7.5c5.3,2.6,8.7,4.4,9.5,4.4L611.3,542.9z M572.8,502.7
		l0.2-13.4c5.3,3.1,10.6,6.4,15.6,9.2l-0.8,11.8C583.2,507.7,578.1,505,572.8,502.7z M587.7,512.2l-0.8,10.4
		c-4.5-1.9-9.3-3.9-14.3-5.5l0.2-12.5C578.2,507.4,583.4,510.2,587.7,512.2z M573.1,487.3l0.2-16.2c6.1,3.7,11.7,7.6,16.5,11.1
		l-0.9,14.3C583.5,493.2,578.2,489.9,573.1,487.3z M588.8,525.7c4.7,2,8.7,3.9,11.8,5l-1.1,8.3c-3.3-1.1-7.2-2.3-11.4-3.6
		L588.8,525.7z M589,523.9l0.8-10.3c4.8,2.6,9,5.1,12.3,6.7l-1.1,8.6C597.4,527.3,593.2,525.4,589,523.9z M603.5,508l-1.2,10.4
		c-3.6-2.2-7.8-4.5-12.3-6.7l0.8-11.7C595.1,502.8,599.4,505.6,603.5,508z M590.7,498.2l0.9-14.2c5,3.9,9.7,7.6,13.4,10.9l-1.4,11.4
		C599.4,503.3,594.9,500.3,590.7,498.2z M612.2,534.6c-1.7-0.9-5.1-2.6-9.5-4.4l1.1-8.4c5.3,3.3,8.7,5.5,9.3,5.5L612.2,534.6z
		 M613.3,525.4c-1.7-1.1-5-3.1-9.3-5.3l1.2-10.3c3.3,2.2,6.4,4.2,9.2,5.9L613.3,525.4z M614.7,513.6c-3.1-2.2-6.2-4.2-9.2-5.8
		l1.4-10.9c5.8,5.6,8.6,9.2,8.7,9.2L614.7,513.6z M398.2,413.3c3.7-10.6,13.7-17.8,29.4-21c3.7-0.8,7.8-1.2,12-1.2
		c34.7,0,79.9,26.9,111.7,49.5c37.1,26.3,66.8,54.2,71.8,58.9l-5.3,6.5v-0.3l-0.2-0.2c-0.2-0.2-8.1-11.1-27.6-25.5
		c-18.1-13.4-50.3-32.9-100.6-49.2c-2.8-0.9-5.5-1.7-8.1-2.2l-0.2-0.3h-0.5c-10.4-2.8-19.8-4.4-27.7-4.4c-11.5,0-20.4,3.1-26.5,9.2
		c-9,9.3-9.7,24.3-8.4,35c0.5,4.2,1.2,8.4,2.3,12.8C412.3,469.7,390.1,436,398.2,413.3z M542.9,523.7c-6.2-1.2-12.5-2.5-18.7-3.4
		l-1.7-16.8c6.7,1.4,13.6,3.3,20.4,5.3c2.5,0.8,5,1.6,7.2,1.7l0.5,15C548,524.8,545.5,524.3,542.9,523.7z M551,540.2
		c-8.6-1.2-17.1-2.3-25.1-3.3l-1.4-14.5c8.4,1.4,17.1,3.1,26,5.1L551,540.2z M520.3,480.9l-1.9-19c9.8,3.9,20.3,8.6,30.5,13.7
		l0.5,15.9C539.1,486.9,529.2,483.4,520.3,480.9z M549.4,493.3l0.5,15.4c-2.2-0.6-4.2-1.4-6.4-2c-7.2-2.2-14.3-3.9-21.2-5.5
		l-1.9-18.7C529.6,485.5,539.6,489.3,549.4,493.3z M520.1,501c-10.6-2.2-20.9-3.4-30.5-3.9l-2.5-21.7c9.7,1.1,20.3,3.4,31.2,6.4
		L520.1,501z M518.1,460l-1.7-17.4c11.7,4.7,22.4,9.5,31.9,14l0.6,17.1C538,468.1,527.6,463.3,518.1,460z M518.1,479.8
		c-11.2-3.4-21.7-5.6-31.2-6.7l-2.5-21.3c9.8,1.7,20.6,4.8,31.8,8.9L518.1,479.8z M484.1,449.7l-2.2-19.3h0.2
		c2.2,0.6,4.2,1.2,6.5,1.9c8.3,2.6,16.5,5.8,25.5,8.9l1.7,17.4C504.6,454.5,493.8,451.4,484.1,449.7z M482.1,449.4
		c-5.1-0.8-10.1-1.2-14.8-1.2c-6.5,0-12.6,0.8-17.9,2.3l-2.8-24.3c0-0.2,0-0.2,0-0.3c2-0.3,4.2-0.3,6.5-0.3c7.8,0,16.8,1.4,26.8,3.7
		L482.1,449.4z M467.3,450.2c4.7,0,9.7,0.5,15,1.2l2.5,21.5c-3.7-0.3-7.5-0.6-10.9-0.6c-6.1,0-11.7,0.6-16.8,1.7
		c-1.7,0.3-3.4,0.8-5,1.4l-2.6-22.9C454.9,451,460.9,450.2,467.3,450.2z M457.5,476c5-1.1,10.4-1.7,16.4-1.7c3.4,0,7.2,0.2,11.1,0.6
		l2.5,21.8c-1.9,0-3.7-0.2-5.8-0.2c-9.8,0-18.8,0.9-26.9,3l-2.5-22.1C454.1,477,455.8,476.5,457.5,476z M482,498.8
		c2,0,3.9,0,5.9,0.2l2,17.8c-3.1-0.2-6.4-0.2-9.5-0.2c-8.4,0-16.2,0.5-23.4,1.6l-1.9-16.4C463.3,499.9,472.3,498.8,482,498.8z
		 M480.3,518.6c3.3,0,6.5,0.2,10,0.2l1.9,15.6c-4.5-0.2-9-0.3-13.4-0.3c-7,0-13.6,0.3-19.6,0.8l-1.7-14.6
		C464.4,519,472,518.6,480.3,518.6z M489.9,499.1c9.7,0.5,19.8,1.9,30.5,4.1l1.7,17c-10.6-1.6-20.7-2.6-30.1-3.1L489.9,499.1z
		 M522.3,522.1l1.4,14.6c-10.4-1.1-20.4-1.9-29.8-2.3l-1.9-15.6C501.6,519.5,511.7,520.6,522.3,522.1z M421.5,476.4
		c-0.6-3-1.1-5.8-1.4-8.6c-1.1-10.4-0.6-24.6,7.9-33.3c4.1-4.2,9.5-6.9,16.4-7.9l2.8,24.8l-0.9,0.3c-0.9,0.3-2,0.6-3,1.1
		C429.3,458.7,423.7,470,421.5,476.4z M424.8,488.5c0,0-1.1-3.1-2.3-7.8c0.3-1.9,3.6-18.4,21.8-26.3c0.8-0.3,1.7-0.6,2.6-0.9
		l0.6-0.2l2.6,22.9c-10.3,3.6-18.4,10-24.5,18.7L424.8,488.5z M450.5,478.2l2.5,22c-9.2,2.3-17.4,6.2-24.6,11.2l-2.2-13.4
		C432,488.7,440.1,482,450.5,478.2z M428.4,513.7c7-5.1,15.4-9,24.8-11.5l1.9,16c-9.3,1.6-17.4,3.9-24.5,7.3L428.4,513.7z
		 M430.9,527.8c6.9-3.3,15-5.8,24.3-7.3l1.7,14.6c-9.3,0.9-17.4,2.3-24.3,4.5L430.9,527.8z M433.1,541.5c6.7-2,14.8-3.6,24.1-4.5
		l1.7,14.6c-10.6,0.6-18.5,1.7-23.7,3.4L433.1,541.5z M436.1,562.1l-0.8-4.9c5-1.7,12.9-2.8,23.7-3.4l1,8.3H436.1z M459.2,536.8
		c5.9-0.5,12.5-0.8,19.3-0.8c4.5,0,9,0.2,13.7,0.3l1.7,15c-5.1-0.2-10.1-0.2-14.8-0.2c-6.7,0-12.8,0.2-18.2,0.3L459.2,536.8z
		 M462,562.1l-1-8.5c5.6-0.3,11.5-0.3,17.9-0.3c4.8,0,10,0,15.1,0.2l1,8.6H462z M494.3,536.5c9.3,0.5,19.3,1.2,29.8,2.3l1.4,13.9
		c-10.7-0.6-20.4-0.9-29.3-1.2L494.3,536.5z M497.3,562.1l-1-8.6c9.5,0.3,19.5,0.8,29.3,1.2l0.7,7.4H497.3z M526,539.1
		c8.1,0.9,16.5,2,24.9,3.3l0.5,12c-7.8-0.6-15.9-1.1-24-1.6L526,539.1z M528.4,562.1l-0.7-7.2c8.1,0.5,16.2,1.1,23.8,1.6l0.1,5.7
		H528.4z M570,562.1h-16.3l-0.1-5.5c5.8,0.5,11.2,0.9,16.5,1.2L570,562.1z M570,555.8c-5.3-0.5-10.7-0.9-16.5-1.2l-0.3-11.8
		c5.9,0.9,11.7,1.9,17.1,2.8L570,555.8z M570.3,543.3c-5.5-0.9-11.2-1.9-17.1-2.8l-0.5-12.5c6.2,1.4,12.2,3,17.8,4.4L570.3,543.3z
		 M570.4,530.2c-5.6-1.6-11.5-3-17.8-4.4l-0.5-14.3c6.4,2,12.6,4.4,18.5,6.2L570.4,530.2z M570.6,515.9c-6.4-2.5-12.8-4.7-18.5-6.1
		l-0.5-15.3c2,0.9,3.9,1.7,5.8,2.6c4.8,2.2,9.3,4.4,13.4,6.1L570.6,515.9z M570.8,501.3c-4.1-2-8.3-4.1-12.6-6.1
		c-2.3-1.1-4.7-2-6.7-2.6L551,477c6.9,3.6,13.7,7.3,19.9,10.7L570.8,501.3z M571.1,485.7c-6.7-3.9-13.6-7.6-20.1-10.7l-0.6-17.1
		c7.5,3.9,14.5,7.9,20.9,11.5L571.1,485.7z M584.2,562.1H572v-3.9c4.4,0.3,8.6,0.8,12.3,1.1L584.2,562.1z M584.6,557.2
		c-3.9-0.3-7.9-0.8-12.5-1.1l0.2-10.3c4.7,0.8,9,1.6,12.9,2.3L584.6,557.2z M585.4,546.1c-4.1-0.8-8.4-1.6-13.1-2.3l0.2-10.7
		c4.8,1.2,9.3,2.6,13.6,3.9L585.4,546.1z M572.5,530.9l0.2-11.8c5.3,2,10.1,4.1,14.2,5.5l-0.8,10.3
		C582,533.5,577.3,532.1,572.5,530.9z M596.6,562.1h-10.4l0.2-2.7c3.9,0.3,7.3,0.6,10.4,0.9L596.6,562.1z M597.1,558.3l-10.6-0.9
		l0.6-8.7c4.1,0.8,7.8,1.6,10.9,2.2L597.1,558.3z M587.4,546.4l0.6-9c4.2,1.2,8.1,2.5,11.4,3.6l-0.9,7.6
		C595.2,548,591.5,547.2,587.4,546.4z M608.9,562.1h-10.3l0.2-1.6c5,0.5,8.4,0.9,10.1,1.1L608.9,562.1z M609.2,559.5
		c-1.6-0.2-5.1-0.5-10.1-1.1l0.9-7.3c4.8,0.9,8.1,1.7,10,2.2L609.2,559.5z M600.4,549.1l0.9-7.5c5,1.6,8.3,2.8,9.7,3.3l-0.8,6.2
		C608.6,550.8,605.2,550,600.4,549.1z M671.6,216.4h29.3v56.2h-12.8v-40.2l-0.5-1.1h-16V216.4z M670.5,253.9l1.1-0.5v-19.9h14.5
		v39.1h-31v-39.1h14.5V253C669.6,253.4,670,253.9,670.5,253.9z M640.1,216.4h29.4v15.1H654l-1.1,0.5v40.7h-12.8V216.4z M634.5,274.6
		h72.1v78.7l-4.2,0.3l-0.2-0.3h-67.8V274.6z M711.9,562.1h-21.5V421.8l-0.5-1.1h-0.6l-1.1,0.5v140.9h-22.9v-73.7
		c0-0.6-0.5-1.1-1.1-1.1l-1.1,0.5v74.4h-23.1c-0.2-55.6-0.2-113.8,0-168.8c0-0.6-0.5-1.1-1.1-1.1l-1.1,0.5v0.6
		c-0.2,55.1-0.2,113.3,0,168.8h-8.7V355.3h21.3v52c0,0.6,0.5,1.1,1.1,1.1l1.1-0.5v-52.5h23.1v91.3c0,0.6,0.5,1.1,1.1,1.1l1.1-0.5
		v-91.8H701v25.1c0,0.6,0.5,1.1,1.1,1.1l1.1-0.5v-25.7h8.7V562.1z M742.1,522.5h12.3c0.6,0,1.1-0.5,1.1-1.1l-0.5-1.1h-12.9v-18.7
		h14.6c0.6,0,1.1-0.5,1.1-1.1l-0.5-1.1h-15.3V491h31c0.6,0,1.1-0.5,1.1-1.1l-0.5-1.1h-31.5v-18.7h14.6c0.6,0,1.1-0.5,1.1-1.1
		l-0.5-1.1h-15.3v-18.7h37.9v7.3h-29.9c-0.6,0-1.1,0.5-1.1,1.1l0.5,1.1h30.5v8.4h-10c-0.6,0-1.1,0.5-1.1,1.1l0.5,1.1h10.6v8.4h-32.9
		c-0.6,0-1.1,0.5-1.1,1.1l0.5,1.1h33.5v18.7h-10c-0.6,0-1.1,0.5-1.1,1.1l0.5,1.1h10.6v8.4h-32.9c-0.6,0-1.1,0.5-1.1,1.1l0.5,1.1
		h33.5v8.4h-12.3c-0.6,0-1.1,0.5-1.1,1.1l0.5,1.1h12.9v8.4H763c-0.6,0-1.1,0.5-1.1,1.1l0.5,1.1H780v8.4h-31.9
		c-0.6,0-1.1,0.5-1.1,1.1l0.5,1.1H780v8.4h-37.9V522.5z M780.2,562.1h-37.9v-9.9h37.9V562.1z M780.2,446.1h-37.9v-8.4h18.2
		c0.6,0,1.1-0.5,1.1-1.1l-0.5-1.1h-18.8v-8.4h37.9V446.1z M780.2,425.4h-37.9V417h37.9V425.4z M780.2,373.4h-12.3
		c-0.6,0-1.1,0.5-1.1,1.1l0.5,1.1h12.9v8.4h-33.6c-0.6,0-1.1,0.5-1.1,1.1l0.5,1.1h34.3v18.7h-10c-0.6,0-1.1,0.5-1.1,1.1l0.5,1.1
		h10.6v8.4h-37.9v-8.9h15.9c0.6,0,1.1-0.5,1.1-1.1l-0.5-1.1h-16.5V396h24.3c0.6,0,1.1-0.5,1.1-1.1l-0.5-1.1h-24.9v-18.7h12.3
		c0.6,0,1.1-0.5,1.1-1.1l-0.5-1.1h-12.9v-8.4h37.9V373.4z M780.2,321.4h-14.6c-0.6,0-1.1,0.5-1.1,1.1l0.5,1.1h15.3v29.1h-36
		c-0.6,0-1.1,0.5-1.1,1.1l0.5,1.1h36.6v8.4h-37.9v-18.7h22c0.6,0,1.1-0.5,1.1-1.1l-0.5-1.1h-22.6V334h32.9c0.6,0,1.1-0.5,1.1-1.1
		l-0.5-1.1h-33.5v-8.4h10c0.6,0,1.1-0.5,1.1-1.1l-0.5-1.1h-10.6v-8.1h22c0.6,0,1.1-0.5,1.1-1.1l-0.5-1.1h-22.6v-8.4h37.9V321.4z
		 M780.2,279.8h-14.6c-0.6,0-1.1,0.5-1.1,1.1l0.5,1.1h15.3v8.4h-33.6c-0.6,0-1.1,0.5-1.1,1.1l0.5,1.1h34.3v8.4h-37.9v-18.7h10
		c0.6,0,1.1-0.5,1.1-1.1l-0.5-1.1h-10.6v-8.4h37.9V279.8z M780.2,259h-10c-0.6,0-1.1,0.5-1.1,1.1l0.5,1.1h10.6v8.4h-37.9v-8.4h14.6
		c0.6,0,1.1-0.5,1.1-1.1l-0.5-1.1h-15.3v-8.4h37.9V259z M780.6,248.6h-38.3v-46.9l6.9,6.9v21.3c0,0.6,0.5,1.1,1.1,1.1l1.1-0.5v-19.6
		l8.4,8.6v20.9c0,0.6,0.5,1.1,1.1,1.1l1.1-0.5v-19.3l7.5,7.3v11.4c0,0.6,0.5,1.1,1.1,1.1l1.1-0.5v-9.7l9,9V248.6z M789,262.5h15
		c0.6,0,1.1-0.5,1.1-1.1l-0.5-1.1H789v-8.4h42.5c0.6,0,1.1-0.5,1.1-1.1l-0.5-1.1H789v-8.4h12.6c0.6,0,1.1-0.5,1.1-1.1l-0.5-1.1H789
		v-8.4h38.3c0.6,0,1.1-0.5,1.1-1.1l-0.5-1.1h-38.8v-18.7h20.9c0.6,0,1.1-0.5,1.1-1.1l-0.5-1.1h-21.5l-0.2-10l9.7-10.1v11.4
		c0,0.6,0.5,1.1,1.1,1.1l1.1-0.5l-0.2-13.9l7-7.5v10c0,0.6,0.5,1.1,1.1,1.1l1.1-0.5l-0.2-12.5l6.7-7v15.9c0,0.6,0.5,1.1,1.1,1.1
		l1.1-0.5l-0.2-18.4l9.7-10.1v36.6c0,0.6,0.5,1.1,1.1,1.1l1.1-0.5l-0.2-39.1l6.1-6.4V208h-14.2c-0.6,0-1.1,0.5-1.1,1.1l0.5,1.1h14.3
		v8.4h-44.7c-0.6,0-1.1,0.5-1.1,1.1l0.5,1.1h45.3v18.7h-23.4c-0.6,0-1.1,0.5-1.1,1.1l0.5,1.1h23.8v18.7h-22.1
		c-0.6,0-1.1,0.5-1.1,1.1l0.5,1.1h22.7v8.4H789V262.5z M835.8,509.4h-11.5c-0.6,0-1.1,0.5-1.1,1.1l0.5,1.1h12.2v8.4h-22.1
		c-0.6,0-1.1,0.5-1.1,1.1l0.5,1.1h22.7v8.4h-12.6c-0.6,0-1.1,0.5-1.1,1.1l0.5,1.1h13.2v8.4h-42.5c-0.6,0-1.1,0.5-1.1,1.1l0.5,1.1
		h43.1v18.7h-46.6V553h40c0.6,0,1.1-0.5,1.1-1.1l-0.5-1.1h-40.7v-18.7h24.5c0.6,0,1.1-0.5,1.1-1.1l-0.5-1.1h-25.1v-8.1h15
		c0.6,0,1.1-0.5,1.1-1.1l-0.5-1.1h-15.6v-8.4h25.7c0.6,0,1.1-0.5,1.1-1.1l-0.5-1.1h-26.3v-8.4h46.6V509.4z M836.1,467.8h-25.9
		c-0.6,0-1.1,0.5-1.1,1.1l0.5,1.1h26.3v8.4h-15c-0.6,0-1.1,0.5-1.1,1.1l0.5,1.1h15.6v8.4h-22.1c-0.6,0-1.1,0.5-1.1,1.1l0.5,1.1h22.7
		v8.4h-46.6v-8.9h16c0.6,0,1.1-0.5,1.1-1.1l-0.5-1.1h-16.7v-8.4h23.4c0.6,0,1.1-0.5,1.1-1.1l-0.5-1.1h-23.8v-18.7h46.6V467.8z
		 M819.3,426.2h-29.9v-8.4h46.6v18.8h-46.6v-8.3h29.3c0.6,0,1.1-0.5,1.1-1.1L819.3,426.2z M810.8,447.1h-21.5v-8.4h46.6v8.4h-17.3
		c-0.6,0-1.1,0.5-1.1,1.1l0.5,1.1h17.9v8.4h-46.6v-8.4h20.9c0.6,0,1.1-0.5,1.1-1.1L810.8,447.1z M836.1,332.7h-22.3
		c-0.6,0-1.1,0.5-1.1,1.1l0.5,1.1h22.7v18.7h-24.5c-0.6,0-1.1,0.5-1.1,1.1l0.5,1.1h25.1v8.4h-12.6c-0.6,0-1.1,0.5-1.1,1.1l0.5,1.1
		h13.2v8.4h-40c-0.6,0-1.1,0.5-1.1,1.1l0.5,1.1h40.7v8.4h-19.6c-0.6,0-1.1,0.5-1.1,1.1l0.5,1.1h20.3v18.7h-24.5
		c-0.6,0-1.1,0.5-1.1,1.1l0.5,1.1h25.1v8.4h-46.6v-8.4h11.5c0.6,0,1.1-0.5,1.1-1.1l-0.5-1.1h-12.2v-8.4h29.3c0.6,0,1.1-0.5,1.1-1.1
		l-0.5-1.1h-29.9v-8.4h18.5c0.6,0,1.1-0.5,1.1-1.1l-0.5-1.1h-19v-18.7H814c0.6,0,1.1-0.5,1.1-1.1l-0.5-1.1h-25.1v-8.4h12.6
		c0.6,0,1.1-0.5,1.1-1.1l-0.5-1.1h-13.2v-8.4h40c0.6,0,1.1-0.5,1.1-1.1l-0.5-1.1h-40.7v-8.4h15c0.6,0,1.1-0.5,1.1-1.1l-0.5-1.1
		h-15.6V324h46.6V332.7z M836.4,280.7H809c-0.6,0-1.1,0.5-1.1,1.1l0.5,1.1h27.6v18.7h-38.2c-0.6,0-1.1,0.5-1.1,1.1l0.5,1.1h38.8v8.4
		h-12.6c-0.6,0-1.1,0.5-1.1,1.1l0.5,1.1h13.2v8.4h-46.6v-8.4h23.4c0.6,0,1.1-0.5,1.1-1.1l-0.5-1.1h-23.8v-18.7h41
		c0.6,0,1.1-0.5,1.1-1.1l-0.5-1.1h-41.4v-8.4h10.6c0.6,0,1.1-0.5,1.1-1.1l-0.5-1.1h-11.1v-8.4h46.6V280.7z M912.9,390.2v171.9H897
		v-84.8l-0.5-1.1h-0.6l-1.1,0.5v85.4h-8.9V419.5c0-0.6-0.5-1.1-1.1-1.1l-1.1,0.5v143.2h-6.4L877,370.3l55.9-41l0.3,45.6L913,389.6
		L912.9,390.2z M953.5,562.1h-38.8l-0.2-170.9l19.6-14.3l19.3,13.7V562.1z M990.6,562.1h-8.1V419.5l-0.5-1.1h-0.6l-1.1,0.5v143.2
		h-8.9v-84.8c0-0.6-0.5-1.1-1.1-1.1l-1.1,0.5v85.4h-13.9V390.5l-0.2-0.6L935,375.6v-46.1l55.6,40.5V562.1z M1003.2,562.1h-10.3
		V369.5l-0.2-0.6l-58.1-42.5h-0.5l-0.6,0.2L876,368.7l-0.5,0.5v192.9h-6.2l-0.3-198.4l26.3-19.2l0.5-0.5l-0.3-56.1l40.5-22.9
		l40.8,22.4v56.2l0.2,0.6l26.3,18.8V562.1z M1009,562.1h-3.7V362.9l-0.2-0.6l-26.3-18.8v-56.2l-0.2-0.8l-41.7-23.4l-0.3-0.2h-0.2
		l-0.5,0.2l-41.4,23.2l-0.5,0.6l0.3,56.1L868,362.2l-0.5,0.5v199.4H864l-0.3-203.2l26.2-17.9l0.5-0.6l-0.3-56.2l46.3-26.2l46.4,25.7
		v56.4l0.2,0.6l26.2,17.6V562.1z M1199,436.9c-0.3,0-0.8,0-1.1,0.2c-0.3,0-0.8,0.2-1.1,0.2c0-0.8,0-1.6-0.3-2.3
		c-0.5-1.6-1.6-2.6-3-3.1c-0.5-0.2-1.1-0.3-1.7-0.3c-0.8,0-1.6,0.2-2.5,0.5c-1.7,0.6-3,1.4-3.7,2.6c-0.8,1.2-0.9,2.5-0.5,4.1
		c0.3,0.8,0.6,1.4,1.2,2c-0.3,0.2-0.6,0.3-0.9,0.5c-0.3,0.2-0.6,0.3-0.9,0.5c-0.2-0.8-0.5-1.6-0.9-2.2c-0.5-0.6-0.9-1.1-1.4-1.1
		h-0.2v-7.2c0.3,0,0.5-0.2,0.8-0.2c1.1-0.3,1.9-0.9,2.3-1.7c0.3-0.6,0.3-1.4,0.2-2.2c-0.2-0.3-0.3-0.6-0.5-0.9
		c0.2,0,0.5-0.2,0.5-0.3c0.2,0.3,0.3,0.6,0.5,0.9c0.6,0.8,1.4,1.2,2.3,1.2c0.8,0,1.6-0.3,2.3-0.9c0.9-0.6,1.6-1.6,1.6-2.3
		c0.2-0.8-0.2-1.4-0.6-2c-0.2-0.3-0.5-0.6-0.8-0.8l0.3-0.3c0.2,0.3,0.5,0.6,0.8,0.8c0.5,0.3,1.1,0.6,1.7,0.6l0.9-0.2
		c0.8-0.3,1.4-0.8,1.9-1.6c1.2-1.7,1.1-3.6-0.3-4.7c-0.3-0.2-0.6-0.3-0.9-0.5c0-0.2,0.2-0.5,0.3-0.5l0.9,0.5
		c0.3,0.2,0.6,0.2,0.9,0.2c0.6,0,1.1-0.2,1.6-0.5c0.5-0.3,0.8-0.8,1.1-1.2l0.2,17c-0.8,0.9-1.2,1.9-1.2,3
		C1198.6,435.5,1198.7,436.3,1199,436.9z M1199.7,524.8v6.7c-0.2,0-0.6-0.3-0.9-0.5c-0.3-0.2-0.6-0.2-1.1-0.2
		c-0.5,0-0.9,0.2-1.4,0.3c-2,0.6-3,2.2-2.5,3.9c0.2,0.3,0.3,0.6,0.5,0.9c-0.2,0-0.5,0.2-0.5,0.3c-0.2-0.3-0.3-0.6-0.5-0.9
		c-0.6-0.8-1.4-1.2-2.3-1.2c-0.8,0-1.6,0.3-2.3,0.8c-0.8,0.6-1.4,1.4-1.6,2.2c-0.2,0.8,0,1.7,0.5,2.3c0.2,0.3,0.5,0.6,0.8,0.8
		l-0.3,0.3c-0.2-0.3-0.5-0.5-0.8-0.8c-0.5-0.3-1.1-0.6-1.7-0.6c-0.3,0-0.6,0-0.9,0.2c-0.8,0.3-1.4,0.8-1.9,1.6
		c0,0.2-0.2,0.2-0.2,0.3c0.2-1.1,0-2-0.6-2.5v-2.2c0.5-0.2,0.8-0.5,1.1-0.8c0.5-0.6,0.6-1.6,0.6-2.5v-0.9c-0.2-1.2-0.8-2-1.7-2.5
		l-0.2-1.7c0.3-0.3,0.6-0.6,0.8-1.1c0.3-0.8,0.2-1.6-0.2-2.5c-0.2-0.3-0.3-0.8-0.5-0.8l-0.3-4.8c0.6-0.2,1.4-0.6,2-1.6
		c0.5-0.6,0.8-1.4,0.9-2.2c0.3,0.2,0.6,0.3,0.9,0.5c0.3,0.2,0.6,0.3,0.9,0.5c-0.5,0.6-0.9,1.2-1.2,2c-0.5,1.6-0.3,3,0.6,4.2
		c0.8,1.1,2,1.9,3.6,2.3c0.9,0.3,1.7,0.5,2.5,0.5c2.3,0,4-1.2,4.7-3.3c0.3-0.8,0.3-1.6,0.3-2.3c0.3,0.2,0.8,0.2,1.1,0.2
		c0.3,0,0.6,0.2,1.1,0.2c-0.3,0.8-0.5,1.6-0.5,2.3C1198.6,523.2,1199,524.3,1199.7,524.8z M1199.7,540.5v1.6
		c-0.2-0.2-0.5-0.3-0.8-0.5c0.2-0.3,0.3-0.8,0.5-1.1H1199.7z M1067.4,544.1V335.5h112.3v208.6H1067.4z M1176.9,548.8
		c-0.3,0.5-0.8,0.8-1.6,1.1c-0.3,0-0.5-0.2-0.8-0.3c-0.5-0.3-0.8-0.9-0.8-1.7c0-0.6-0.2-1.4-0.6-2v-0.2l0.9,0.6l2.6,0.2
		c0.5,0.2,0.8,0.5,0.8,0.8C1177.7,547.9,1177.1,548.6,1176.9,548.8z M1171.5,549.1c-0.5,0.5-0.8,0.6-0.9,0.8h-0.3
		c-0.6,0-1.2-0.3-1.7-0.8c-0.9-0.9-0.9-2.2-0.6-2.8l3.7-0.2c0.5,0.5,0.8,1.1,0.8,1.9C1172.2,548.3,1172.1,548.6,1171.5,549.1z
		 M1172.1,553.3c-0.2,0.5-0.6,1.1-1.1,1.4c-0.5,0.3-0.8,0.5-1.4,0.6c-0.5,0-0.8-0.2-0.9-0.5c-0.3-0.5-0.5-1.1-0.2-1.9
		c0.2-0.5,0.2-0.9,0.2-1.6c0.5,0.2,1.1,0.3,1.7,0.3c0.6,0,1.1,0.3,1.6,0.8C1172.1,552.7,1172.2,553,1172.1,553.3z M1146.5,549.1
		c0.3,0,0.6,0,0.9,0.2c1.1,0.5,1.4,1.9,0.8,3.1c-0.3,0.6-0.8,1.1-1.7,1.2c-0.3,0-0.6-0.2-1.1-0.3c-0.6-0.3-0.9-0.6-1.1-0.9
		c-0.2-0.6-0.2-1.2,0.2-1.9C1144.8,549.6,1145.8,549.1,1146.5,549.1z M1145.1,546.4l0.6-0.2h0.6v1.1c-0.3,0-0.8,0.2-1.1,0.3
		C1145.1,547.2,1145.1,546.9,1145.1,546.4z M1147.9,546.4c0-0.2,0.2-0.2,0.3-0.3l0.9-0.2l0.3,0.8l-0.5,0.8l-0.8,0.2L1147.9,546.4z
		 M1146.2,556.7c0-0.8,0.5-1.2,1.1-1.4c0.6-0.2,1.1-0.5,1.4-0.8c0.2,0.5,0.3,1.1,0.8,1.6c0.3,0.5,0.5,1.1,0.3,1.7
		c-0.2,0.5-0.5,0.8-1.2,0.9c-0.5,0-0.8-0.2-0.9-0.2c-0.6-0.2-1.1-0.5-1.2-0.8C1146.1,557.5,1146.1,557.2,1146.2,556.7z
		 M1149.6,549.1c0.3-0.2,0.6-0.5,0.9-0.8c0,0.3,0.2,0.8,0.5,1.2c-0.3,0.2-0.6,0.3-0.9,0.6C1150,549.7,1149.8,549.4,1149.6,549.1z
		 M1152.5,551h0.3c1.1,0.2,1.9,1.4,1.7,2.6c-0.2,0.6-0.5,1.2-1.1,1.7l-0.6,0.2c0,0-0.5,0-0.8,0c-0.8-0.2-1.1-0.3-1.4-0.6
		c-0.3-0.5-0.5-1.2-0.5-1.9C1150.4,551.9,1151.4,551,1152.5,551z M1154.6,556.7c0.5-0.3,0.8-0.6,1.1-1.1c0.3,0.5,0.6,0.8,1.1,1.2
		c0.5,0.3,0.8,0.9,0.8,1.6c0,0.3,0,1.1-1.9,1.4c-0.6,0-1.1-0.2-1.4-0.3c-0.3-0.2-0.5-0.6-0.5-0.9
		C1153.7,557.7,1154,557.2,1154.6,556.7z M1154.9,550.2c0.3-0.3,0.6-0.6,0.6-1.1c0.2,0.3,0.3,0.6,0.8,0.9c-0.3,0.3-0.5,0.5-0.8,0.8
		C1155.4,550.7,1155.1,550.5,1154.9,550.2z M1156.7,553.6c-0.2-1.2,0.6-2.5,1.7-2.6l0.3-0.6v0.6c1.1,0,2,0.9,2.2,2
		c0.2,0.6,0,1.2-0.5,1.9c-0.2,0.3-0.5,0.5-1.2,0.5h-0.8c-0.3,0-0.5,0-0.8-0.2C1157.1,554.9,1156.8,554.4,1156.7,553.6z
		 M1160.1,549.6c0.2-0.3,0.3-0.8,0.3-1.2c0.3,0.3,0.6,0.5,1.1,0.8c-0.2,0.3-0.3,0.6-0.5,1.1C1160.9,549.9,1160.6,549.7,1160.1,549.6
		z M1161.8,555.8c0.3-0.5,0.5-0.9,0.6-1.4c0.5,0.3,0.9,0.6,1.4,0.8c0.6,0.2,0.9,0.6,1.2,1.2c0.3,1.1-0.8,1.7-2,2l-0.5,0.6l-0.5-0.6
		c-0.3-0.2-0.6-0.3-0.8-0.8C1161.3,557,1161.5,556.4,1161.8,555.8z M1164.4,553.6c-0.8-0.2-1.2-0.6-1.6-1.2
		c-0.6-1.1-0.2-2.5,0.8-3.1c0.3-0.2,0.6-0.2,0.9-0.2c0.8,0,1.7,0.5,2,1.4c0.3,0.6,0.3,1.2,0.2,2c-0.2,0.3-0.5,0.6-1.1,0.9
		C1165.4,553.5,1165.1,553.6,1164.4,553.6z M1164.9,546.3h0.2c0.3,0.2,0.6,0.3,0.9,0.3c-0.2,0.3-0.2,0.8-0.2,1.1
		c-0.3-0.2-0.6-0.2-1.1-0.3C1165.1,547.1,1165.1,546.6,1164.9,546.3z M1142.6,549.1c-0.3,0.3-0.8,0.6-1.9,0.8
		c-0.3,0-0.6-0.2-1.2-0.8c-0.5-0.5-0.8-0.8-0.8-1.2c0-0.6,0.2-1.1,0.6-1.6l3.4-0.2C1143.7,546.9,1143.6,548.3,1142.6,549.1z
		 M1142.5,554.7c-0.3,0.3-0.6,0.5-0.9,0.5c-0.6,0-1.2-0.5-1.4-0.6c-0.5-0.3-0.8-0.8-0.9-1.1c-0.2-0.3,0-0.8,0.2-1.1
		c0.3-0.5,0.9-0.8,1.6-0.8h0.8c0.3,0,0.6-0.2,0.9-0.3c0,0.5,0,1.1,0.2,1.7C1143,553.6,1142.8,554.2,1142.5,554.7z M1137.7,546.3
		c-0.2,0.5-0.3,1.1-0.3,1.7c0,0.6-0.3,1.1-0.8,1.6l-0.8,0.3c-0.6,0-1.2-0.8-1.6-1.1c-0.3-0.5-0.6-0.9-0.6-1.4c0-0.5,0.2-0.6,0.8-1.1
		H1137.7z M1086.6,552.5c-0.5-1.1,0-2.3,1.1-3c0.3-0.2,0.8-0.3,1.2-0.3c0.3,0,0.5,0,0.8,0.2c0.3,0.2,0.6,0.5,0.9,1.1
		c0.3,0.8,0.5,1.1,0.3,1.6c-0.2,0.6-0.6,1.1-1.2,1.4c-0.3,0.2-0.5,0.2-1.2,0.3C1087.7,553.6,1086.9,553.3,1086.6,552.5z
		 M1087.5,555.2c-0.3,0.3-0.5,0.6-0.6,0.9c-0.3-0.2-0.8-0.3-1.2-0.3c0.3-0.3,0.5-0.6,0.8-1.1C1086.7,555,1087,555.2,1087.5,555.2z
		 M1090.8,547.9l-0.8-0.2c-0.5-0.2-0.8-0.2-1.2-0.2c-0.2,0-0.2,0-0.3,0c0.2-0.3,0.3-0.8,0.3-1.2l3.7,0.2c0,0.5-0.2,0.8-0.5,0.9
		C1091.7,547.7,1091.2,547.9,1090.8,547.9z M1079.7,546.6c0.2,0,0.2,0,0.3,0c0.3,0,0.6-0.2,0.6-0.2h0.3v0.9c-0.5,0-0.8,0.2-1.2,0.5
		C1079.9,547.4,1079.9,546.9,1079.7,546.6z M1075,553l-0.8,0.3l-0.3-0.8c0.2-0.2,0.3-0.3,0.5-0.3h0.3L1075,553z M1072.1,549.4
		l-0.6-1.1l0.2-0.6c0.3,0.2,0.6,0.3,1.1,0.5l0.5-0.2l-0.2,0.9L1072.1,549.4z M1072.4,551.9c0,0.3-0.3,0.5-0.6,0.5l-0.6-0.8
		c0-0.3,0.3-0.5,0.6-0.5h0.2C1072.2,551.3,1072.4,551.6,1072.4,551.9z M1068.8,551.1c0.5,0,0.6,0.2,0.8,0.5c0,0.3-0.2,0.6-0.6,0.8
		c-0.3,0-0.6-0.2-0.6-0.5C1068.2,551.6,1068.5,551.3,1068.8,551.1z M1067.6,548.6l-0.2-0.6c0.2,0.2,0.5,0.2,0.8,0.2h0.2
		c0.3,0,0.5-0.2,0.8-0.3v0.9l-0.6,0.6L1067.6,548.6z M1067.6,330.5c0.2-0.5,0.2-0.9,0.2-1.4c0.5,0.2,0.9,0.3,1.6,0.3
		c0.6,0,1.1,0.3,1.4,0.8c0.6,0.9-0.2,1.7-0.8,2.2c-0.3,0.3-0.8,0.5-1.4,0.5c-0.3,0-0.6-0.2-0.9-0.5
		C1067.6,331.8,1067.4,331.2,1067.6,330.5z M1092.6,333.4h-0.6c-0.9-0.3-1.7-0.5-2.6-0.5c-1.2,0-2.3-0.6-3-1.6
		c-0.5-0.6-0.8-1.2-0.6-1.9c0.2-1.2,1.6-2.3,1.9-2.6c0.9-0.6,1.9-1.1,2.6-1.1s1.6,0.3,2,1.1c0.8,0.9,0.9,2.2,0.5,3.6
		C1092.5,331.3,1092.5,332.3,1092.6,333.4z M1116.9,324c-0.9,0.6-1.6,1.4-2,2.5c-0.5-0.9-1.2-1.9-2.3-2.6c-0.9-0.8-1.6-1.9-1.6-3
		c0-0.8,0.2-1.4,0.6-1.9c0.9-0.9,2.6-0.9,3.1-0.9c1.1,0,2.2,0.3,2.8,0.8c0.6,0.5,0.9,1.1,0.9,2C1118.7,322.1,1118,323.2,1116.9,324z
		 M1119.6,325.3c0.5,0,0.8,0,1.2,0.2c1.2,0.2,2,0.5,2.6,1.2c0.8,0.9,0.9,2.2,0.8,3.4c-0.2,1.4-1.1,2.6-2,3.3h-3.7
		c-1.6-0.9-2.5-2.6-2.2-4.7c0.2-1.2,0.8-2.3,1.9-3.1l0.2-0.2C1118.7,325.4,1119.1,325.3,1119.6,325.3z M1115.4,333.4h-1.1
		c0.2-0.3,0.3-0.5,0.5-0.8C1114.9,332.9,1115.2,333.2,1115.4,333.4z M1111.5,325.7c0.9,0.8,1.6,1.9,1.9,3.1c0.3,1.9-0.6,3.7-2,4.5
		h-3.7c-1.2-0.6-2.2-1.9-2.5-3.3c-0.2-1.2,0-2.5,0.9-3.6c0.5-0.6,1.4-0.9,2.5-1.1c0.5,0,0.9-0.2,1.2-0.2
		C1110.6,325.3,1111,325.4,1111.5,325.7z M1104.5,325.4c-0.6,0.9-1.1,1.9-1.2,3c-0.8-0.8-1.7-1.4-3-1.7c-1.1-0.5-2-1.2-2.3-2.3
		c-0.9-2.5,1.6-3.6,2.6-4.1c0.6-0.2,1.2-0.3,1.9-0.3c0.3,0,0.8,0,1.1,0.2c0.8,0.3,1.2,0.8,1.6,1.7
		C1105.4,322.9,1105.3,324.2,1104.5,325.4z M1099,328.5l0.8,0.2c1.1,0.5,2.2,1.2,2.6,2.3c0.3,0.8,0.5,1.6,0.5,2.3h-8.1
		c-0.2-0.8-0.2-1.6,0-2.2l-0.6-0.2h0.6c0.3-0.8,0.9-1.2,2-1.7C1097.9,328.7,1098.6,328.5,1099,328.5z M1131.7,324.2
		c-0.3,1.1-1.2,2-2.6,2.5c-1.1,0.3-1.9,0.9-2.6,1.7c-0.2-1.1-0.6-2.2-1.4-3.1c-0.6-0.9-0.9-2.2-0.5-3.3c0.5-1.2,1.2-1.9,2.6-1.9
		c0.8,0,1.4,0.2,1.9,0.3c1.1,0.3,1.9,0.9,2.3,1.6C1132,322.6,1132,323.2,1131.7,324.2z M1132.7,329.1c1.1,0.6,1.7,1.1,2.2,2
		c0.2,0.6,0.2,1.4,0,2.2h-8.1c0-0.9,0.2-1.7,0.5-2.3c0.6-1.1,1.6-2,2.6-2.3v-0.6l0.8,0.5C1131.1,328.5,1131.7,328.7,1132.7,329.1z
		 M1136.7,330.2c-0.3-1.1-0.2-2.3,0.6-3.3c0.5-0.8,1.2-1.1,2-1.1c1.1,0,2.3,0.8,2.6,1.1c0.9,0.6,1.6,1.4,1.9,2.2
		c0.3,0.8,0.2,1.6-0.5,2.2c-0.6,0.9-1.9,1.6-3.3,1.6c-0.8,0-1.6,0.2-2.2,0.5h-0.9C1137.2,332.4,1137,331.3,1136.7,330.2z
		 M1180.5,546.3c-0.2,0-0.2,0.2-0.3,0.2c-0.5,0.3-0.8,0.8-1.1,1.2c0-0.5,0-0.9-0.2-1.4H1180.5z M1180.5,548.9
		c0.2-0.6,0.5-0.9,0.8-1.2h1.1c0.6,0.2,0.9,0.6,1.2,1.2c0.2,0.5,0.3,0.9,0.6,1.2c-0.5,0.2-0.9,0.3-1.4,0.6c-0.2,0.2-0.5,0.3-0.8,0.3
		l-0.3,0.6l-0.6-0.6C1180,550.8,1180.2,549.6,1180.5,548.9z M1183,462.5l0.9,0.9l-1.4-0.6c-0.2-0.2-0.5-0.2-0.6-0.2l-0.3-3.1h0.2
		C1181.6,460.5,1182,461.6,1183,462.5z M1199.2,355.8l0.5,0.3l-0.2,1.9c-0.2,0.2-0.3,0.3-0.9,0.5c-0.3,0-0.5-0.2-0.6-0.2l-0.9-1.1
		l0.6-1.1c0.2-0.2,0.5-0.5,0.8-0.5l0.2-0.6v0.6L1199.2,355.8z M1194.2,382.9c0.3,0.9,1.1,2,2.2,2.8c0.9,0.6,1.7,0.9,3.1,1.1v9.5
		c-0.6-1.1-1.6-1.7-2.6-1.7c-0.3,0-0.6,0-0.9,0.2c-0.3,0.2-0.6,0.3-0.9,0.5c0-0.2-0.2-0.5-0.3-0.5l0.9-0.5c0.8-0.6,1.2-1.4,1.2-2.3
		c0-0.8-0.3-1.6-0.8-2.3c-0.8-1.1-1.7-1.7-2.8-1.7c-0.6,0-1.2,0.2-1.7,0.6c-0.3,0.2-0.5,0.5-0.8,0.8l-0.3-0.3
		c0.3-0.2,0.6-0.5,0.8-0.8c0.6-0.8,0.8-1.7,0.5-2.5c-0.3-0.8-0.8-1.4-1.6-1.9c-0.8-0.6-1.6-0.8-2.3-0.8c-0.9,0-1.7,0.5-2.3,1.2
		c-0.2,0.3-0.3,0.6-0.5,0.9c-0.2,0-0.5-0.2-0.5-0.3c0.2-0.3,0.3-0.6,0.5-0.9c0.3-0.9,0.2-1.9-0.3-2.5c-0.5-0.6-1.1-1.1-2-1.4
		c-0.3-0.2-0.5-0.2-0.8-0.2v-15.1c0.2,0.3,0.2,0.6,0.3,1.1c0.8,2.3,2.3,3.6,4.2,3.6c0.5,0,0.9,0,1.4-0.2c0.6-0.2,1.1-0.5,1.6-0.9
		c0.2,0.3,0.2,0.5,0.3,0.6c0.2,0.2,0.2,0.5,0.3,0.6c-0.6,0.2-1.1,0.5-1.7,0.8c-1.1,0.8-1.7,1.9-1.7,3.1c0,1.1,0.5,2.2,1.2,3.3
		c1.1,1.6,2.5,2.3,3.9,2.3c0.8,0,1.6-0.3,2.3-0.8c0.5-0.3,0.9-0.8,1.2-1.4c0.2,0.2,0.3,0.3,0.5,0.6c0.2,0.2,0.3,0.3,0.5,0.5
		c-0.5,0.3-0.9,0.8-1.4,1.2C1194,380.4,1193.9,381.6,1194.2,382.9z M1198.1,415.1l-1.4-0.3c-0.6-0.2-0.9-0.6-1.2-1.2
		c-0.2-0.5-0.3-0.9-0.6-1.2c0.5-0.2,0.9-0.3,1.4-0.6c0.3-0.2,0.5-0.3,1.1-0.3h0.6c0.3,0.2,0.6,0.3,0.6,0.5c0.2,0.5,0.2,1.1,0,1.6
		c-0.2,0.6-0.5,0.9-0.8,1.2L1198.1,415.1z M1189.5,420.7c-0.5,0.5-0.8,0.6-1.2,0.8c-0.6,0-1.2-0.3-1.6-0.8c-0.9-0.9-0.9-2.2-0.2-3
		c0.3-0.3,0.8-0.5,1.4-0.5c0.6,0,1.2,0.3,1.7,0.8c0.5,0.5,0.6,1.1,0.8,1.7C1190.3,420,1190.2,420.3,1189.5,420.7z M1190.2,424.8
		c0,0.5-0.5,0.9-0.9,1.2c-0.3,0.3-0.8,0.5-1.4,0.5c-0.3,0-0.6-0.2-0.9-0.5c-0.3-0.5-0.5-1.1-0.2-1.7c0.2-0.5,0.2-0.9,0.2-1.4
		c0.5,0.2,0.9,0.3,1.6,0.3c0.6,0,1.1,0.3,1.4,0.8C1190.2,424.2,1190.3,424.5,1190.2,424.8z M1182.4,430.2l-0.5-0.2v-3.6
		c0.2,0,0.3,0.2,0.5,0.2c0.5,0.2,0.9,0.6,1.1,1.1c0.3,1.1-0.6,1.6-1.4,1.7L1182.4,430.2z M1182.4,444.4c-0.3,1.1-0.5,2.3-0.2,3.6
		c-0.2,0-0.2,0-0.3,0v-7.2C1182.5,441.8,1182.8,443,1182.4,444.4z M1182.7,456.6c-0.2,0.2-0.5,0.3-0.6,0.5v-6.9
		c0.1,0.1,0.2,0.1,0.3,0.2C1184.1,452.1,1184.2,454.9,1182.7,456.6z M1182.8,424.9c-0.5-0.2-0.8-0.3-0.9-0.3l0.3-3.7
		c0.3-0.2,0.5-0.2,0.8-0.2c0.8,0,1.6,0.5,2,1.2c0.3,0.6,0.3,1.2,0.2,1.9c-0.2,0.3-0.3,0.5-1.1,0.8
		C1183.8,424.9,1183.5,424.9,1182.8,424.9z M1182.8,386.2h0.3c0.3,0,0.6,0.2,1.1,0.3c0.6,0.3,0.9,0.6,1.1,0.9
		c0.2,0.6,0.2,1.2-0.2,1.7c-0.5,0.8-1.2,1.2-2,1.2c-0.3,0-0.6,0-1.1-0.2l-0.2-3.4C1182,386.5,1182.4,386.2,1182.8,386.2z
		 M1182,384.8v-3.1c0-0.2,0.2-0.2,0.2-0.2c0.6,0.2,0.9,0.5,1.2,0.8c0.2,0.3,0.3,0.6,0.2,1.1c-0.2,0.6-0.6,0.9-1.2,1.2
		C1182.2,384.6,1182.2,384.8,1182,384.8z M1195.9,399.6c-0.5-0.3-0.8-0.5-1.2-0.6c0.3-0.5,0.6-0.9,0.8-1.4c0.2-0.5,0.6-0.9,1.6-1.2
		c0.8,0,1.2,1.1,1.4,1.4c0.2,0.6,0.2,1.1,0.2,1.4c-0.2,0.5-0.3,0.6-1.4,0.9C1196.8,400,1196.4,399.9,1195.9,399.6z M1198.3,403.8
		c1.1,0,1.2,0.9,1.2,1.9c0,0.6-0.2,1.1-0.3,1.4c-0.2,0.3-0.5,0.3-0.9,0.5c-0.6,0-1.1-0.3-1.6-0.8c-0.2-0.6-0.5-0.9-0.9-1.1
		c0.5-0.3,0.8-0.6,1.1-1.1C1197.2,404.1,1197.8,403.8,1198.3,403.8z M1194.2,411.1l-0.9-0.6c-1.2-0.2-2-1.2-1.9-2.3
		c0.2-0.8,1.1-1.6,2.2-1.6h0.3c0.6,0.2,1.2,0.5,1.6,0.9c0.2,0.3,0.2,0.6,0.2,1.2c-0.2,0.8-0.3,1.1-0.6,1.2c-0.3,0.2-0.6,0.3-0.9,0.5
		L1194.2,411.1z M1189.7,405.6c0.3-0.2,0.6-0.3,0.9-0.6c0.2,0.3,0.5,0.5,0.8,0.6c-0.3,0.2-0.5,0.5-0.8,0.6
		C1190.3,405.9,1190,405.8,1189.7,405.6z M1190.5,410.8c-0.3,0.2-0.6,0.2-0.9,0.3c-0.2-0.3-0.3-0.6-0.6-0.9c0.3,0,0.6-0.2,1.1-0.3
		C1190.2,410.3,1190.3,410.6,1190.5,410.8z M1188.9,400.8c0.3-0.2,0.5-0.5,0.6-0.9c0.3,0.2,0.6,0.3,0.9,0.3
		c-0.2,0.3-0.3,0.6-0.5,0.9C1189.7,401,1189.4,400.8,1188.9,400.8z M1195.4,403.6c-0.3,0.5-0.9,0.8-1.9,0.9c-1.1,0-2-0.8-2.2-1.7
		c-0.2-0.5,0-1.1,0.5-1.4c0.3-0.5,0.9-0.8,1.6-0.8l0.5-0.6v0.6c0.3-0.2,0.8,0,1.2,0.3c0.3,0.2,0.3,0.5,0.5,1.2
		C1195.8,403,1195.8,403.3,1195.4,403.6z M1193.9,393.2h-0.8c-0.3-0.2-0.8-0.2-1.2-0.2h-0.2c0.2-0.5,0.3-0.9,0.3-1.6
		c0-0.6,0.3-1.1,0.8-1.4c0.3-0.2,0.5-0.3,0.6-0.3c0.6,0,1.2,0.8,1.4,0.9c0.3,0.5,0.5,0.9,0.5,1.4c0,0.3-0.2,0.6-0.5,0.9
		C1194.7,393.2,1194.4,393.2,1193.9,393.2z M1191.9,394.7l0.8,0.2c0.3,0.2,0.5,0.3,0.8,0.9c0.3,0.6,0.5,0.9,0.3,1.4
		c-0.2,0.6-0.6,1.1-1.1,1.4c-0.2,0.2-0.5,0.2-1.1,0.3c-0.8,0-1.6-0.5-1.9-1.1c-0.5-0.9,0-2.2,1.1-2.8
		C1191.2,394.7,1191.6,394.7,1191.9,394.7z M1188.3,389.6V389l0.2,0.6c0.3,0,0.6,0.2,1.1,0.6c0.5,0.5,0.6,0.8,0.8,1.2
		c0,0.6-0.3,1.2-0.6,1.6c-0.3,0.3-0.8,0.6-1.7,0.6c-0.5,0-1.1-0.2-1.4-0.6c-0.3-0.3-0.5-0.8-0.5-1.4c0-0.2,0.2-0.8,0.6-1.2
		C1187.2,389.9,1187.8,389.6,1188.3,389.6z M1187,385.1c0.3-0.3,0.5-0.5,0.9-0.5c0.6,0,1.2,0.5,1.4,0.5c0.5,0.3,0.8,0.8,0.9,1.1
		c0.2,0.3,0,0.6-0.2,0.9c-0.3,0.5-0.9,0.8-1.6,0.8c-0.5,0-0.9,0.2-1.4,0.3c0-0.5,0-1.1-0.2-1.6
		C1186.6,386.2,1186.7,385.5,1187,385.1z M1187.3,399.6l-0.8-0.3l0.5-1.1l0.3-0.6v0.6h0.2l0.8,0.3l-0.2,0.8L1187.3,399.6z
		 M1188.1,415.6h-0.2c-0.3,0-0.5,0-0.8,0.2c0-0.3-0.2-0.6-0.3-1.1c0.2,0,0.3,0.2,0.6,0.2c0.2,0,0.3,0,0.5-0.2
		C1188,415,1188,415.3,1188.1,415.6z M1186.7,396.6c0.2-0.3,0.3-0.6,0.3-1.1c0.3,0,0.5,0.2,0.8,0.2h0.2c-0.2,0.3-0.2,0.6-0.2,0.9
		l-0.3-0.2h-0.2C1187.2,396.4,1187,396.4,1186.7,396.6z M1186.4,402.8c-0.2,0.3-0.2,0.5-0.2,0.8l0.3,0.6h-0.9l-0.6-0.6l0.8-0.9
		L1186.4,402.8z M1184.9,401l-0.8-0.3l0.5-1.1l0.5-0.2c0,0.3,0,0.5,0.2,0.8l0.5,0.5L1184.9,401z M1183.5,391.9l0.3,0.2
		c0.3,0,0.5-0.2,0.8-0.2v0.9c-0.5,0-0.8,0.2-1.1,0.3C1183.6,392.7,1183.6,392.2,1183.5,391.9z M1185.2,394.6l0.2,0.8l-0.5,0.6
		l-0.8-0.2v-1.2c0.2-0.2,0.3-0.2,0.3-0.2L1185.2,394.6z M1182.2,396.6l0.3-0.3c0.2,0.3,0.2,0.5,0.5,0.6l0.6,0.5l-0.6,0.6l-0.8-0.2
		V396.6z M1183.3,417.9c0.5,0.3,0.8,0.3,1.1,0.3c0,0.3-0.2,0.6-0.2,0.9c-0.3-0.2-0.6-0.2-0.9-0.2
		C1183.5,418.7,1183.3,418.2,1183.3,417.9z M1185.2,411.1l-0.2,0.8l-0.8-0.5l-0.2-0.8l0.8-0.3l0.2-0.6v0.6l0.3,0.2l0.5,0.2
		C1185.5,410.6,1185.3,410.8,1185.2,411.1z M1185.5,408l-0.3-0.8l0.6-0.6c0,0,0.2-0.2,0.3-0.2l0.6,0.2c-0.2,0.2-0.3,0.5-0.3,0.8v0.8
		L1185.5,408z M1189.7,413.4c0.3-0.6,1.1-1.1,1.9-1.1c0.3,0,0.8,0.2,1.1,0.3c0.6,0.3,0.9,0.8,1.2,1.4c0.2,0.3,0,0.6-0.3,1.2
		c-0.3,0.6-0.6,0.9-0.9,1.1l0.2,0.6l-0.9-0.5c-0.3,0-0.8-0.2-1.1-0.3C1189.7,415.6,1189.2,414.4,1189.7,413.4z M1191.9,418.2
		c0.5,0,0.8,0,1.9-0.3c0.3,0,0.8,0.2,1.1,0.3c0.3,0.2,0.5,0.5,0.5,0.8c0.2,0.5-0.2,1.1-0.5,1.6c-0.3,0.5-0.8,0.8-1.4,0.9
		c-0.2,0-0.5-0.2-0.6-0.3c-0.5-0.3-0.8-0.9-0.8-1.6c0-0.5-0.2-0.9-0.3-1.4C1191.7,418.2,1191.9,418.2,1191.9,418.2z M1198.3,409.7
		c-0.3-0.2-0.6-0.2-1.1-0.2c0-0.2,0-0.5,0.2-0.5c0.3,0.2,0.6,0.2,1.1,0.2c0.5,0,0.9-0.2,1.2-0.3v1.7
		C1199.3,410.1,1198.9,409.8,1198.3,409.7z M1198.4,402c-0.3,0-0.8,0-1.1,0.2c0-0.2,0-0.5-0.2-0.5c0.3,0,0.8,0,1.1-0.2
		c0.6-0.2,1.1-0.5,1.4-0.9v1.7C1199.3,402.2,1198.9,402,1198.4,402z M1196.7,380.7c0.6-0.8,1.4-1.2,2.3-1.2c0,0,0.5,0,0.6,0l0.2,5.6
		c-0.8-0.2-1.6-0.6-2-0.9c-0.8-0.6-1.2-1.1-1.4-1.7C1196.2,381.8,1196.2,381.2,1196.7,380.7z M1189.1,360.6c-0.5-0.3-0.6-0.9-0.8-2
		c-0.2-1.1-0.2-1.7,0.3-2.3c0.6-0.8,1.4-1.2,2.5-1.4h0.6c1.6,0,3,1.1,3.3,2.8c0.3,1.7-1.1,3.4-3.7,3.7
		C1190.5,361.4,1189.7,361.1,1189.1,360.6z M1190.3,363.3c-0.6,0.6-1.1,1.4-1.4,2.3c-0.3,0.9-0.9,1.6-1.9,1.9l-0.8,0.2
		c-1.4,0-2.2-1.7-2.3-2.3c-0.3-0.9-0.3-1.7-0.2-2.3c0.2-0.6,0.6-0.9,1.2-1.2c0.3-0.2,0.6-0.2,0.9-0.2c0.8,0,1.4,0.3,2,0.8
		C1188.6,362.8,1189.4,363.1,1190.3,363.3z M1192.2,352.4l-0.6,0.6l-0.6-0.6c-0.9-0.2-1.9-0.6-2.5-1.6c-0.3-0.5-0.3-1.1-0.2-2.2
		c0.2-1.1,0.5-1.7,0.9-2c0.6-0.5,1.4-0.6,2.2-0.6h0.6c2,0.3,3.3,2,3,3.7C1194.8,351,1193.6,352,1192.2,352.4z M1188.7,353.6
		c-0.8,0.5-1.4,0.9-2,1.9c-0.5,0.6-1.1,1.1-2.3,1.2c-2,0-2.2-2-2.2-3s0.2-1.7,0.6-2.2c0.3-0.5,0.9-0.8,1.6-0.8
		c0.9,0,1.9,0.5,2.5,1.4C1187.3,352.7,1188,353.3,1188.7,353.6z M1184.4,358.6c0.6,0,1.2-0.2,1.9-0.3c0,0.3,0,0.5,0.2,0.8
		c0,0.3,0.2,0.5,0.2,0.8c-0.2,0-0.2,0-0.3,0c-0.5,0-1.1,0.2-1.6,0.3c-1.2,0.5-2.2,1.2-2.5,2.5c0,0.2-0.2,0.3-0.2,0.5v-5.3
		C1182.5,358.3,1183.5,358.6,1184.4,358.6z M1190.9,371.5c0.3,0,0.6,0,1.1,0.2c0.5,0.2,1.1,0.3,1.7,0.3c0.5,0,0.8,0,0.9,0
		c-0.3,0.8-0.6,1.7-0.6,2.6c0,0.9-0.5,1.7-1.2,2.3c-0.3,0.3-0.6,0.3-1.2,0.5c-1.1,0-2-1.1-2.3-1.6c-0.6-0.8-0.8-1.6-0.8-2.2
		c0-0.6,0.3-1.1,0.8-1.6C1189.7,371.8,1190.3,371.5,1190.9,371.5z M1195.6,369.8c-0.3,0-0.6,0.2-1.7,0.3c-0.3,0-0.8,0-1.2-0.2
		c-0.5-0.2-0.9-0.6-1.4-1.6c-0.5-1.1-0.6-1.6-0.5-2.2c0.3-0.9,0.9-1.7,1.9-2.2c0.6-0.3,1.1-0.5,1.7-0.5c1.2,0,2.3,0.6,3,1.7
		C1198.1,366.8,1197.3,368.9,1195.6,369.8z M1197.5,362.3c-0.6-0.5-1.2-0.6-2-0.8c0.5-0.5,0.9-1.1,1.1-1.9c0.5,0.3,1.1,0.6,2,0.6
		h0.9l-0.5,0.3C1198.3,360.9,1197.8,361.5,1197.5,362.3z M1199.2,364l0.2-1.2c0-0.2,0.2-0.3,0.3-0.5v2L1199.2,364z M1199.7,366.7
		v1.9h-0.5C1199.5,368.1,1199.7,367.5,1199.7,366.7z M1195.9,355.2c-0.5-0.6-0.9-1.1-1.7-1.4c0.6-0.3,1.2-0.8,1.7-1.4
		c0.5,0.5,1.2,1.1,2,1.4C1197,353.9,1196.2,354.4,1195.9,355.2z M1195.6,345.5c0.8-0.2,1.4-0.5,2-0.8c0.2,0.9,0.6,1.6,1.6,2l0.5-0.2
		v0.3l-1.1-0.2c-0.8,0-1.4,0.3-1.9,0.6C1196.4,346.7,1196.1,346.1,1195.6,345.5z M1197.5,342.2c-0.5,0.9-1.2,1.6-3,1.7
		c-0.6,0-1.2-0.2-1.7-0.5c-0.9-0.5-1.6-1.2-1.9-2.3c-0.2-0.5,0-1.1,0.5-2c0.5-1.1,0.9-1.4,1.6-1.7c0.3-0.2,0.8-0.2,1.1-0.2
		c0.6,0,1.2,0.2,1.7,0.5C1197.5,338.5,1198.3,340.5,1197.5,342.2z M1193.9,335.2c-0.6,0-1.1,0.2-1.9,0.3l-0.9,0.2
		c-0.6,0-1.2-0.2-1.7-0.6c-1.6-1.1-0.6-2.8,0-3.7c0.6-0.8,1.1-1.2,2.3-1.6c0.5,0,0.8,0.2,1.2,0.5c0.8,0.6,1.2,1.4,1.2,2.6
		c0,0.8,0.2,1.7,0.6,2.3H1193.9z M1187.8,345c-0.3,0.3-0.8,0.5-1.7,0.5c-0.3,0-0.6,0-0.9-0.2c-1.9-0.6-1.4-2.6-1.2-3.6
		c0.3-0.9,0.8-1.6,1.2-1.9c0.3-0.3,0.6-0.3,1.1-0.3c0.2,0,0.5,0,0.8,0.2c0.9,0.3,1.6,0.9,2,2c0.3,0.8,0.6,1.6,1.2,2.2
		C1189.4,344.1,1188.6,344.6,1187.8,345z M1184.5,347.4c0.5,0.2,0.9,0.3,1.6,0.3c0.2,0,0.2,0,0.3,0c0,0.3-0.2,0.5-0.2,0.8
		c0,0.3,0,0.5-0.2,0.8c-0.6-0.2-1.2-0.3-1.9-0.3c-0.9,0-1.7,0.3-2.5,0.8v-5.1c0,0.3,0.2,0.5,0.2,0.8
		C1182.5,346.1,1183.5,346.9,1184.5,347.4z M1182,400.6v0.6l0.5,0.2c0.2,0.3,0,0.6-0.6,1.1l-0.2-1.2L1182,400.6z M1182.8,494.6
		c-0.5,0.5-0.8,0.9-0.9,1.4v-1.6c0.2,0,0.5-0.2,0.8-0.3l1.2-0.6L1182.8,494.6z M1182.4,506.6c-0.2,0.2-0.3,0.3-0.5,0.3v-7
		c0.3,0.2,0.5,0.3,0.6,0.5C1184.2,502.1,1184.1,504.9,1182.4,506.6z M1183.6,473.2c0.5,0,0.9,0.3,1.1,0.6l0.6,1.9l-1.1,1.1l-1.2,0.3
		l-1.1-0.2v-3.9L1183.6,473.2z M1181.9,467.8V465c0.3,0.2,0.5,0.5,0.5,0.8v1.9L1181.9,467.8z M1184.5,466.2l1.6,0.8
		c0.5,0.2,0.8,0.6,0.8,0.9v1.9l-1.7,0.8c-0.3,0-0.5,0-0.8-0.2l-1.6-0.8l0.5-0.2c0.5-0.3,0.9-0.8,1.1-1.2c0.3-0.5,0.3-0.9,0.3-1.6
		L1184.5,466.2z M1185.6,452.5c0.9,0.5,1.9,0.8,3,0.8c-0.3,1.1-0.3,2.2,0.3,3.3l0.6,1.2l-1.1-1.1c-0.6-0.6-1.6-1.1-2.5-1.1h-0.5
		C1185.8,454.7,1185.9,453.6,1185.6,452.5z M1188.6,462.6c0.3-0.3,0.6-0.9,0.8-1.4v-0.5l1.2,1.2c0.3,0.3,0.5,0.8,0.5,1.1l-0.6,1.9
		l-1.6,0.2c-0.3,0-0.8-0.2-0.9-0.5l-1.2-1.4h0.5C1187.8,463.1,1188.3,463,1188.6,462.6z M1191.9,472c-0.2,0.5-0.6,0.8-1.4,0.8
		l-0.6-0.2c-0.3-0.2-0.6-0.5-0.8-0.9c-0.2-0.3-0.2-0.8,0.2-1.1c0.3-0.5,0.8-0.8,1.4-0.8c0.3,0,0.5,0,0.6,0.2
		c0.3,0.2,0.6,0.5,0.8,0.9C1192,471.2,1192,471.7,1191.9,472z M1192.3,488.5c0.3-0.3,0.6-0.5,1.1-0.5c0.5,0,0.8,0.2,1.1,0.5
		c0.6,0.6,0.6,1.6,0,2.2c-0.3,0.3-0.6,0.5-1.1,0.5c-0.5,0-0.8-0.2-1.1-0.5C1191.7,490.1,1191.7,489.1,1192.3,488.5z M1191.4,487.6
		l-0.9-0.3c-0.6,0-1.1-0.3-1.4-0.8c-0.2-0.3-0.2-0.8-0.2-1.1c0.2-0.3,0.3-0.6,0.8-0.9c0.2-0.2,0.5-0.2,0.6-0.2
		c0.6,0,1.1,0.3,1.4,0.8c0.3,0.8,0.2,1.7-0.6,2L1191.4,487.6z M1188.7,503.6c-1.1,0-2,0.3-3,0.8c0.2-1.1,0.2-2-0.2-3.1h0.9
		c0.8-0.2,1.4-0.5,2-1.1l0.9-0.9l-0.6,1.4C1188.3,501.6,1188.3,502.7,1188.7,503.6z M1189.4,496.4V496c-0.2-0.6-0.3-1.1-0.8-1.4
		c-0.3-0.3-0.9-0.6-1.4-0.6h-0.5l1.2-1.2c0.3-0.3,0.6-0.5,0.9-0.5h0.2l1.9,0.6l0.2,1.4c0,0.3-0.2,0.8-0.5,1.1L1189.4,496.4z
		 M1184.4,488.8c-0.3-0.5-0.6-0.9-1.1-1.1l-0.5-0.3l1.7-0.8c0.3-0.2,0.5-0.2,0.8-0.2l0.5,0.2l1.6,1.1l-0.3,1.4
		c0,0.3-0.3,0.8-0.8,0.9l-1.6,0.8l0.2-0.5C1184.7,489.7,1184.7,489.3,1184.4,488.8z M1188.9,467.2h0.2l0.8-0.2v0.9
		c-0.3,0-0.6,0.2-0.9,0.3l-0.2-0.6C1189.1,467.5,1189.1,467.3,1188.9,467.2z M1189.1,474.6h0.2c0.5,0,0.8,0.3,0.9,0.6
		c0.2,0.3,0.3,0.8,0.3,1.1c-0.2,0.6-0.6,1.1-1.7,1.2c-0.8-0.2-1.4-0.9-1.2-1.7C1187.7,475.1,1188.3,474.6,1189.1,474.6z
		 M1190.5,480.7c0,0.5,0,0.8-0.3,1.1c-0.3,0.3-0.6,0.5-1.2,0.6c-0.8,0-1.4-0.5-1.4-1.2c-0.2-0.8,0.5-1.6,1.2-1.7l0.3-0.6v0.6
		C1189.8,479.5,1190.5,479.9,1190.5,480.7z M1187.5,484c-0.2,0.3-0.3,0.6-0.3,0.8c0,0-0.8-0.3-0.9-0.5c0,0.2,0.5-0.8,0.5-0.8
		C1186.9,483.7,1187.2,483.8,1187.5,484z M1186.7,473.4l-0.3-0.5c0-0.2-0.2-0.3-0.3-0.3c0.2,0,0.9-0.5,0.9-0.5
		c0,0.3,0.2,0.6,0.3,0.8C1187.2,473.1,1186.9,473.2,1186.7,473.4z M1186.6,478.4c-0.2,0.3-0.5,0.6-0.6,0.8c0,0-0.6-0.6-0.8-0.6
		c0.2-0.2,0.8-0.8,0.8-0.8C1186.1,478.1,1186.3,478.2,1186.6,478.4z M1189.1,489.4l0.2-0.6c0.3,0.2,0.5,0.2,0.9,0.2v0.9l-0.9-0.2
		C1189.1,489.7,1189.1,489.6,1189.1,489.4z M1183,479.9l0.3-0.6v0.6c0.3,0,0.8,0.2,0.9,0.3l1.1,1.6l-0.6,1.2
		c-0.2,0.3-0.6,0.6-1.1,0.6l-1.7,0.3v-3.9L1183,479.9z M1182.7,490.1l-0.3,1.4c0,0.2-0.2,0.5-0.5,0.6v-2.6L1182.7,490.1z
		 M1184.2,496.1c0.3-0.3,0.6-0.5,0.9-0.5h0.2l1.9,0.6l0.2,1.4c0,0.3-0.2,0.8-0.5,1.1c-0.3,0.3-0.6,0.5-1.1,0.5l-1.9-0.6l-0.2-1.4
		C1183.8,496.9,1183.9,496.4,1184.2,496.1z M1184.7,508.3c0.8-1.6,2.3-2.6,4.1-2.6c0.6,0,1.2,0.2,1.7,0.5c2,1.1,2.8,3.7,1.6,5.9
		c-0.6,1.1-1.6,2-2.8,2.3v0.6l-0.8-0.5c-0.6,0-1.1-0.2-2.2-0.6c-1.1-0.6-1.9-1.1-2.2-2C1183.9,510.8,1184.1,509.5,1184.7,508.3z
		 M1191.2,504.1l-0.6-1.4c-0.2-0.3-0.2-0.8,0.2-1.2c0.2-0.5,0.6-0.8,0.9-0.8l1.4-0.3l0.2-0.6v0.6l0.3,0.3l0.6,1.4
		c0.2,0.3,0.2,0.6-0.2,1.2c-0.2,0.5-0.6,0.8-0.9,0.8H1191.2z M1193.3,498.3l-0.9,0.2l0.8-1.7c0.2-0.5,0.6-0.8,0.9-0.8h1.9l0.6,1.4
		c0.2,0.3,0.2,0.8-0.2,1.2l-0.8,1.6l-0.2-0.5c-0.3-0.5-0.6-0.9-1.1-1.1C1194,498.5,1193.6,498.3,1193.3,498.3z M1194.8,486.5
		c-0.3,0-0.6-0.2-0.8-0.5l-0.6,0.2l0.5-0.8c0-0.3,0.2-0.5,0.3-0.6c0.2-0.2,0.3-0.2,0.6-0.2c0.3,0,0.6,0.2,0.8,0.5
		c0.2,0.2,0.2,0.5,0.2,0.6C1195.8,486,1195.6,486.2,1194.8,486.5z M1194.5,468.4c-0.2,0.2-0.5,0.3-1.1,0.5c-0.5,0-0.8-0.2-1.1-0.5
		c-0.6-0.6-0.6-1.6,0-2.2c0.3-0.3,0.6-0.5,1.1-0.5c0.5,0,0.8,0.2,1.1,0.5c0.3,0.3,0.5,0.6,0.5,1.1
		C1194.8,467.8,1194.7,468.1,1194.5,468.4z M1193.1,463.9l0.2-0.6v-0.5c0.2,0,1.1,0.2,1.1,0.2c-0.2,0.3-0.2,0.6-0.2,0.9h-0.6
		C1193.3,463.9,1193.3,463.9,1193.1,463.9z M1194,460.9c-0.3,0-0.8-0.3-0.9-0.8l-0.8-1.6l0.5,0.2h0.8l0.8-0.3
		c0.5-0.2,0.9-0.6,1.1-1.1l0.3-0.5l0.8,1.7c0.2,0.5,0.3,0.9,0.2,1.2l-1.1,1.6L1194,460.9z M1194.2,455.2l-1.1,1.6l-1.4-0.3
		c-0.3-0.2-0.8-0.3-0.9-0.8c-0.2-0.5-0.3-0.9-0.2-1.2l0.8-1.6l0.2-0.6v0.6l1.6,0.3c0.3,0,0.6,0.3,0.9,0.8
		C1194.2,454.4,1194.4,454.9,1194.2,455.2z M1190.5,450.8c-0.5,0.3-1.1,0.5-1.7,0.5c-1.7,0-3.3-1.1-4.1-2.6
		c-0.6-1.1-0.8-2.5-0.3-3.6l-0.6-0.2h0.6c0.3-0.8,0.9-1.2,2-1.9c0.9-0.5,1.6-0.6,2.2-0.6l0.8,0.2c1.2,0.3,2.2,1.2,2.6,2.3
		C1193.3,447.2,1192.5,449.9,1190.5,450.8z M1184.4,458l1.4-0.2l0.2-0.6v0.6c0.3,0,0.8,0.2,0.9,0.5c0.3,0.3,0.5,0.8,0.5,1.1
		l-0.6,1.9l-1.6,0.2c-0.3,0-0.6-0.2-0.9-0.5c-0.3-0.3-0.5-0.8-0.5-1.1L1184.4,458z M1182.2,509.4c-0.2,1.1-0.2,2.3,0.3,3.6
		c0.3,1.1,0.2,2.3-0.6,3.3l-0.3-6.7C1181.7,509.5,1181.9,509.4,1182.2,509.4z M1181.6,545.8c0.2-0.2,0.3-0.5,0.3-0.8v-1.6
		c0,0.8,0.5,1.6,1.2,2c0.3,0.2,0.6,0.3,0.9,0.5c0,0.2-0.2,0.5-0.3,0.5c-0.3-0.2-0.6-0.3-0.9-0.5c-0.3-0.2-0.6-0.2-0.9-0.2
		C1181.7,545.8,1181.7,545.8,1181.6,545.8z M1184.1,544.3c-0.9-0.6-0.3-1.7,0-2.2c0.3-0.5,0.8-0.8,1.4-0.9c0.2,0,0.5,0.2,0.6,0.3
		c0.5,0.3,0.8,0.9,0.8,1.6c0,0.4,0.1,0.9,0.3,1.3c0-0.1-0.1-0.1-0.1-0.1c-0.5,0-0.8,0-1.9,0.3
		C1184.9,544.6,1184.4,544.4,1184.1,544.3z M1185.3,547.2c0.3-0.6,0.6-0.9,0.9-1.1c0.2,0,0.5-0.2,0.6-0.2c0.3,0,0.8,0.2,1.1,0.3
		c1.2,0.5,1.7,1.7,1.2,2.8c-0.3,0.5-0.8,0.9-1.9,1.1c-0.3,0-0.8-0.2-1.1-0.3c-0.6-0.3-0.9-0.8-1.2-1.4
		C1184.9,548.2,1185,547.9,1185.3,547.2z M1189.2,544.3c-0.5-0.5-0.6-1.1-0.6-1.7c0-0.2,0.3-0.3,0.8-0.9c0.5-0.5,0.8-0.6,1.1-0.8
		v-0.6l0.2,0.6c0.6,0,1.2,0.3,1.6,0.6c0.9,0.9,0.9,2.2,0.2,3c-0.3,0.3-0.8,0.6-1.4,0.6C1190.3,545,1189.7,544.7,1189.2,544.3z
		 M1189.7,536.5c0.5-0.3,0.9-0.5,1.4-0.5c0.3,0,0.6,0.2,0.9,0.5c0.3,0.5,0.5,1.1,0.2,1.7c-0.2,0.5-0.2,0.9-0.2,1.4
		c-0.5-0.2-0.9-0.3-1.6-0.3c-0.6,0-1.1-0.3-1.4-0.8C1188.3,537.6,1189.1,536.8,1189.7,536.5z M1194.7,521.4
		c-0.3,1.1-0.9,1.6-2.6,1.9c-0.8,0-1.6-0.2-1.9-0.3c-1.1-0.3-2-0.9-2.5-1.6c-0.5-0.6-0.6-1.4-0.3-2.3c0.3-1.1,1.2-2,2.6-2.5
		c1.1-0.3,2-0.9,2.8-1.7c0.2,1.1,0.6,2.2,1.4,3.3C1194.8,519,1195.1,520.3,1194.7,521.4z M1194.7,508.9c-0.2-1.1-0.6-2-1.1-2.8
		c0.9-0.2,1.9-0.9,2.5-2l0.6-1.2l-0.3,1.6c-0.2,1.1,0.2,2.2,0.8,3C1196.4,507.7,1195.4,508.1,1194.7,508.9z M1196.7,494
		c-0.3-0.2-0.6-0.5-0.8-0.9c-0.2-0.3-0.2-0.8,0.2-1.1c0.3-0.5,0.8-0.8,1.4-0.8c0.3,0,0.5,0,0.6,0.2c0.8,0.3,1.1,1.2,0.6,2
		c-0.2,0.5-0.6,0.8-1.4,0.8C1197.2,494.1,1197,494,1196.7,494z M1197.6,485.4c0-0.5-0.2-0.9-0.5-1.6c-0.3-0.5-0.8-0.8-1.2-0.9
		c0.2-0.5,0.2-0.9,0-1.6c-0.2-0.5-0.5-0.9-0.9-1.2c0.2-0.3,0.3-0.8,0.5-1.6c0-0.5-0.2-1.1-0.5-1.6c0.3-0.3,0.6-0.6,0.9-1.2
		c0.2-0.5,0.2-1.1,0-1.6c0.5-0.2,0.8-0.5,1.2-0.9c0.3-0.5,0.5-0.9,0.5-1.6c0.5,0,0.8-0.2,1.6-0.5c0.2-0.2,0.3-0.3,0.5-0.5v15.7
		c-0.2-0.2-0.3-0.3-0.5-0.5C1198.7,485.5,1198.3,485.4,1197.6,485.4z M1196.7,468.7c0-0.3,0.2-0.5,0.5-0.6c0.2,0,0.3-0.2,0.5-0.2
		h0.2c0.3,0,0.5,0.2,0.6,0.3c0.2,0.5,0.2,1.1-0.3,1.4l-0.6,0.2c-0.3,0-0.5-0.2-0.6-0.3C1196.7,469.3,1196.7,469,1196.7,468.7z
		 M1198.1,465.9l0.3,0.5l-0.9-0.3c-0.6,0-1.1-0.3-1.4-0.8c-0.2-0.3-0.2-0.8-0.2-1.1c0.2-0.3,0.3-0.6,0.8-0.9
		c0.2-0.2,0.5-0.2,0.6-0.2c0.6,0,1.1,0.3,1.4,0.8C1199,464.7,1198.9,465.4,1198.1,465.9z M1196.5,452.8l0.2,1.4l-0.6-1.4
		c-0.5-1.1-1.4-1.7-2.5-1.9c0.6-0.8,0.9-1.9,1.1-2.8c0.8,0.8,1.6,1.2,2.6,1.6C1196.5,450.5,1196.2,451.6,1196.5,452.8z
		 M1193.9,439.3c-0.6,0.9-1.1,1.9-1.2,3c-0.8-0.8-1.7-1.4-3-1.9c-1.1-0.5-2-1.2-2.3-2.5c-0.8-2.5,1.7-3.6,2.8-3.9
		c0.6-0.2,1.2-0.3,1.9-0.3c0.5,0,0.8,0,1.1,0.2c0.8,0.3,1.2,0.8,1.6,1.7C1195,436.8,1194.8,438,1193.9,439.3z M1199.8,377.9
		l-0.8-0.5c-0.6,0-1.1-0.3-1.9-1.1c-0.6-0.8-1.1-1.2-1.1-2c0-0.9,0.5-1.9,1.1-2.6c0.6-0.6,1.6-1.1,2.5-1.1l0.3,6.7L1199.8,377.9z
		 M1199.2,351.4l-0.8,0.2c-0.5,0-0.6-0.3-0.8-0.5l-0.5-1.4l0.9-0.8c0.2-0.2,0.3-0.2,0.6-0.2h0.2c0.3,0,0.6,0.3,0.9,0.6l0.2,1.4
		L1199.2,351.4z M1197.2,335.5c-0.8-0.8-1.1-1.7-1.1-2.8c0-0.6,0.3-1.1,1.1-1.9c0.8-0.8,1.2-1.1,1.9-1.1v-0.6l0.2,0.6l0.5,0.2
		l0.2,6.7C1198.9,336.6,1197.9,336.2,1197.2,335.5z M1199.7,327.9c-0.2,0-0.6,0-0.6,0c-0.9,0-1.9-0.5-2.3-1.2
		c-0.5-0.8-0.6-1.4-0.2-2.2c0.3-0.6,1.1-1.2,1.2-1.4c0.6-0.5,1.2-0.8,1.9-0.8V327.9z M1195.6,315.6c0.6,0.5,0.8,0.9,0.6,1.6
		c-0.2,0.6-0.5,1.1-0.6,1.4c-0.5,0.6-0.9,0.9-1.9,1.2c-0.3,0-0.6-0.2-0.9-0.3c-0.6-0.5-0.9-1.1-0.9-2c0-0.6-0.2-1.1-0.3-1.7
		L1195.6,315.6z M1185,315.6l4.4-0.2c0.5,0.6,0.8,1.2,0.8,2c0,0.5-0.3,0.8-0.9,1.4c-0.5,0.5-0.9,0.8-1.6,0.9c-0.8,0-1.6-0.3-2-0.9
		C1184.7,317.9,1184.4,316.7,1185,315.6z M1185.6,321.4c0.6,0.3,1.2,0.5,2,0.5s1.4,0.3,1.9,0.9c1.1,1.1,0,2-0.8,2.6
		c-0.5,0.3-0.9,0.6-1.7,0.6c-0.5,0-0.9-0.2-1.2-0.6c-0.5-0.6-0.6-1.4-0.3-2.2C1185.6,322.6,1185.8,322,1185.6,321.4z M1181.4,315.6
		h1.6c-0.2,0.5-0.2,0.9-0.2,1.6c-0.5-0.2-0.9-0.3-1.4-0.3C1181.6,316.5,1181.6,316.1,1181.4,315.6z M1180,318.9
		c0.3-0.2,0.6-0.3,1.1-0.3c1.1,0,2,0.6,2.5,1.6c0.3,0.8,0.5,1.6,0.2,2.3c-0.2,0.5-0.5,0.8-1.2,1.1c-0.5,0.3-0.8,0.3-1.6,0.3h-0.2
		c-0.8-0.3-1.4-0.8-1.7-1.6C1178.3,321.2,1178.8,319.5,1180,318.9z M1178.6,324.9c0.5,0.5,1.1,0.8,1.9,1.1c0.8,0.3,1.2,0.8,1.4,1.6
		c0.2,0.5,0.2,0.8,0,1.1c-0.3,0.8-1.4,1.1-2.3,1.4l-0.5,0.6l-0.6-0.6c-0.5-0.2-0.8-0.5-0.9-0.9c-0.3-0.8-0.2-1.6,0.5-2.2
		C1178.2,326.2,1178.5,325.6,1178.6,324.9z M1176.1,317.6c0.3,0.6,0.8,0.9,1.4,1.2c-0.3,0.5-0.5,0.9-0.6,1.4
		c-0.3-0.3-0.8-0.6-1.2-0.8C1176.1,318.9,1176.3,318.2,1176.1,317.6z M1173.8,320.9l0.3-0.6v0.6c1.2,0,2.3,1.1,2.6,2.5
		c0.2,0.8,0,1.6-0.6,2.3c-0.3,0.3-0.6,0.5-1.6,0.6c-0.3,0-0.6,0.2-0.8,0.2c-0.3,0-0.6,0-0.9-0.3c-0.6-0.5-1.1-1.1-1.1-2
		C1171.5,322.6,1172.4,321.2,1173.8,320.9z M1172.9,329.6c0,0.3,0,1.4-2.3,1.7c-0.8,0-1.4-0.2-1.7-0.5c-0.5-0.3-0.6-0.6-0.6-1.2
		c0-0.8,0.3-1.4,1.1-2c0.5-0.3,0.9-0.9,1.2-1.4c0.3,0.6,0.8,1.1,1.4,1.6C1172.5,328.2,1172.9,328.8,1172.9,329.6z M1170.5,318.6
		c0.2,0.6,0.5,1.2,0.9,1.6c-0.3,0.3-0.8,0.8-0.9,1.1c-0.3-0.5-0.6-0.8-0.9-1.1C1170.1,319.8,1170.4,319.2,1170.5,318.6z
		 M1167.3,320.9c1.4,0.2,2.3,1.7,2.2,3.3c-0.2,0.8-0.6,1.6-1.2,2l0.3,0.5l-1.2-0.3c-0.3,0-0.5,0-0.8-0.2c-0.9-0.2-1.2-0.3-1.7-0.8
		c-0.5-0.6-0.6-1.4-0.5-2.2c0.2-1.4,1.4-2.5,2.6-2.5L1167.3,320.9z M1164.9,317.6c0,0.6,0.2,1.2,0.5,1.7c-0.5,0.2-0.9,0.5-1.2,0.8
		c-0.2-0.5-0.3-0.9-0.6-1.4C1164,318.6,1164.4,318.2,1164.9,317.6z M1163.4,326.8c0.5,0.6,0.5,1.4,0.3,2c-0.2,0.6-0.6,0.9-1.6,1.1
		c-0.5,0-0.9-0.2-1.2-0.2c-0.8-0.2-1.2-0.6-1.6-0.9c-0.3-0.5-0.3-0.8-0.2-1.4c0.2-0.8,0.8-1.2,1.7-1.6c0.6-0.2,1.2-0.5,1.7-0.9
		C1162.7,325.6,1162.9,326.2,1163.4,326.8z M1158.5,315.6h1.1c0,0.5,0,0.8,0.2,1.2c-0.5,0-0.9,0.2-1.4,0.3c0-0.6,0-1.2-0.3-1.9
		L1158.5,315.6z M1157.4,320.3c0.5-0.9,1.6-1.6,2.5-1.6c0.3,0,0.8,0.2,1.1,0.3c1.2,0.6,1.7,2.3,0.9,3.7c-0.3,0.8-0.9,1.2-2.2,1.6
		c-0.3,0-0.8-0.2-1.4-0.5c-0.8-0.5-1.1-0.8-1.4-1.2C1157,321.8,1157.1,321,1157.4,320.3z M1151.7,315.6l4.4-0.3
		c0.8,1.1,0.6,2.5-0.5,3.6c-0.5,0.5-1.1,0.8-2.2,0.9c-0.5,0-0.8-0.3-1.4-0.9c-0.6-0.6-0.9-1.1-0.9-1.6
		C1151.1,316.7,1151.2,316.2,1151.7,315.6z M1155.7,323.4c0,0.6-0.2,1.4-0.5,2c-0.3,0.5-0.8,0.6-1.2,0.6c-0.8,0-1.4-0.5-1.7-0.6
		c-0.6-0.5-0.9-0.9-1.1-1.4c-0.2-0.5-0.2-0.9,0.3-1.4c0.5-0.6,1.1-0.9,1.9-0.9h0.9c0.5,0,0.8-0.2,1.1-0.3
		C1155.4,322,1155.4,322.8,1155.7,323.4z M1145.3,315.6h4.2c-0.3,0.6-0.3,1.2-0.3,1.9c0,0.8-0.3,1.4-0.9,1.9
		c-0.3,0.2-0.5,0.3-0.9,0.3c-0.8,0-1.6-0.9-1.9-1.2c-0.5-0.6-0.6-1.2-0.6-1.7C1144.8,316.2,1145,315.9,1145.3,315.6z M1143.3,315.6
		c-0.2,0.3-0.3,0.8-0.3,1.2c0,0.9,0.3,1.9,1.1,2.8c0.9,1.2,2.2,2,3.3,2c0.6,0,1.4-0.2,2-0.6c0.5-0.3,0.8-0.6,0.9-1.1
		c0.2,0.2,0.6,0.6,0.6,0.6c-0.5,0.3-0.8,0.6-1.1,0.9c-0.6,0.9-0.8,2-0.5,3c0.3,0.8,0.9,1.7,1.9,2.3c0.9,0.6,1.9,1.1,2.8,1.1
		c1.1,0,2-0.5,2.6-1.4c0.3-0.3,0.5-0.8,0.6-1.2c0.2,0.2,0.8,0.3,0.9,0.5c-0.3,0.3-0.5,0.8-0.6,1.2c-0.3,1.1-0.2,2.2,0.5,3
		c0.5,0.8,1.4,1.2,2.5,1.6c0.6,0.2,1.2,0.3,1.7,0.3c1.6,0,2.8-0.9,3.3-2.3c0.2-0.5,0.2-0.9,0.2-1.4c0.2,0,0.8,0.2,0.9,0.2
		c-0.2,0.5-0.3,0.9-0.3,1.4c0,1.1,0.5,2,1.4,2.6c0.8,0.5,1.7,0.8,2.8,0.8c1.4,0,2.5-0.5,3.3-1.1c0.6-0.6,0.9-1.4,0.9-2.3
		c0-0.5-0.2-0.9-0.3-1.4c0.2,0,0.8-0.2,0.9-0.2c0,0.5,0,0.9,0.2,1.4c0.3,1.1,1.1,1.9,2.2,2.2c0.3,0.2,0.8,0.2,1.2,0.2
		c0.6,0,1.1-0.2,1.7-0.3c1.2-0.5,2.2-1.1,2.6-2c0.5-0.8,0.5-1.7,0.2-2.5c-0.2-0.5-0.3-0.9-0.6-1.2c0.2,0,0.8-0.3,0.9-0.5
		c0.2,0.5,0.3,0.9,0.6,1.2c0.6,0.9,1.6,1.4,2.6,1.4c0.9,0,1.9-0.3,2.8-1.1c2-1.6,2.5-3.6,1.2-5.3c-0.3-0.3-0.6-0.8-1.1-0.9
		c0.2-0.2,0.6-0.6,0.6-0.6c0.3,0.5,0.6,0.8,0.9,1.1c0.6,0.5,1.2,0.6,2,0.6c0.3,0,0.6,0,0.9-0.2c0.9-0.3,1.7-0.9,2.3-1.9
		c0.9-1.4,1.2-2.8,0.8-3.9h1.9v4.7c-0.9,0-2,0.5-3.1,1.2c-1.2,0.8-1.9,1.9-2.2,3c-0.3,1.1,0,2.3,0.6,3.3c0.3,0.5,0.8,0.9,1.4,1.2
		c-0.2,0.2-0.3,0.3-0.6,0.5c-0.2,0.2-0.3,0.3-0.5,0.5c-0.3-0.5-0.8-0.9-1.2-1.4c-0.8-0.5-1.6-0.8-2.3-0.8c-0.5,0-0.8,0-1.2,0.2
		c-0.9,0.3-2,1.1-2.8,2.2c-0.9,1.2-1.4,2.6-1.1,3.9c0.2,0.9,0.8,1.9,1.6,2.5c0.5,0.3,1.1,0.6,1.7,0.8c-0.2,0.2-0.3,0.5-0.3,0.6
		c-0.2,0.2-0.2,0.5-0.3,0.6c-0.5-0.5-1.1-0.6-1.6-0.9c-0.5-0.2-0.9-0.2-1.2-0.2c-0.8,0-1.6,0.3-2.2,0.8c-0.9,0.6-1.6,1.6-1.9,3
		c-0.2,0.3-0.2,0.8-0.3,1.1v-7.9c0-0.6-0.5-1.1-1.1-1.1h-36.5c0.3-0.3,0.5-0.5,0.6-0.8c0.9-1.2,1.2-2.8,0.8-4.2
		c-0.5-1.2-1.2-2.3-2.6-3.3c-1.2-0.9-2.6-1.4-3.9-1.4c-1.6,0-2.8,0.6-3.7,2c-0.5,0.6-0.8,1.4-0.9,2.2l-0.9-0.5
		c-0.3-0.2-0.6-0.3-0.9-0.5c0.5-0.6,0.9-1.2,1.2-2c0.5-1.6,0.3-3-0.6-4.2c-0.8-1.1-1.9-1.9-3.4-2.3c-0.9-0.3-1.7-0.5-2.5-0.5
		c-2.3,0-3.9,1.2-4.7,3.3c-0.3,0.8-0.3,1.6-0.3,2.3c-0.3-0.2-0.8-0.2-1.1-0.2c-0.3,0-0.6-0.2-1.1-0.2c0.3-0.8,0.5-1.6,0.5-2.3
		c0-1.6-0.6-3-1.9-3.7c-1.1-0.8-2.3-1.1-4.1-1.1c-0.5,0-0.9,0-1.4,0.2c-2.8,0.5-4.5,2.2-4.4,4.8c0,0.8,0.2,1.6,0.5,2.3
		c-0.3,0-0.8,0.2-1.1,0.2s-0.6,0.2-1.1,0.2c0-0.8,0-1.6-0.3-2.3c-0.5-1.6-1.6-2.5-3-3c-0.5-0.2-1.1-0.3-1.7-0.3
		c-0.8,0-1.6,0.2-2.5,0.5c-3.4,1.1-5,3.6-4.1,6.5c0.3,0.8,0.6,1.4,1.1,2c-0.3,0.2-0.6,0.3-0.9,0.5l-0.9,0.5
		c-0.2-0.8-0.5-1.6-0.9-2.2c-0.9-1.2-2.2-2-3.7-2c-1.2,0-2.6,0.5-3.9,1.4c-3,2.2-3.6,5-1.9,7.5c0.2,0.3,0.5,0.6,0.6,0.8h-13.9
		c0.6-0.6,1.1-1.2,1.2-1.9c0.2-0.8,0-1.7-0.5-2.3c-0.2-0.3-0.5-0.6-0.8-0.8l0.3-0.3c0.2,0.3,0.5,0.5,0.8,0.8
		c0.5,0.3,1.1,0.6,1.7,0.6c0.3,0,0.6,0,0.9-0.2c0.8-0.2,1.4-0.8,1.9-1.6c1.2-1.7,1.1-3.6-0.3-4.7c-0.3-0.2-0.6-0.3-0.9-0.5
		c0-0.2,0.2-0.5,0.3-0.5c0.3,0.2,0.6,0.3,0.9,0.5c0.3,0.2,0.6,0.2,0.9,0.2c0.6,0,1.1-0.2,1.6-0.5c0.6-0.5,1.1-1.1,1.4-2
		c0.6-2,0-3.7-1.7-4.2c-0.3-0.5-0.6-0.5-0.9-0.6H1143.3z M1077.1,317.8c0.3-0.2,0.5-0.3,1.1-0.3h0.6c1.1,0.3,0.9,1.6,0.6,2.2
		c-0.2,0.6-0.5,0.9-0.8,1.2l-1.1,0.2c-0.6-0.2-0.9-0.6-1.2-1.2c-0.2-0.5-0.3-0.9-0.6-1.2C1076.1,318.2,1076.6,318.1,1077.1,317.8z
		 M1076.1,325.1c0.2,0.5-0.2,1.1-0.5,1.6c-0.3,0.5-0.8,0.8-1.4,0.9c-0.2,0-0.5-0.2-0.6-0.3c-0.5-0.3-0.8-0.9-0.8-1.6
		c0-0.5-0.2-0.9-0.3-1.4h0.2c0.5,0,0.8,0,1.9-0.3c0.3,0,0.8,0.2,1.1,0.3C1076,324.5,1076.1,324.8,1076.1,325.1z M1073.5,318.9
		c0.6,0.3,0.9,0.8,1.2,1.4c0.2,0.3,0,0.6-0.3,1.2c-0.3,0.6-0.6,0.9-0.8,1.1l-0.8,0.2c-0.3,0-0.8-0.2-1.1-0.3
		c-0.5-0.3-0.9-0.8-1.1-1.2c-0.2-0.5-0.2-1.1,0-1.6c0.3-0.6,1.1-1.1,1.9-1.1C1072.7,318.6,1073.2,318.7,1073.5,318.9z M1070.8,316.2
		c0.2,0.3,0.3,0.6,0.5,0.9c-0.3,0.2-0.6,0.2-0.9,0.3c-0.2-0.3-0.3-0.6-0.6-0.9C1070,316.5,1070.5,316.4,1070.8,316.2z M1068.2,320.9
		c0.2,0,0.3,0,0.5-0.2c0,0.3,0.2,0.6,0.2,0.9h-0.2c-0.3,0-0.5,0-0.8,0.2c0-0.3-0.2-0.8-0.3-1.1
		C1067.9,320.9,1068,320.9,1068.2,320.9z M1067.4,324c0.3-0.3,0.8-0.5,1.4-0.5c0.6,0,1.2,0.3,1.7,0.8c0.5,0.5,0.8,1.1,0.8,1.7
		c0,0.3-0.2,0.6-0.6,1.1c-0.5,0.5-0.8,0.6-1.2,0.8c-0.6,0-1.2-0.3-1.6-0.6C1066.8,326.2,1066.6,324.8,1067.4,324z M1065.7,316.4h0.5
		l0.5,0.2c-0.2,0.2-0.5,0.3-0.5,0.6l-0.2,0.8l-0.8-0.5l-0.2-0.8L1065.7,316.4z M1064.1,324.2c0.5,0.2,0.8,0.3,1.1,0.3
		c0,0.3-0.2,0.6-0.2,0.9c-0.3-0.2-0.6-0.2-0.9-0.2C1064.3,324.9,1064.3,324.5,1064.1,324.2z M1063,327.1c0.3-0.2,0.5-0.2,0.8-0.2
		c0.8,0,1.6,0.5,2,1.2c0.3,0.6,0.3,1.2,0.2,1.9c-0.2,0.3-0.5,0.5-1.1,0.8c-0.3,0.2-0.6,0.3-1.2,0.3c0,0,0,0-0.2,0
		c-0.6-0.2-1.1-0.6-1.4-1.1C1061.6,329,1062.1,327.7,1063,327.1z M1059,537.9c0.2,0.3,0.3,0.8,0.5,1.1c-0.2,0-0.5,0.3-0.6,0.3
		c-0.2-0.3-0.3-0.8-0.5-1.1c-0.6-0.8-1.4-1.2-2.3-1.2c-0.8,0-1.6,0.3-2.5,0.9c-0.2,0-0.2,0.2-0.3,0.2c0-0.6-0.3-1.4-0.8-2
		c-0.3-0.5-0.8-0.9-1.4-1.2c0.2-0.2,0.3-0.3,0.5-0.5c0.2-0.2,0.3-0.3,0.5-0.5c0.3,0.5,0.8,0.9,1.2,1.4c0.8,0.5,1.6,0.8,2.3,0.8
		c0.5,0,0.8,0,1.2-0.2c1.1-0.3,2-1.1,2.8-2.2c0.9-1.2,1.4-2.6,1.1-3.9c-0.2-0.9-0.8-1.9-1.6-2.5c-0.5-0.3-1.1-0.6-1.7-0.8
		c0.2-0.2,0.3-0.5,0.3-0.6c0.2-0.2,0.2-0.5,0.3-0.6c0.5,0.5,1.1,0.6,1.6,0.9c0.5,0.2,0.9,0.2,1.2,0.2c0.8,0,1.6-0.3,2.2-0.8
		c0.8-0.6,1.4-1.4,1.7-2.5v11.5c-0.3-0.3-0.8-0.6-1.1-0.6c-0.3-0.2-0.6-0.2-1.1-0.2c-0.5,0-0.9,0.2-1.6,0.3
		c-1.1,0.3-1.9,0.9-2.2,1.6C1058.8,536,1058.7,536.9,1059,537.9z M1047.9,523.1c0,0.8,0.2,1.4,0.5,2.2h-0.9v-2
		C1047.6,523.2,1047.8,523.2,1047.9,523.1z M1047.5,521.1l0.2-2.3c0.3,0.2,0.6,0.5,0.6,0.6v1.4L1047.5,521.1z M1047.8,527.1
		c0.9,0,1.9,0.3,2.6,1.1c0.8,0.8,1.1,1.7,1.1,2.8c0,0.6-0.3,1.1-1.1,1.9c-0.6,0.6-1.1,0.9-2,1.1h-0.5c-0.2,0-0.5,0-0.5,0.3v-7
		C1047.6,527.1,1047.6,527.1,1047.8,527.1z M1050.1,515.1l-1.2-0.2c-0.3,0-0.6-0.3-0.8-0.5l-0.5-1.4l0.9-0.8
		c0.2-0.2,0.3-0.2,0.6-0.2h0.2c0.3,0,0.6,0.3,0.8,0.5l0.5,1.4l-0.8,0.8L1050.1,515.1z M1053.2,480.7c-0.3-1.1-1.1-2-2.2-2.8
		c-1.1-0.8-2.2-1.1-3.1-1.1c-0.2,0-0.3,0-0.3,0v-8.1c0.6,1.1,1.6,1.7,2.6,1.7c0.3,0,0.6,0,0.9-0.2c0.3-0.2,0.6-0.3,0.9-0.5
		c0,0.2,0.2,0.5,0.3,0.5c-0.3,0.2-0.6,0.3-0.9,0.5c-0.8,0.6-1.2,1.4-1.2,2.3c0,0.8,0.3,1.6,0.9,2.3c0.8,1.1,1.7,1.7,2.8,1.7
		c0.6,0,1.1-0.2,1.7-0.6c0.3-0.2,0.5-0.5,0.8-0.8l0.3,0.3c-0.3,0.2-0.5,0.5-0.8,0.8c-0.6,0.8-0.8,1.7-0.5,2.5
		c0.3,0.8,0.8,1.4,1.6,1.9c0.8,0.6,1.6,0.8,2.3,0.8c0.9,0,1.7-0.5,2.3-1.2c0.2-0.3,0.3-0.6,0.5-0.9c0.2,0,0.5,0.2,0.5,0.3
		c-0.2,0.3-0.3,0.6-0.5,0.9c-0.3,0.9-0.2,1.9,0.3,2.5c0.5,0.6,1.2,1.1,2,1.4c0.3,0.2,0.5,0.2,0.8,0.2v12c-0.8-2-2.2-3.1-3.9-3.1
		c-0.5,0-0.9,0-1.4,0.2c-0.6,0.2-1.1,0.5-1.6,0.9c-0.2-0.3-0.6-1.1-0.6-1.4c0.6-0.2,1.1-0.5,1.7-0.8c1.1-0.8,1.7-1.9,1.7-3.1
		c0-1.1-0.5-2.2-1.2-3.3c-1.1-1.6-2.5-2.3-3.9-2.3c-0.8,0-1.6,0.3-2.3,0.8c-0.5,0.3-0.9,0.8-1.2,1.4c-0.2-0.2-0.8-0.9-1.1-1.1
		c0.5-0.3,0.9-0.8,1.4-1.2C1053.4,483.2,1053.5,482,1053.2,480.7z M1048.4,370c0,0.2,0.5,0.9,0.5,0.9c-0.3,0-0.6,0.2-0.9,0.3
		c-0.2-0.3-0.5-0.5-0.8-0.6C1047.2,370.6,1048.2,370,1048.4,370z M1047.5,367.8v-2l0.5-0.3l-0.3,1.9
		C1047.6,367.5,1047.6,367.6,1047.5,367.8z M1052.6,338.2c0.6,0.5,1.4,0.6,2.3,0.6c1.1,0,2-0.3,2.6-0.9c0.5-0.5,0.8-1.2,0.8-2
		c0-0.3,0-0.8-0.2-1.1c0.2,0,0.5,0,0.5-0.2c0,0.3,0,0.8,0.2,1.1c0.3,0.9,0.9,1.6,1.9,1.9c0.3,0.2,0.6,0.2,1.1,0.2
		c0.5,0,0.9-0.2,1.4-0.3c0.8-0.3,1.2-0.6,1.7-1.1l0.3,11.2c-0.6,0.5-1.2,1.1-1.9,1.7c-0.5,0.6-0.8,1.4-0.9,2.2
		c-0.3-0.2-0.6-0.3-0.9-0.5c-0.3-0.2-0.6-0.3-0.9-0.5c0.5-0.6,0.9-1.2,1.2-2c0.5-1.6,0.3-3-0.6-4.2c-0.8-1.1-2-1.9-3.6-2.3
		c-0.9-0.3-1.7-0.5-2.5-0.5c-2.3,0-4,1.2-4.7,3.3c-0.3,0.8-0.3,1.6-0.3,2.3c-0.3-0.2-0.8-0.2-1.1-0.2c-0.3,0-0.6-0.2-1.1-0.2
		c0.3-0.8,0.5-1.6,0.5-2.3c0-1.1-0.3-1.9-0.9-2.5v-4.4c0.3,0,0.6,0.2,0.8,0.2c1.4,0,2.3-0.8,2.8-2c0.2-0.3,0.2-0.6,0.2-1.1
		c0.2,0,0.5,0,0.5,0.2c-0.2,0.3-0.2,0.6-0.2,1.1C1051.5,336.8,1052,337.6,1052.6,338.2z M1055.3,333.2c0.3,0.5,0.6,0.8,1.1,1.1
		c0.5,0.3,0.8,0.9,0.8,1.4c0,0.3,0,1.1-1.9,1.2c-0.6,0-1.1-0.2-1.4-0.3c-0.3-0.2-0.5-0.5-0.5-0.9c0-0.6,0.3-1.1,0.8-1.6
		C1054.6,334,1054.9,333.7,1055.3,333.2z M1054.6,328.1c0.3-0.2,0.5-0.5,0.6-0.9c0.2,0.3,0.3,0.6,0.6,0.9c-0.3,0.2-0.5,0.5-0.6,0.8
		C1055.1,328.5,1054.8,328.2,1054.6,328.1z M1065.2,404.2v2.5c0-0.8-0.5-1.7-1.2-2.3l-0.9-1.1l1.4,0.6
		C1064.8,404.1,1065.1,404.1,1065.2,404.2z M1064.6,401.3v-1.9l0.6-0.3v3.1C1064.9,401.9,1064.6,401.6,1064.6,401.3z M1061.3,414.2
		c-0.9-0.5-1.9-0.8-3-0.8c0.3-0.9,0.3-2-0.3-3.3l-0.6-1.2l1.1,1.1c0.6,0.6,1.6,1.1,2.8,1.1h0.2C1061.2,412,1061,413.1,1061.3,414.2z
		 M1058.4,404.2c-0.3,0.3-0.6,0.9-0.8,1.4v0.5l-1.2-1.2c-0.3-0.3-0.5-0.8-0.5-1.1l0.6-1.9l1.4-0.2l0.2-0.6v0.6
		c0.3,0,0.8,0.2,0.9,0.5l1.2,1.2h-0.5C1059.3,403.6,1058.8,403.9,1058.4,404.2z M1050.4,413.9l-0.2-1.4l0.6,1.4
		c0.5,0.9,1.4,1.7,2.5,1.9c-0.6,0.8-0.9,1.9-1.1,2.8c-0.8-0.8-1.6-1.2-2.6-1.6C1050.4,416.2,1050.7,415.1,1050.4,413.9z M1053.1,413
		c-0.2-0.5-0.3-0.9-0.2-1.2l0.6-1.2c0.2-0.2,0.2-0.3,0.5-0.3l1.6,0.3c0.2,0,0.5,0.3,0.8,0.8c0.2,0.5,0.3,0.9,0.2,1.2l-1.1,1.6
		l-1.4-0.3C1053.7,413.7,1053.4,413.4,1053.1,413z M1053.7,401.1c-0.5,0-0.8-0.2-1.1-0.5c-0.3-0.3-0.5-0.6-0.5-1.1
		c0-0.5,0.2-0.9,0.5-1.1c0.3-0.3,0.6-0.5,1.1-0.5s0.8,0.2,1.1,0.5c0.6,0.6,0.6,1.6,0,2.2C1054.6,400.8,1054.3,401,1053.7,401.1z
		 M1053.8,402.8l-0.2,0.6v0.5c-0.2,0-1.1-0.2-1.1-0.2c0.2-0.3,0.2-0.6,0.3-0.9h0.6C1053.7,402.8,1053.8,402.8,1053.8,402.8z
		 M1055.7,362.8l0.6,1.4c0.2,0.3,0.2,0.8-0.2,1.2c-0.2,0.5-0.6,0.8-0.9,0.8h-1.9l-0.6-1.2c-0.2-0.3-0.2-0.8,0.2-1.2
		c0.2-0.5,0.6-0.8,0.9-0.8l1.4-0.3l0.2-0.6v0.6L1055.7,362.8z M1058.2,363.3c0.3,0,0.6,0,0.9-0.2c0.6-0.2,1.4-0.3,2-0.6
		c-0.2,1.1-0.2,2.2,0.2,3.1h-0.5c-0.9,0-1.7,0.5-2.5,1.2l-0.9,0.9l0.8-1.4C1058.7,365.3,1058.7,364,1058.2,363.3z M1057.6,370.4v0.5
		c0.2,0.6,0.3,1.1,0.8,1.4c0.3,0.3,0.9,0.6,1.4,0.6h0.5l-1.2,1.2c-0.3,0.3-0.6,0.5-1.1,0.5l-1.9-0.6l-0.2-1.4c0-0.3,0.2-0.8,0.5-1.1
		L1057.6,370.4z M1057,398.8h0.2c0.3,0,0.6-0.2,0.8-0.2c0,0,0.2,0.8,0.2,0.9l-1.1,0.2V398.8z M1056.3,396.9c-0.3,0-0.5,0-0.6-0.2
		c-0.6-0.3-0.9-1.2-0.6-2c0.3-0.5,0.8-0.8,1.4-0.8c0.3,0,0.5,0,0.6,0.2c0.8,0.3,1.1,1.2,0.6,2
		C1057.6,396.6,1057.1,396.9,1056.3,396.9z M1057.7,392.2c-0.8-0.2-1.4-0.9-1.2-1.7c0.2-0.8,0.8-1.2,1.4-1.2h0.3
		c0.3,0,0.8,0.3,0.9,0.6c0.3,0.3,0.5,0.8,0.3,1.1C1059.3,391.6,1058.8,392.1,1057.7,392.2z M1059.3,386.6c-0.3,0.3-0.6,0.5-1.2,0.6
		c-0.8,0-1.4-0.5-1.4-1.2c-0.2-0.8,0.5-1.6,1.2-1.7l0.3-0.6v0.6c0.8,0,1.4,0.5,1.4,1.2C1059.6,386,1059.5,386.3,1059.3,386.6z
		 M1057.9,377.9c-0.3-0.2-0.6-0.2-0.9-0.3v-0.9c0,0,0.9,0.2,1.1,0.2C1058.1,377.1,1057.9,377.9,1057.9,377.9z M1055.7,379.6
		c0.2-0.2,0.5-0.2,0.6-0.2c0.8,0.2,1.2,0.5,1.4,0.9c0.2,0.3,0.2,0.8,0.2,1.1c-0.2,0.3-0.3,0.6-0.8,0.8l0.3,0.5l-0.9-0.3
		c-0.6,0-1.1-0.3-1.4-0.8C1054.8,380.9,1054.9,380.1,1055.7,379.6z M1059.5,393.9c0.3-0.3,0.6-0.5,0.8-0.6c0,0,0.5,0.8,0.5,0.9
		c-0.2,0-0.9,0.5-0.9,0.5C1059.8,394.4,1059.6,394.1,1059.5,393.9z M1059.5,382.7c0.2-0.3,0.3-0.6,0.3-0.8l0.5,0.3
		c0.2,0,0.3,0.2,0.5,0.2c0,0-0.5,0.8-0.5,0.8C1060.1,383,1059.8,382.9,1059.5,382.7z M1059.6,379.3l0.3-1.4c0-0.3,0.3-0.8,0.8-0.9
		l1.6-0.8l-0.2,0.5c0.2,0.3,0.2,0.9,0.5,1.4c0.3,0.5,0.6,0.8,1.1,1.1l0.5,0.2l-2.2,1.1l-0.3,0.6l-0.5-0.6L1059.6,379.3z
		 M1061.6,371.2l-1.9-0.6l-0.2-1.4c0-0.3,0.2-0.8,0.5-1.1c0.3-0.3,0.6-0.5,0.9-0.5h0.2l1.9,0.6l0.2,1.4c0,0.3-0.2,0.8-0.5,1.1
		C1062.4,371,1062.1,371.2,1061.6,371.2z M1062.3,358.4c-0.8,1.6-2.3,2.6-4,2.6c-0.6,0-1.2-0.2-1.7-0.5c-2-1.1-2.8-3.7-1.6-5.9
		c0.6-1.1,1.6-2,2.8-2.3h0.2l-0.2-0.6l0.8,0.5c0.5,0,1.1,0.2,2.2,0.6c1.1,0.6,1.9,1.1,2.2,2C1063,356.1,1062.9,357.3,1062.3,358.4z
		 M1059.6,347.7c-0.3,1.1-1.2,2-2.6,2.5c-1.1,0.3-2,0.9-2.8,1.7c-0.2-1.1-0.6-2.2-1.4-3.3c-0.6-0.9-0.9-2.2-0.5-3.3
		c0.5-1.2,1.2-1.9,2.6-1.9c0.8,0,1.6,0.2,1.9,0.3c1.1,0.3,2,0.9,2.5,1.6C1059.8,346.1,1059.9,346.9,1059.6,347.7z M1053.4,360.8
		c-0.9,0.2-1.9,0.9-2.5,2l-0.6,1.2l0.3-1.6c0.2-1.1-0.2-2.2-0.8-3c0.9-0.3,1.7-0.9,2.5-1.6C1052.4,359.1,1052.9,360,1053.4,360.8z
		 M1050.4,372.9c0.6,0.3,0.9,1.2,0.5,2c-0.2,0.5-0.6,0.8-1.1,0.8l-0.2,0.6l-0.6-0.8c-0.8-0.3-1.1-1.2-0.6-2c0.3-0.5,0.8-0.8,1.4-0.8
		C1050.1,372.8,1050.3,372.8,1050.4,372.9z M1051,370.7l-0.6-1.4c-0.2-0.3-0.2-0.8,0.2-1.2l0.8-1.6l0.2,0.5c0.3,0.5,0.6,0.9,1.1,1.1
		c0.3,0.2,0.6,0.3,1.2,0.3c0.2,0,0.2,0,0.3,0l0.5-0.2l-0.8,1.7c-0.2,0.5-0.6,0.8-0.9,0.8H1051z M1052.4,375.9
		c0.3-0.2,0.8-0.3,1.1-0.3c0.5,0,0.8,0.2,1.1,0.5c0.6,0.6,0.6,1.6,0,2c-0.2,0.2-0.5,0.3-1.1,0.5c-0.5,0-0.8-0.2-1.1-0.5
		c-0.3-0.3-0.5-0.6-0.5-1.1C1052,376.5,1052.1,376.2,1052.4,375.9z M1053.1,405.8c0.3,0,0.8,0.3,0.9,0.8l0.8,1.7l-0.9-0.2
		c-0.5,0-0.8,0.2-1.1,0.3c-0.5,0.3-0.8,0.6-1.1,1.1l-0.3,0.5l-0.8-1.7c-0.2-0.5-0.3-0.9-0.2-1.2l0.6-1.2c0.2-0.2,0.2-0.3,0.3-0.3
		L1053.1,405.8z M1049.6,403.8c-0.6,0.2-1.1-0.3-1.4-0.8c-0.3-0.8-0.2-1.6,0.6-2c0.2-0.2,0.5-0.2,0.6-0.2c0.6,0,1.1,0.3,1.4,0.8
		c0.2,0.3,0.2,0.8,0.2,1.1C1050.9,403,1050.7,403.3,1049.6,403.8z M1048.9,405.6c0,0-0.5,0.8-0.5,0.9c-0.2-0.2-0.3-0.2-0.3-0.2
		l-0.8-0.2c0.3-0.3,0.5-0.6,0.6-0.9C1048.2,405.5,1048.6,405.6,1048.9,405.6z M1047.9,413.4c0.3,0.2,0.5,0.5,0.6,1.1
		c0,0.5,0,0.9-0.3,1.2l-0.8,0.6v-3.1L1047.9,413.4z M1047.5,410.9v-2.2c0.2,0.2,0.2,0.5,0.2,0.6l0.3,1.9L1047.5,410.9z
		 M1047.9,418.2v0.6c2,0,3.9,1.7,4.2,3.9c0.2,1.2,0,2.5-0.9,3.7c-0.5,0.6-1.1,0.9-2.5,1.1c-0.3,0-0.6,0.2-1.1,0.2l-0.2-8.7
		L1047.9,418.2z M1053.1,427.6c0.6-0.9,1.1-1.9,1.2-3c0.8,0.8,1.7,1.4,3,1.9c1.1,0.5,2,1.2,2.3,2.5c0.3,0.8,0.2,1.4-0.2,2
		c-0.6,1.2-2.2,1.7-2.6,1.9c-0.3,0.2-0.8,0.2-1.1,0.3h-0.8c-0.3,0-0.8,0-1.1-0.2c-0.8-0.3-1.4-0.8-1.6-1.7
		C1052,430.1,1052.1,428.7,1053.1,427.6z M1058.4,424.5l-0.8-0.2c-1.2-0.3-2.2-1.2-2.6-2.3c-1.1-2.2-0.5-5,1.7-5.9
		c0.5-0.3,1.1-0.5,1.7-0.5c1.7,0,3.3,1.1,4.1,2.6c0.6,1.1,0.8,2.5,0.3,3.7c-0.3,0.8-0.9,1.2-2,1.9
		C1059.8,424.2,1059.1,424.3,1058.4,424.5z M1062.6,408.7l-1.6,0.2c-0.3,0-0.8-0.2-0.9-0.5c-0.3-0.3-0.5-0.8-0.5-1.1l0.6-1.9
		l1.4-0.2l0.2-0.6v0.6c0.3,0,0.6,0.2,0.9,0.5c0.3,0.3,0.5,0.8,0.5,1.1L1062.6,408.7z M1063.8,397.4c-0.5,0.3-0.9,0.6-1.1,1.1
		c-0.3,0.5-0.3,0.9-0.3,1.6v0.6l-1.6-0.8c-0.5-0.2-0.8-0.6-0.8-0.9v-1.9l1.4-0.6c0.2,0,0.3-0.2,0.5-0.2c0.3,0,0.5,0,0.8,0.2l1.6,0.8
		L1063.8,397.4z M1061,389c-0.2-0.3-0.3-0.5-0.6-0.6c0.2-0.3,0.5-0.5,0.6-0.8c0,0,0.6,0.6,0.8,0.6C1061.6,388.3,1061,389,1061,389z
		 M1061.5,384.9l0.6-1.2c0.2-0.3,0.6-0.6,1.1-0.6l1.9-0.3l-0.2,0.5c-0.3,0.5-0.3,1.1-0.3,1.6c0,0.5,0.3,0.9,0.5,0.9v0.9l-1.6,0.2
		c-0.3,0-0.8-0.2-0.9-0.3L1061.5,384.9z M1064.3,376.8l0.3-1.4c0-0.3,0.3-0.6,0.6-0.8v3L1064.3,376.8z M1064.3,372.6l-1.2,0.6
		l1.1-1.1c0.6-0.6,1.1-1.4,1.1-2.2v2.3C1064.9,372.3,1064.6,372.5,1064.3,372.6z M1064.3,366.2c-0.8-0.8-1.2-1.9-1.1-3
		c0-1.2,0.6-2.3,1.4-3.1c0.2-0.2,0.3-0.3,0.6-0.5v7.2C1064.9,366.7,1064.6,366.5,1064.3,366.2z M1047.6,349.2
		c0.3-0.3,0.6-0.3,1.1-0.2c1.2,0.2,2,0.5,2.6,1.2c0.8,0.9,0.9,2.2,0.8,3.6c-0.3,2.2-2.2,3.9-4.2,3.9h-0.3V349.2z M1047.8,380.9
		c0.3,0.3,0.8,0.5,1.6,0.5c0,0.5,0.2,0.9,0.5,1.6c0.3,0.5,0.8,0.8,1.2,0.9c-0.2,0.5-0.2,0.9,0,1.6c0.2,0.5,0.5,0.9,0.9,1.2
		c-0.2,0.3-0.3,0.8-0.5,1.6c0,0.6,0.2,1.1,0.5,1.6c-0.3,0.3-0.6,0.6-0.9,1.2c-0.2,0.5-0.2,1.1,0,1.6c-0.5,0.2-0.8,0.5-1.2,0.9
		c-0.3,0.5-0.5,0.9-0.5,1.6c-0.5,0-0.8,0.2-1.6,0.5c-0.2,0.2-0.3,0.2-0.3,0.3l-0.3-15.7C1047.3,380.4,1047.6,380.7,1047.8,380.9z
		 M1048.4,432.1c0-0.8-0.2-1.6-0.5-2.3c0.3,0,0.8-0.2,1.1-0.2c0.3,0,0.8-0.2,1.1-0.2c0,0.8,0,1.6,0.3,2.3c0.5,1.6,1.6,2.6,3,3.1
		c0.5,0.2,1.1,0.3,1.7,0.3c0.8,0,1.6-0.2,2.5-0.5c3.4-1.1,5-3.7,4-6.5c-0.3-0.8-0.6-1.4-1.2-2c0.3-0.2,0.6-0.3,0.9-0.5
		c0.3-0.2,0.6-0.3,0.9-0.5c0.2,0.8,0.5,1.6,0.9,2.2c0.5,0.6,1.1,1.1,1.6,1.1c0.2,0,0.2,0,0.3,0v5.5c-0.2,0-0.5,0-0.8,0.2
		c-0.9,0.3-1.7,0.8-2.2,1.6c-0.5,0.8-0.6,1.6-0.3,2.3c0.2,0.3,0.3,0.6,0.5,0.9c-0.2,0-0.5,0.2-0.5,0.3c-0.2-0.3-0.3-0.6-0.5-0.9
		c-0.6-0.8-1.4-1.2-2.3-1.2c-0.8,0-1.6,0.3-2.3,0.8c-0.8,0.6-1.4,1.4-1.6,2.2c-0.2,0.8,0,1.7,0.5,2.3c0.2,0.3,0.5,0.6,0.8,0.8
		l-0.3,0.3c-0.2-0.3-0.5-0.6-0.8-0.8c-0.5-0.3-1.1-0.6-1.7-0.6l-0.9,0.2c-0.8,0.3-1.4,0.8-1.9,1.6c-0.6,0.9-0.9,1.9-0.8,2.8
		c0.2,0.8,0.5,1.4,1.2,1.9c0.3,0.2,0.6,0.3,0.9,0.5c0,0.2-0.2,0.5-0.3,0.5l-0.9-0.5c-0.3-0.2-0.6-0.2-0.9-0.2
		c-0.6,0-1.1,0.2-1.6,0.5c-0.5,0.3-0.8,0.8-1.1,1.2l-0.2-15.6C1048.1,434.1,1048.4,433.2,1048.4,432.1z M1064.8,419h0.2
		c0.2,0,0.2,0,0.3,0v7.3l-0.2-0.2c-0.6-1.1-0.9-2.5-0.5-3.7C1064.9,421.4,1065.1,420.1,1064.8,419z M1060.4,474.8
		c-0.3,0.3-0.8,0.6-1.7,0.8c-0.3,0-0.6-0.2-1.1-0.6c-0.5-0.5-0.6-0.8-0.8-1.2c0-0.6,0.3-1.2,0.8-1.6c0.5-0.5,1.1-0.8,1.7-0.8
		c0.5,0,0.9,0.2,1.4,0.6C1061.3,472.6,1061.3,474,1060.4,474.8z M1060.2,480.1c-0.3,0.3-0.5,0.5-0.9,0.5c-0.6,0-1.2-0.5-1.4-0.5
		c-0.5-0.3-0.8-0.8-0.9-1.1c-0.2-0.3,0-0.6,0.2-1.1c0.3-0.5,0.9-0.8,1.6-0.8h0.8c0.3,0,0.5-0.2,0.8-0.2c0,0.5,0,1.1,0.2,1.6
		C1060.5,479,1060.5,479.6,1060.2,480.1z M1057.6,444.4c0.5-0.5,0.8-0.6,1.1-0.8V443l0.2,0.6c0.6,0,1.2,0.3,1.6,0.8
		c0.9,0.9,0.9,2.2,0.2,3c-0.3,0.3-0.8,0.5-1.4,0.5c-0.6,0-1.2-0.3-1.7-0.8c-0.5-0.5-0.6-1.1-0.6-1.7
		C1057,445.2,1057.1,444.9,1057.6,444.4z M1057,440.4c0-0.5,0.5-0.9,0.9-1.2c0.5-0.3,0.9-0.5,1.4-0.5c0.3,0,0.6,0.2,0.9,0.5
		c0.3,0.3,0.5,0.9,0.3,1.4l-0.2,0.3c-0.2,0.5-0.2,0.9-0.2,1.4c-0.5-0.2-0.9-0.3-1.6-0.3c-0.6,0-1.1-0.3-1.4-0.8
		C1057.1,440.8,1057,440.5,1057,440.4z M1059.6,467l-0.8-0.3l0.5-1.1l0.3-0.6v0.6h0.2l0.8,0.3l-0.2,0.8L1059.6,467z M1060.4,468.6
		c-0.2,0.3-0.3,0.6-0.3,1.1c-0.3,0-0.6-0.2-0.8-0.2h-0.2c0.2-0.3,0.2-0.6,0.2-1.1l0.9,0.2H1060.4z M1059.1,449.7h0.2
		c0.3,0,0.5,0,0.8-0.2c0,0.3,0.2,0.8,0.3,1.1h-0.6c-0.2,0-0.3,0-0.5,0.2C1059.3,450.3,1059.1,450,1059.1,449.7z M1051.7,461.7
		c0.3-0.5,0.9-0.8,1.6-0.9l0.3-0.6v0.6c1.2-0.2,2,0.6,2.2,1.6c0.2,0.5,0,1.1-0.5,1.6c-0.3,0.5-0.9,0.8-1.9,0.9
		c-0.5,0-0.9-0.2-1.4-0.5c-0.3-0.2-0.5-0.5-0.5-1.2C1051.4,462.3,1051.4,462,1051.7,461.7z M1051.5,456.4c0.2-0.8,0.3-1.1,0.6-1.2
		c0.3-0.3,0.8-0.5,1.4-0.5h0.3c1.2,0.2,2,1.2,1.9,2.3c0,0.8-0.8,1.4-1.7,1.6h-0.8c-0.6-0.2-1.1-0.5-1.6-0.9
		C1051.5,457.3,1051.5,457,1051.5,456.4z M1055.7,459.7c0.3-0.2,0.5-0.5,0.8-0.6c0.3,0.2,0.6,0.5,0.9,0.6c-0.3,0.2-0.6,0.3-0.9,0.6
		C1056.3,460,1056,459.8,1055.7,459.7z M1057.1,464c0.3,0.2,0.6,0.3,1.1,0.3c-0.3,0.2-0.5,0.5-0.6,0.9l-0.9-0.5
		C1057,464.7,1057.1,464.4,1057.1,464z M1057.1,455.3c0-0.3-0.2-0.6-0.5-0.9c0.3-0.2,0.6-0.2,0.9-0.3c0.2,0.3,0.3,0.6,0.6,0.9
		C1057.9,455,1057.6,455.2,1057.1,455.3z M1057.4,451.7c-0.3,0.5-0.8,0.9-1.9,1.1c-0.3,0-0.8-0.2-1.1-0.3c-0.6-0.3-0.9-0.8-1.2-1.4
		c-0.2-0.3,0-0.6,0.3-1.2c0.3-0.6,0.6-0.9,0.9-1.1c0.2,0,0.5-0.2,0.6-0.2c0.3,0,0.8,0.2,1.1,0.3
		C1057.4,449.6,1057.9,450.8,1057.4,451.7z M1055.3,447.1c-0.5,0-0.8,0-1.9,0.3c-0.3,0-0.8-0.2-1.1-0.3c-0.3-0.2-0.5-0.5-0.5-0.8
		c0-0.5,0.2-1.1,0.5-1.6c0.3-0.5,0.8-0.8,1.4-0.9c0.2,0,0.5,0.2,0.6,0.3c0.5,0.3,0.8,0.9,0.8,1.6c0,0.5,0.2,0.9,0.3,1.4
		C1055.4,447.1,1055.4,447.1,1055.3,447.1z M1052.4,453c-0.5,0.2-0.9,0.3-1.4,0.6c-0.2,0.2-0.5,0.3-0.8,0.3l-0.3,0.6l-0.6-0.6
		c-0.3-0.2-0.6-0.3-0.6-0.5c-0.3-0.6,0-1.4,0-1.6c0.2-0.6,0.5-0.9,0.8-1.2c0.2-0.2,0.3-0.2,0.6-0.2h0.5c0.6,0.2,0.9,0.6,1.2,1.2
		C1051.8,452.2,1052.1,452.7,1052.4,453z M1050.4,458.6c0.3,0.5,0.6,0.8,1.1,0.9c-0.5,0.3-0.8,0.6-1.1,1.1c-0.3,0.3-0.8,0.6-1.4,0.8
		c-1.1,0-1.2-1.1-1.2-1.9c0-0.6,0.2-1.1,0.3-1.4c0.2-0.3,0.5-0.5,0.9-0.5C1049.3,457.8,1050,458.1,1050.4,458.6z M1048.9,463.1
		c0.3,0,0.8,0,1.1-0.2c0,0.2,0,0.5,0.2,0.5c-0.3,0-0.8,0-1.1,0.2c-0.6,0.2-1.1,0.5-1.4,0.9v-1.9
		C1047.9,463,1048.4,463.1,1048.9,463.1z M1049.5,465.3c0.2,0,0.3-0.2,0.6-0.2c0.3,0,0.8,0.2,1.2,0.5c0.3,0.3,0.8,0.5,1.2,0.6
		c-0.3,0.5-0.6,0.9-0.8,1.4c-0.2,0.6-0.6,0.9-1.6,1.2c-0.8,0-1.2-0.9-1.4-1.4c-0.2-0.6-0.2-1.1-0.2-1.4
		C1048.7,465.6,1049,465.4,1049.5,465.3z M1055.3,470.6l-0.8-0.2c-0.3-0.2-0.5-0.3-0.8-0.9c-0.3-0.6-0.5-0.9-0.3-1.4
		c0.2-0.6,0.6-1.1,1.2-1.4c0.3-0.2,0.8-0.3,1.1-0.3c0.8,0,1.6,0.5,1.9,1.1c0.5,0.9,0,2.2-1.1,2.8
		C1056.2,470.4,1055.9,470.4,1055.3,470.6z M1055.4,472.1c-0.2,0.5-0.3,0.9-0.3,1.6c0,0.6-0.3,1.1-0.8,1.4l-0.6,0.3
		c-0.6,0-1.1-0.5-1.4-0.9c-0.3-0.5-0.5-0.9-0.5-1.4c0-0.3,0.2-0.6,0.5-0.9c0.3-0.2,0.8-0.3,1.1-0.3l0.6,0.2c0.3,0.2,0.8,0.2,1.2,0.2
		H1055.4z M1061,458.6h-0.5c0.2-0.2,0.3-0.5,0.3-0.8V457l0.9,0.2l0.3,0.6L1061,458.6z M1061.6,454.9c0.2-0.3,0.3-0.5,0.5-0.8
		l0.2-0.6l0.8,0.5l0.2,0.8l-1.1,0.3L1061.6,454.9z M1063.8,447.4c-0.3-0.3-0.6-0.5-1.1-0.5c0-0.3,0.2-0.6,0.2-0.9
		c0.3,0.2,0.6,0.2,0.9,0.2C1063.7,446.4,1063.7,446.9,1063.8,447.4z M1062.9,472.3c0.3,0,0.6-0.2,0.8-0.3c0,0.3,0,0.8,0.2,1.1
		c-0.3,0-0.6,0.2-0.9,0.2c0-0.3,0-0.8-0.2-1.1L1062.9,472.3z M1063.5,467.8l0.3-0.3c0.2-0.2,0.3-0.2,0.3-0.2l0.8,0.2v1.2l-0.3,0.3
		c-0.2-0.3-0.2-0.5-0.5-0.6L1063.5,467.8z M1064.3,461.6c-0.3,0-0.5-0.2-0.6-0.5c0-0.3,0.2-0.6,0.5-0.6l0.2-0.6v0.6
		c0.3,0,0.5,0.2,0.6,0.5C1064.9,461.2,1064.8,461.6,1064.3,461.6z M1063.8,451.9l-0.3-0.3c0.3-0.2,0.6-0.3,0.8-0.5l0.3-0.6l0.6,0.6
		l-0.2,0.8H1063.8z M1064.9,444.1c-0.3,0.2-0.5,0.2-0.8,0.2c-0.8,0-1.6-0.5-2-1.2c-0.3-0.6-0.3-1.2-0.2-1.9c0.2-0.3,0.3-0.5,0.9-0.8
		c0.6-0.2,0.9-0.3,1.2-0.3h0.3c0.3,0.2,0.6,0.3,0.8,0.3L1064.9,444.1z M1047.3,454.4c0.5,0.6,0.9,0.9,1.6,1.1
		c0.3,0.2,0.6,0.2,1.1,0.2c0,0.2,0,0.5-0.2,0.5c-0.3-0.2-0.6-0.2-1.1-0.2s-0.9,0.2-1.4,0.3V454.4z M1063.5,481.8
		c0.2-0.6,0.6-0.9,1.2-1.2c0.2,0,0.2,0,0.3-0.2v3.3h-0.2c-0.6-0.2-0.9-0.5-1.2-0.8C1063.5,482.6,1063.4,482.3,1063.5,481.8z
		 M1063.8,501c-0.3,0.5-0.8,0.8-1.4,1.1l0.2,0.6l-1.1-0.5c-0.6,0-1.2-0.2-1.9-0.6c-0.6-0.5-1.4-0.8-2.3-0.9c0.6-0.6,1.1-1.4,1.4-2.3
		c0.3-0.9,0.9-1.6,1.9-1.9c0.3-0.2,0.5-0.2,0.8-0.2c1.4,0,2,1.6,2.3,2.3C1064,499.6,1064,500.3,1063.8,501z M1065.2,502.1v3.7
		c-0.6-0.3-1.2-0.5-2-0.5c-0.6,0-1.2,0.2-1.9,0.3c0-0.3,0-0.5-0.2-0.8c0-0.2-0.2-0.5-0.2-0.8c0.2,0,0.2,0,0.3,0
		c0.5,0,1.1-0.2,1.6-0.3C1064,503.5,1064.8,503,1065.2,502.1z M1058.5,503.1c0.5,0.3,0.6,0.9,0.8,2c0.2,0.9,0.2,1.7-0.3,2.3
		c-0.6,0.8-1.4,1.2-3.1,1.6c-1.7,0-3.1-1.1-3.4-2.6c-0.3-1.7,1.1-3.4,3-3.7h0.6C1057.1,502.4,1057.7,502.5,1058.5,503.1z
		 M1056,511.4h0.6c0.9,0.2,1.9,0.6,2.5,1.6c0.3,0.5,0.3,1.1,0.2,2.2c-0.2,1.1-0.5,1.7-0.9,2c-0.5,0.3-0.9,0.5-1.6,0.6l-0.6,0.6
		l-0.6-0.6c-2-0.3-3.3-2-3-3.7C1052.9,512.5,1054.3,511.4,1056,511.4z M1058.2,528.7c1.6,1.1,0.6,3,0,3.7c-0.6,0.8-1.1,1.2-2.3,1.6
		c-0.5,0-0.8-0.2-1.2-0.5c-0.8-0.6-1.2-1.4-1.2-2.6c0-0.8-0.2-1.7-0.6-2.3h0.9c0.6,0,1.1-0.2,1.9-0.3c0.3-0.2,0.6-0.2,0.9-0.2
		C1057.1,528.1,1057.7,528.2,1058.2,528.7z M1059.8,518.7c0.5-0.3,1.1-0.5,1.7-0.5c0.3,0,0.6,0,0.9,0.2c1.9,0.6,1.4,2.6,1.2,3.6
		c-0.3,0.9-0.8,1.6-1.2,1.9c-0.3,0.3-0.6,0.3-1.1,0.3c-0.2,0-0.5,0-0.8-0.2c-0.9-0.3-1.6-0.9-2-2c-0.3-0.8-0.6-1.6-1.2-2
		C1058.2,519.7,1059,519.3,1059.8,518.7z M1058.8,510.2c0.8-0.5,1.4-0.9,2-1.7c0.6-0.8,1.4-1.2,2.3-1.2c1.1,0,1.7,0.6,2,1.7v2.5
		c0,0.3-0.2,0.6-0.5,0.9c-0.3,0.5-0.6,0.6-1.6,0.8c-0.9,0-1.9-0.5-2.5-1.4C1060.2,511.1,1059.6,510.5,1058.8,510.2z M1056.5,492.2
		c-0.3,0-0.6,0-1.1-0.2c-0.6-0.2-1.1-0.3-1.7-0.3h-0.8c0.3-0.8,0.6-1.7,0.6-2.6c0-0.9,0.5-1.7,1.2-2.3c0.5-0.3,0.8-0.5,1.2-0.5
		c1.1,0,2,1.2,2.3,1.6c0.6,0.8,0.8,1.6,0.8,2.2c0,0.6-0.3,1.1-0.8,1.6C1057.7,492.1,1057.1,492.2,1056.5,492.2z M1052,494.1
		c0.5-0.3,1.1-0.5,1.7-0.5c0.3,0,0.8,0,1.2,0.2c0.5,0.2,0.9,0.6,1.4,1.6c0.5,1.1,0.6,1.6,0.5,2.2c-0.3,0.9-0.9,1.7-1.9,2.2
		c-0.3,0.2-0.8,0.3-1.7,0.5c-1.2,0-2.3-0.6-3-1.7C1049.3,497.1,1050.1,495,1052,494.1z M1050.1,501.4c0.6,0.3,1.2,0.6,2,0.8
		c-0.5,0.6-0.9,1.2-1.2,1.9c-0.5-0.5-1.1-0.6-1.9-0.6l-1.1,0.2l0.5-0.3C1049.3,502.8,1050,502.2,1050.1,501.4z M1048.4,499.7
		l-0.2,1.2c0,0.3-0.3,0.5-0.6,0.6h-0.2v-2.5L1048.4,499.7z M1047.5,497.1v-2h0.9c-0.3,0.6-0.5,1.4-0.5,2.2
		C1047.8,497.1,1047.6,497.1,1047.5,497.1z M1049.5,510.2c0.9-0.3,1.7-0.8,2.2-1.4c0.5,0.6,0.9,1.1,1.7,1.4
		c-0.6,0.3-1.2,0.8-1.7,1.4C1051.2,510.9,1050.4,510.3,1049.5,510.2z M1053.1,520c0.6,0,1.2,0.2,1.7,0.5c0.9,0.5,1.6,1.2,1.9,2.3
		c0.2,0.6,0,1.1-0.5,2c-0.5,0.9-0.8,1.4-1.6,1.7l-1.1,0.2c-0.6,0-1.2-0.2-1.7-0.5c-1.7-0.9-2.5-3-1.7-4.5
		C1050.7,520.6,1051.8,520,1053.1,520z M1049.8,540.5c-0.6,0.5-1.2,0.8-1.7,0.8l-0.3,0.6l-0.2-0.2v-6.1c0.2,0.2,0.6,0.2,0.9,0.2
		c0.9,0,1.9,0.5,2.3,1.2c0.3,0.5,0.5,0.9,0.5,1.4C1051.2,539.6,1050.1,540.4,1049.8,540.5z M1052,541.5c0.2,0.3,0.3,0.8,0.5,1.1
		c0.3,0.3,0.5,0.6,0.8,0.8c-0.2,0-0.5,0.3-0.5,0.5c-0.2-0.3-0.5-0.6-0.8-0.8c-0.3-0.3-0.8-0.5-1.2-0.6l0.2-0.2
		C1051.4,541.9,1051.7,541.8,1052,541.5z M1047.6,548.9c0.3,0.2,0.6,0.5,1.1,0.5c0,0.2-0.3,0.5-0.3,0.6c-0.3-0.2-0.5-0.3-0.9-0.5
		L1047.6,548.9z M1048.2,546.8c-0.2-0.5,0.2-1.2,0.6-1.6c0.3-0.5,0.8-0.8,1.6-1.1c0.3,0,0.5,0.2,0.8,0.3c0.5,0.3,0.8,0.9,0.8,1.7
		c0,0.5,0.2,1.1,0.3,1.6c-0.2,0-0.2,0-0.3,0c-0.5,0-0.9,0-1.2,0.2l-0.8,0.2c-0.6-0.2-0.9-0.3-1.2-0.5
		C1048.4,547.4,1048.2,547.1,1048.2,546.8z M1050.1,550.5c0.3-0.6,0.6-0.9,1.1-1.1c0.3,0,0.5-0.2,0.8-0.2c0.5,0,0.8,0.2,1.1,0.3
		c1.2,0.6,1.7,2,1.1,3c-0.3,0.6-0.9,0.9-1.9,1.1c-0.5,0-0.8-0.2-1.2-0.3c-0.6-0.3-1.1-0.8-1.2-1.6
		C1049.6,551.6,1049.6,551.1,1050.1,550.5z M1054.3,554.9c0.2,0.3,0.5,0.8,0.8,0.9c-0.3,0-0.8,0.2-1.2,0.5c-0.2-0.3-0.3-0.6-0.6-0.9
		C1053.5,555.2,1054,555,1054.3,554.9z M1054.3,547.9c-0.5-0.5-0.8-1.1-0.8-1.9c0-0.3,0.2-0.6,0.8-1.2c0.6-0.6,0.9-0.8,1.2-0.8v-0.6
		l0.2,0.6c0.6,0,1.2,0.3,1.7,0.8c0.8,0.9,0.9,2.3,0,3.3c-0.3,0.3-0.9,0.6-1.4,0.6C1055.4,548.6,1054.8,548.3,1054.3,547.9z
		 M1053.4,540.5c0.2-0.6,0.8-1.2,1.1-1.4c0.5-0.3,0.9-0.6,1.4-0.6c0.6,0.2,0.9,0.3,1.1,0.6c0.3,0.5,0.5,1.1,0.2,1.9
		c-0.2,0.5-0.2,1.1-0.2,1.6c-0.5-0.2-1.1-0.3-1.7-0.3c-0.6,0-1.2-0.3-1.6-0.8C1053.5,541.2,1053.4,540.8,1053.4,540.5z
		 M1060.5,536.3c0.3-0.5,0.9-0.8,1.4-0.9c0.3-0.2,0.6-0.2,0.9-0.2l0.6,0.2c0.3,0.2,0.6,0.3,0.8,0.8c0.2,0.6,0.2,1.2-0.3,1.9
		c-0.3,0.5-0.5,0.9-0.6,1.4c-0.5-0.5-0.9-0.8-1.6-0.9c-0.6-0.2-1.1-0.6-1.2-1.2C1060.4,536.9,1060.4,536.6,1060.5,536.3z
		 M1064.8,543.6c0.2,0,0.2,0,0.3,0h0.2c0,0,0,1.7,0,1.9c-0.2-0.3-0.5-0.5-0.9-0.6C1064.4,544.6,1064.8,544.1,1064.8,543.6z
		 M1064.9,540.8c0-0.6,0-1.1,0.3-1.6v2.3C1065.1,541.5,1065.1,541.2,1064.9,540.8z M1063,516.4c-0.5-0.2-0.9-0.3-1.6-0.3
		c-0.2,0-0.2,0-0.3,0c0-0.3,0.2-0.5,0.2-0.8c0-0.2,0-0.5,0.2-0.8c0.6,0.2,1.2,0.3,1.9,0.3c0.8,0,1.4-0.2,2-0.5v3.7
		C1064.8,517.3,1064,516.7,1063,516.4z M1064.1,479.2c-0.3,0-0.6-0.2-1.1-0.3c-0.6-0.3-0.9-0.6-1.1-0.9c-0.2-0.6-0.2-1.2,0.2-1.7
		c0.5-0.8,1.2-1.2,2-1.2c0.3,0,0.6,0,1.1,0.2l0.2,3.4C1065.1,478.7,1064.8,479,1064.1,479.2z M1064.9,438.5
		c-0.6-0.2-0.9-0.6-1.1-1.1c-0.5-1.1,0.5-1.7,1.2-1.9c0,0,0.2,0,0.3,0v3.1C1065.2,438.7,1065.1,438.5,1064.9,438.5z M1064.8,416.2
		c-1.9-1.6-2-4.4-0.3-6.1c0.3-0.2,0.5-0.5,0.9-0.6v7.2C1065.2,416.5,1064.9,416.4,1064.8,416.2z M1065.2,393.6l-1.9-0.2
		c-0.5,0-0.9-0.3-1.1-0.6l-0.6-1.9l1.1-1.1c0.2-0.2,0.5-0.3,0.9-0.3l1.6,0.3l0.2,0.6c-0.3,0.5-0.6,0.8-0.6,1.2
		C1064.6,392.4,1064.8,392.9,1065.2,393.6z M1064.9,357.5c0.2-1.1,0.2-2.3-0.3-3.6c-0.3-1.1-0.2-2.3,0.6-3.3c0-0.2,0.2-0.2,0.2-0.2
		l0.3,6.9C1065.4,357.2,1065.1,357.3,1064.9,357.5z M1061.8,332.1c0.5,0.3,0.9,0.6,1.4,0.8c0.5,0.2,0.9,0.6,1.1,1.1
		c0.3,1.1-0.6,1.6-1.9,1.9l0.2,0.6l-0.9-0.6c-0.3-0.2-0.6-0.3-0.8-0.8c-0.2-0.6-0.2-1.2,0.3-1.7
		C1061.5,332.9,1061.6,332.6,1061.8,332.1z M1059.9,326.3c0.2,0.3,0.5,0.5,0.9,0.6c-0.2,0.3-0.3,0.6-0.5,0.9
		c-0.3-0.2-0.5-0.3-0.8-0.5C1059.8,327.1,1059.9,326.8,1059.9,326.3z M1060.2,330.7c0.2,0.6,0,1.2-0.5,1.9c-0.2,0.3-0.5,0.3-1.9,0.6
		l-0.8-0.2c-0.5-0.3-0.8-0.9-0.9-1.6c-0.2-0.6,0-1.2,0.3-1.7c0.3-0.5,0.8-0.8,1.2-0.8l0.3-0.6v0.6
		C1059.1,328.8,1060.1,329.6,1060.2,330.7z M1056.7,324v-0.9l0.6-0.6l0.6,0.9l0.2,0.5l-0.6-0.2h-0.2L1056.7,324z M1058.2,326.5
		l-0.5,0.6l-0.8-0.3l-0.2-0.8l0.6-0.6l0.8,0.3V326.5z M1058.1,315.6c-0.2,0.2-0.5,0.3-0.5,0.6c0,0-0.5,0-0.8,0
		c-0.3,0.2-0.5,0.2-0.6,0.5c-0.2,0-0.3-0.2-0.5-0.2h-0.3c-0.3,0-0.5,0-0.8,0.2c-0.2-0.2-0.3-0.2-0.5-0.3l-0.8-0.2h-0.3
		c-0.2-0.2-0.3-0.5-0.5-0.6H1058.1z M1052.8,322.9l0.6-0.3l0.8,0.9l-0.2,0.5l-0.5-0.3h-0.5l-0.5,0.2L1052.8,322.9z M1052.4,328.8
		c0.5,0.2,0.9,0.3,1.2,0.8c0.3,0.5,0.5,1.1,0.3,1.7c-0.2,0.6-0.5,1.2-1.4,1.7l-0.3,0.6l-0.6-0.6c-0.8-0.2-1.1-0.3-1.2-0.6
		c-0.3-0.5-0.5-1.1-0.5-1.7c0.2-1.1,1.1-1.9,2-1.9H1052.4z M1051.2,318.9h0.3c0.3,0.2,0.3,0.5,0.3,0.8l-0.8,0.3
		c-0.3-0.2-0.3-0.5-0.3-0.8C1050.9,319,1051,318.9,1051.2,318.9z M1050.9,327.4c-0.3,0.2-0.6,0.3-0.9,0.5c-0.2-0.3-0.2-0.6-0.3-0.9
		c0.3-0.2,0.6-0.3,0.9-0.6C1050.6,326.7,1050.7,327,1050.9,327.4z M1049.3,321.5l0.8-0.2l0.5,1.2l-0.3,0.5l-0.5-0.5l-0.2-0.2
		l-0.6-0.2h-0.2L1049.3,321.5z M1047.5,327.3c0.9,0.5,1.2,1.7,0.6,2.8c-0.2,0.3-0.3,0.6-0.6,0.8V327.3z M1048.6,332.1
		c0.2,0.5,0.3,0.9,0.6,1.4c0.3,0.5,0.5,1.1,0.3,1.6c-0.2,0.5-0.5,0.8-1.2,0.8h-0.5c-0.2,0-0.3,0-0.5,0.3l-0.2-3.4
		C1047.8,332.7,1048.2,332.4,1048.6,332.1z M1047.2,360l1.1,1.1c0.3,0.3,0.3,0.8,0.3,1.2c0,0.5-0.3,0.9-0.6,1.1l-0.5,0.2L1047.2,360
		l-0.2-0.8L1047.2,360z M1047.8,478.8c1.1,0,2,0.6,2,0.8c0.8,0.6,1.2,1.1,1.4,1.7c0.2,0.6,0.2,1.2-0.3,1.7c-0.6,0.8-1.4,1.2-2.6,1.2
		c-0.3,0-0.6,0-0.9,0.2l-0.3-5.5C1047.3,479,1047.5,478.8,1047.8,478.8z M1048.4,486.3v-0.6l0.2,0.6c0.6,0,1.1,0.3,1.9,1.1
		c0.8,0.8,1.1,1.2,1.1,2c0,0.9-0.5,1.9-1.1,2.6c-0.6,0.6-1.2,0.9-2.6,1.1h-0.3l-0.3-6.5C1047.6,486.5,1048.1,486.3,1048.4,486.3z
		 M1047.3,516.7l1.7,0.2c0.8,0,1.4-0.3,1.9-0.6c0.3,0.6,0.6,1.2,1.1,1.9c-0.8,0.2-1.4,0.5-2,0.8c-0.2-0.8-0.8-1.6-1.7-1.9l-0.9-0.2
		V516.7z M1047.5,551.6c0.3,0.2,0.5,0.5,0.6,0.9c0.2,0.5,0.5,0.9,0.8,1.4c-0.5,0.2-0.9,0.3-1.4,0.6V551.6z M1048.8,562.1
		c0.2-0.1,0.5-0.2,0.7-0.2l0.5-0.6v0.6c0.3,0,0.7,0.1,0.9,0.2H1048.8z M1050.6,559.5h-0.8c-0.6-0.2-1.2-0.5-1.7-1.1
		c-0.3,0-0.3-0.5-0.2-1.2c0.2-0.8,0.3-1.1,0.6-1.4c0.5-0.3,0.9-0.5,1.4-0.5h0.5c0.6,0.2,1.2,0.5,1.6,0.9c0.3,0.5,0.5,1.1,0.5,1.6
		C1052.3,558.8,1051.5,559.4,1050.6,559.5z M1053.2,561.6c-0.3-0.3-0.5-0.5-0.9-0.8c0.3-0.2,0.6-0.5,0.8-0.8
		c0.3,0.3,0.6,0.6,1.1,0.8C1053.8,560.9,1053.5,561.1,1053.2,561.6z M1055.3,559.2l-0.6-0.3l-0.5-0.8l0.6-0.5c0,0,0.2-0.2,0.3-0.2
		l0.6,0.3l0.3,0.8L1055.3,559.2z M1056,551.3c0-0.3-0.2-0.8-0.3-1.1h0.2c0.3,0,0.6,0,0.9-0.2c0,0.5,0.2,0.8,0.5,1.2
		c-0.2,0-0.5-0.2-0.6-0.2C1056.5,551.3,1056.3,551.3,1056,551.3z M1057.3,562.1C1057.3,562.1,1057.3,562,1057.3,562.1l0.6-0.2
		l0.2-0.6v0.6l0.3,0.2l0.1,0.1H1057.3z M1057.7,559.5l-0.6-0.2c0.2-0.2,0.3-0.5,0.3-0.8c0.3,0,0.3-0.3,0.2-0.6l0.9,0.2l0.3,0.8
		L1057.7,559.5z M1058.8,556l-0.5-0.3c0.3-0.2,0.5-0.5,0.6-0.6c0.2-0.3,0.2-0.5,0.2-0.8l0.8,0.5l0.2,0.9L1058.8,556z M1060.1,550.5
		l-0.9,0.2l-0.6-0.6l0.2-0.9l0.8-0.2l0.6,0.6V550.5z M1060.9,547.9c-0.3-0.3-0.8-0.5-1.2-0.5c0.2-0.3,0.2-0.8,0.2-1.1
		c0.3,0.2,0.8,0.2,1.1,0.3C1060.7,547.1,1060.7,547.4,1060.9,547.9z M1061.9,562.1h-1l0.3-0.5l0.2-0.6v0.6
		C1061.6,561.6,1061.9,561.7,1061.9,562.1L1061.9,562.1z M1062.1,552.7l-1.2-0.2l-0.5-0.5l0.6-0.3l0.2-0.2c0.2-0.2,0.3-0.5,0.5-0.6
		l0.6,0.8L1062.1,552.7z M1062.1,544.6c-0.3,0.2-0.6,0.2-0.9,0.2c-0.9,0-1.7-0.5-2.2-1.4c-0.3-0.6-0.3-1.2-0.2-2
		c0.2-0.3,0.5-0.6,1.1-0.9c0.5-0.3,0.8-0.3,1.1-0.3h0.3c0.6,0.2,1.1,0.6,1.4,1.2C1063.5,542.7,1063,544.1,1062.1,544.6z
		 M1064.4,554.9h-0.9c-0.3-0.3-0.3-0.6,0-0.9c0.2-0.2,0.3-0.2,0.5-0.2l0.5,0.2V554.9z M1063.7,550.2l-0.3-0.5h0.2l0.9-0.3
		c0.3-0.2,0.5-0.3,0.6-0.5l0.3,0.9l-0.5,0.8L1063.7,550.2z M1075.3,562.1h-10c-0.1-0.1-0.1-0.2-0.2-0.4c0.2-0.2,0.2-0.5,0.2-0.8
		c0-0.3,0-0.6-0.2-0.8c0.2-0.2,0.3-0.5,0.5-0.8c0.2-0.3,0.2-0.6,0-0.9c0.2-0.2,0.5-0.3,0.6-0.6c0.2-0.3,0.3-0.5,0.3-0.8
		c0.2,0,0.5-0.2,0.8-0.3c0.3-0.2,0.5-0.5,0.6-0.6c0,0,0.6,0,0.8,0c0.3-0.2,0.5-0.3,0.8-0.5c0.2,0.2,0.5,0.2,0.8,0.2
		c0.3,0,0.6,0,0.8-0.2c0.2,0.2,0.3,0.3,0.5,0.3l0.8,0.2h0.3c0.2,0.2,0.3,0.5,0.6,0.6c0.2,0.2,0.5,0.3,0.8,0.3c0,0.3,0.2,0.5,0.3,0.8
		s0.5,0.5,0.6,0.6v0.8c0.2,0.3,0.3,0.5,0.5,0.8c-0.2,0.2-0.2,0.5-0.2,0.8c0.2,0.3,0.3,0.6,0.3,0.9
		C1075.4,561.8,1075.3,561.9,1075.3,562.1z M1076.4,550.5l-0.9,0.2l-0.3-1.2l0.3-0.5c0.2,0.3,0.5,0.5,0.6,0.6
		c0.2,0.2,0.5,0.2,0.8,0.2L1076.4,550.5z M1077.8,547.7l-0.9,0.2l-0.3-0.8l0.5-0.8h0.2l0.6-0.2l0.3,0.8L1077.8,547.7z M1078.3,551.4
		l0.5-0.5c0,0.3,0.2,0.6,0.5,0.8c0.2,0.2,0.5,0.3,0.6,0.5l-0.6,0.6l-0.9-0.2V551.4z M1079.4,560c-0.3,0-0.6-0.2-0.6-0.5l0.5-0.8
		l0.2-0.6v0.6c0.3,0,0.6,0.2,0.6,0.5C1080,559.5,1079.7,560,1079.4,560z M1080.6,555.6l0.5-1.2l0.5-0.3c0,0.3,0,0.6,0.2,0.9
		c0.2,0.2,0.3,0.5,0.5,0.6l-0.9,0.3L1080.6,555.6z M1083.2,562.1h-1l0.2-0.2c0,0,0.2-0.2,0.3-0.2l0.6,0.2
		C1083.2,561.9,1083.2,562,1083.2,562.1z M1082.4,559.5l-0.6-0.6l0.8-0.9l0.6-0.2c-0.2,0.3-0.2,0.6-0.2,0.9c0,0.3,0.2,0.5,0.3,0.8
		H1082.4z M1082.8,546.1l4.5-0.2c0,0.6-0.3,1.2-0.8,1.7c-0.5,0.5-1.1,0.8-1.9,0.8c-0.6,0-1.1-0.2-1.4-0.6
		C1082.8,547.4,1082.7,546.8,1082.8,546.1z M1083.4,551.4c0.3-0.3,0.5-0.8,0.5-1.2c0.3,0,0.6,0.2,0.9,0.2h0.2
		c-0.2,0.3-0.2,0.8-0.3,1.1l-0.5-0.2C1083.9,551.3,1083.6,551.3,1083.4,551.4z M1085.2,559.2l-0.6-0.6l0.9-1.1l0.5,0.2l0.6,0.6
		l-0.5,0.8L1085.2,559.2z M1087.7,561.6c-0.5-0.3-0.8-0.6-1.2-0.8c0.3-0.2,0.6-0.3,1.1-0.8c0.3,0.3,0.5,0.6,0.9,0.8
		C1088.1,560.9,1087.8,561.2,1087.7,561.6z M1090.6,559.7c-1.1,0-2.2-0.8-2.3-1.7c-0.2-1.2,0.8-2.3,2-2.5l0.5-0.6v0.6
		c0.5,0,1.1,0.2,1.6,0.5c0.3,0.2,0.5,0.6,0.5,1.2c0.2,0.8,0.2,1.2-0.2,1.6C1092.3,559.2,1091.7,559.7,1090.6,559.7z M1091.9,553.8
		c0.3-0.5,0.6-0.9,0.8-1.6c0.2-0.6,0.6-1.1,1.7-1.2c0.9,0,1.4,1.1,1.4,1.6c0.2,0.6,0.2,1.1,0.2,1.6c-0.2,0.3-0.3,0.6-1.4,0.9
		c-0.5,0-0.8-0.2-1.2-0.5C1092.8,554.2,1092.3,553.9,1091.9,553.8z M1096.8,562.1h-2.7c-0.1-0.1-0.2-0.1-0.2-0.2
		c-0.3-0.5-0.6-0.8-1.1-1.1c0.5-0.3,0.9-0.6,1.2-1.2c0.3-0.5,0.9-0.8,1.6-0.8c1.2,0,1.4,1.2,1.4,2
		C1097.1,561.3,1097,561.7,1096.8,562.1z M1136.4,562.1h-25.7v-6h25.7V562.1z M1138,551.3c-0.6,0.9-0.8,1.7-0.5,2.6h-27.9
		c-0.6,0-1.1,0.5-1.1,1.1v7.1h-9.9c0.1-0.4,0.2-0.9,0.2-1.3v-0.9c-0.3-1.7-1.4-2.8-3.1-2.8c-0.5,0-0.8,0-1.1,0.2
		c0-0.2-0.2-0.6-0.2-0.6c0.3,0,0.8,0,1.1-0.2c0.9-0.3,1.6-0.9,1.9-1.9c0.3-0.8,0.2-1.7-0.2-2.6c-0.6-1.7-1.7-2.6-3.1-2.6
		c-0.3,0-0.6,0-0.9,0.2c-0.3,0.2-0.8,0.3-1.1,0.5c0-0.2-0.3-0.5-0.3-0.6c0.3-0.2,0.8-0.3,1.1-0.5c0.8-0.6,1.2-1.4,1.2-2.3v-0.2h38
		c-0.2,0.3-0.3,0.8-0.3,1.1c0,0.8,0.3,1.6,0.9,2.3c0.8,1.1,1.9,1.7,3,1.7c0.6,0,1.2-0.2,1.7-0.6c0.3-0.2,0.6-0.5,0.8-0.8
		c0,0,0.3,0.3,0.5,0.5C1138.4,550.7,1138.1,551,1138,551.3z M1181.1,560.6c-1,0.4-1.6,0.9-2,1.5h-40.6v-6.4c0.2,0.2,0.3,0.2,0.5,0.3
		c0.8,0.6,1.6,0.9,2.5,0.9c0.9,0,1.7-0.5,2.3-1.2c0.2-0.3,0.5-0.6,0.5-0.9c0.2,0,0.5,0.3,0.6,0.3c-0.2,0.3-0.5,0.6-0.5,1.1
		c-0.3,0.9-0.2,1.9,0.5,2.6c0.5,0.6,1.2,1.1,2.2,1.4c0.5,0.2,1.1,0.3,1.6,0.3c1.4,0,2.5-0.8,3-2c0.2-0.3,0.2-0.8,0.2-1.1
		c0.2,0,0.5,0.2,0.6,0.2c-0.2,0.3-0.2,0.8-0.2,1.1c0,0.9,0.5,1.9,1.2,2.3c0.6,0.5,1.6,0.6,2.5,0.6c2.2,0,3.6-1.2,3.6-3.1
		c0-0.3,0-0.8-0.2-1.1c0.2,0,0.5,0,0.6-0.2c0,0.3,0,0.8,0.2,1.1c0.3,0.9,0.9,1.6,1.9,1.9c0.3,0.2,0.6,0.2,1.1,0.2s0.9-0.2,1.6-0.3
		c1.1-0.3,1.7-0.9,2.2-1.6c0.5-0.8,0.6-1.6,0.3-2.5c-0.2-0.3-0.3-0.8-0.5-1.1c0.2,0,0.5-0.2,0.6-0.3c0.2,0.3,0.3,0.8,0.5,1.1
		c0.6,0.8,1.4,1.2,2.3,1.2c0.8,0,1.6-0.3,2.3-0.9c0.9-0.6,1.4-1.4,1.6-2.2c0.2-0.8,0-1.7-0.5-2.5c-0.2-0.3-0.5-0.6-0.8-0.8
		c0.2-0.2,0.3-0.3,0.5-0.5c0.2,0.3,0.5,0.6,0.8,0.8c0.5,0.5,1.1,0.6,1.7,0.6c0.3,0,0.6,0,0.9-0.2c0.8-0.3,1.4-0.8,2-1.6
		c0.2-0.2,0.2-0.3,0.3-0.5c-0.2,0.8,0,1.6,0.3,2.2c0.3,0.6,0.9,1.1,1.7,1.4c0.3,0.2,0.6,0.2,1.1,0.2c0,0.2,0,0.5-0.2,0.5
		c-0.3-0.2-0.6-0.2-1.1-0.2c-0.9,0-1.7,0.5-2.3,1.1c-0.5,0.6-0.6,1.4-0.6,2.3c0,1.1,0.3,1.9,0.8,2.5c0.5,0.6,1.2,0.9,2.2,0.9
		c0.3,0,0.8,0,1.1-0.2c0,0.2,0,0.5,0.2,0.5C1181.9,560.5,1181.4,560.5,1181.1,560.6z M1182.1,558c-0.3,0.3-0.8,0.6-1.4,0.8
		c-1.1,0-1.2-1.1-1.2-1.9c0-0.6,0.2-1.1,0.3-1.4c0.2-0.3,0.5-0.5,0.9-0.5c0.6,0,1.1,0.3,1.6,0.9c0.2,0.3,0.5,0.6,0.9,0.9
		C1182.7,557.2,1182.4,557.5,1182.1,558z M1185.2,561.9c-0.5,0-0.9-0.2-1.4-0.5c-0.3-0.2-0.3-0.5-0.5-1.2c-0.2-0.8-0.2-1.1,0.2-1.4
		c0.3-0.5,0.9-0.8,1.6-0.9l0.3-0.6v0.6c1.1,0,2,0.8,2.2,1.7C1187.7,560.6,1186.9,561.7,1185.2,561.9z M1187.5,554.2
		c-0.2,0.8-0.8,1.4-1.7,1.6h-0.8c-0.6-0.2-1.2-0.5-1.6-0.9c-0.2-0.3-0.2-0.6-0.2-1.2c0.2-0.8,0.3-1.1,0.6-1.2
		c0.3-0.3,0.8-0.5,1.4-0.5h0.3C1186.9,552.1,1187.7,553.1,1187.5,554.2z M1188.4,556.3c0.2,0.3,0.5,0.5,0.9,0.6
		c-0.3,0.2-0.6,0.3-0.9,0.6c-0.3-0.2-0.6-0.5-0.8-0.6C1188,556.7,1188.1,556.4,1188.4,556.3z M1189.6,562.1h-1c0,0-0.1,0-0.1-0.1
		c0.2-0.3,0.3-0.5,0.5-0.8c0.3,0.2,0.6,0.3,1.1,0.3C1189.8,561.7,1189.7,561.9,1189.6,562.1z M1188.9,552.4
		c-0.2-0.3-0.3-0.6-0.5-0.9c0.3-0.2,0.6-0.2,0.9-0.3c0.2,0.5,0.3,0.8,0.6,0.9C1189.7,552.1,1189.4,552.2,1188.9,552.4z
		 M1191.6,547.7c-0.2,0-0.3,0-0.5,0.2c0-0.3-0.2-0.6-0.2-0.9h0.2c0.3,0,0.5,0,0.8-0.2c0,0.5,0.2,0.8,0.3,1.1
		C1192,547.9,1191.7,547.7,1191.6,547.7z M1192.8,555.8l-0.5-0.2c0.2-0.2,0.3-0.5,0.3-0.8v-0.8l0.9,0.2l0.3,0.6L1192.8,555.8z
		 M1193.7,552.2l-0.5-0.2c0.2-0.2,0.5-0.3,0.5-0.6l0.2-0.8l0.8,0.5l0.2,0.8L1193.7,552.2z M1195.6,544.6c-0.3-0.3-0.8-0.5-1.1-0.5
		c0-0.3,0.2-0.6,0.2-0.9c0.3,0.2,0.6,0.2,0.9,0.2C1195.4,543.6,1195.4,544.1,1195.6,544.6z M1195.3,548.8c0.3-0.2,0.5-0.2,0.8-0.5
		l0.3-0.6l0.6,0.6l-0.2,0.8h-1.2L1195.3,548.8z M1197.3,553.1l-0.8,0.3l-0.3-0.8c0.2-0.2,0.3-0.3,0.5-0.3h0.3
		C1197.3,552.5,1197.5,553,1197.3,553.1z M1196.7,541.5c-0.3,0.2-0.5,0.2-0.8,0.2c-0.8,0-1.6-0.5-2-1.2c-0.3-0.6-0.3-1.2-0.2-1.7
		v-0.2c0.2-0.3,0.3-0.5,0.9-0.8c0.3-0.2,0.6-0.3,1.1-0.3c0.2,0,0.2,0,0.3,0c0.6,0.2,1.1,0.6,1.4,1.2
		C1198.1,539.8,1197.6,541,1196.7,541.5z M1196.5,535.7c-0.6-0.2-0.9-0.6-1.1-1.1c-0.2-0.3-0.2-0.6,0-0.9c0.2-0.5,0.8-0.8,1.2-0.9
		c0.3-0.2,0.6-0.2,0.9-0.2h0.5c0.3,0.2,0.6,0.3,0.8,0.8c0.2,0.6,0.2,1.1-0.3,1.7c-0.3,0.5-0.5,0.8-0.6,1.2
		C1197.5,536.2,1197,535.9,1196.5,535.7z M1199.8,547.2l-1.2-0.5l-0.2-0.5l0.8-0.2l0.6-0.5V547.2z M1199.8,517.9
		c-0.5,0-0.8,0-1.2-0.2c-1.2-0.2-2-0.5-2.6-1.2c-0.8-0.9-0.9-2.2-0.8-3.6c0.2-2.2,1.9-3.9,4.1-3.9l0.6,0.2V517.9z M1199.8,506.7
		l-0.9-0.9c-0.3-0.3-0.3-0.8-0.3-1.2c0-0.3,0.3-0.8,0.6-0.9l0.6-0.3V506.7z M1199,501.3l0.3-1.9c0-0.3,0.2-0.6,0.3-0.8l-0.2,2.3
		L1199,501.3z M1199,496.6c-0.2,0-0.3,0.2-0.5,0.3c0-0.2-0.2-0.3-0.2-0.5l-0.3-0.6c0.3,0,0.6-0.2,0.9-0.3c0.2,0.3,0.5,0.5,0.9,0.5
		L1199,496.6z M1199,461.4c-0.3-0.2-0.6-0.3-0.8-0.3l0.3-0.5c0-0.2,0.2-0.3,0.2-0.5c0.2,0.2,0.3,0.2,0.3,0.2h0.9
		C1199.5,460.6,1199.2,461.1,1199,461.4z M1199.2,453.5c-0.3-0.2-0.5-0.5-0.6-1.1c0-0.5,0-0.9,0.3-1.2l0.9-0.8v3.3L1199.2,453.5z
		 M1199.7,455.9v2.3c-0.2-0.2-0.3-0.5-0.5-0.8l-0.3-1.9l0.5,0.3H1199.7z M1199.2,447.8c-2,0-3.9-1.7-4.2-3.9c-0.2-1.2,0-2.5,0.9-3.7
		c0.5-0.6,1.4-0.9,2.5-1.1c0.5,0,0.8-0.2,1.1-0.2c0.2,0,0.2,0,0.3,0l0.3,8.6L1199.2,447.8z M1258.4,462.8c2.5,14.8,5,29.1,7.8,42.8
		l-8.6-3C1258.2,487.7,1258.4,473.1,1258.4,462.8z M1251,562.1c3.1-7.7,5.3-26.9,6.5-57.4l9,2.8c6.1,29.9,11.3,48.4,13,54.6H1251z
		 M1281.6,562.1c-1.5-5.1-6.7-23.5-13-53.9h49.4c6.4,21.4,13.9,39.5,22.7,53.9H1281.6z M1414,420.7v11.8c0,0.6,0.5,1.1,1.1,1.1
		l1.1-0.5v-12.5h27.1l-60.6,60.9v-60.9H1414z M1380.3,562.1h-8.6V510l-0.5-1.1h-0.6l-1.1,0.5v52.7h-5.9v-187h6.9
		c0.6,0,1.1-0.5,1.1-1.1l-0.5-1.1h-7.5V295c2.6,2.2,9,7.5,16.7,15.3V562.1z M1382.5,368.1h39.1l-39.1,48.8V368.1z M1382.7,562.1
		v-76.8h52v13.7c0,0.6,0.5,1.1,1.1,1.1l1.1-0.5v-14.3h16l-36.8,40.3v-26.5c0-0.6-0.5-1.1-1.1-1.1l-1.1,0.5l0.2,29.1l-20.1,22v0.3
		l-0.3,0.2L1382.7,562.1L1382.7,562.1z M1662.9,376.8c4.1,5.5,4.8,14.8,5,17.9h-10C1658.1,391.6,1658.9,382.3,1662.9,376.8z
		 M1657.9,396.8h10.1v9h-10.1V396.8z M1657.9,408h10.1v44.9h-10.1V408z M1653.4,454.9h19v38.9h-19V454.9z M1623,487.4
		c-0.5-4.4-1.6-14.3,9.7-18.2h0.5c11.2,3.9,10.1,14,9.7,18.5c0,0.6-0.2,0.9-0.2,1.4c0,1.7,0.9,3.6,1.7,4.8h-23.1
		c0.8-1.2,1.7-3.1,1.7-4.8C1623.2,488.7,1623.2,488.2,1623,487.4z M1587.5,485.9c0.2-0.8,1.1-8.1,5.8-8.4c4.8,0.2,5.8,7.9,5.9,8.3
		v8.3h-11.7V485.9z M1500.1,551.6h-16.8c-0.6,0-1.1,0.5-1.1,1.1l0.5,1.1h17.4v8.3h-26.6v-52.9h26.6V551.6z M1575.8,562.1h-5.1v-11.9
		l-0.5-1.1h-0.6l-1.1,0.5v12.5h-4.4v-11.9c0-0.6-0.5-1.1-1.1-1.1l-1.1,0.5v12.5h-5.5v-33.2c0.3-0.8,3.7-7.2,9.8-8.4
		c5.8,1.2,9.2,7.6,9.5,8.3V562.1z M1602.6,562.1h-5.1v-11.9l-0.5-1.1h-0.6l-1.1,0.5v12.5h-4.4v-11.9c0-0.6-0.5-1.1-1.1-1.1l-1.1,0.5
		v12.5h-5.5v-33.2c0.3-0.8,3.7-7.2,9.8-8.4c5.8,1.2,9.2,7.6,9.5,8.3V562.1z M1629,562.1h-5.3v-11.9l-0.5-1.1h-0.6l-1.1,0.5v12.5
		h-4.4v-11.9c0-0.6-0.5-1.1-1.1-1.1l-1.1,0.5v12.5h-5.3v-33.2c0.3-0.8,3.7-7.2,9.8-8.4c5.8,1.2,9.2,7.6,9.5,8.3V562.1z M1629,524.8
		c-1.9-2.5-4.8-5.4-9-6.3h-0.9c-7.2,1.6-10.7,9.3-11.1,10.1v33.5h-3l-0.2-34c-0.2-0.3-3.7-8.1-11.1-9.7h-1.1
		c-7.2,1.6-10.7,9.3-11.1,10.1v33.5h-3.7l-0.2-34c-0.2-0.3-3.7-8.1-11.2-9.7h-0.9c-4.2,0.9-7.2,3.9-9,6.4v-15.9h72.4V524.8z
		 M1683.8,562.1h-52.5v-41.5h14.2v5.9c0,0.6,0.5,1.1,1.1,1.1l1.1-0.5v-7.6l-0.5-1.1h-15.9V508l-0.5-1.1h-75.1l-1.1,0.5v11.1H1540
		l-1.1,0.5v16.2c0,0.6,0.5,1.1,1.1,1.1l1.1-0.5v-15.1h13.7v41.5h-52.5v-8.3h22.4c0.6,0,1.1-0.5,1.1-1.1l-0.5-1.1h-6.7v-19.2
		c0-0.6-0.5-1.1-1.1-1.1l-1.1,0.5v19.8h-14.2v-31h14.2v5.9c0,0.6,0.5,1.1,1.1,1.1l1.1-0.5v-7.6l-0.5-1.1h-15.9V496h181.5v22.4H1669
		l-1.1,0.5v16.2c0,0.6,0.5,1.1,1.1,1.1l1.1-0.5v-15.1h13.7v31h-9.2c-0.6,0-1.1,0.5-1.1,1.1l0.5,1.1h9.8V562.1z M1712.5,562.1h-26.6
		v-8.5h16.8c0.6,0,1.1-0.5,1.1-1.1l-0.5-1.1h-17.4v-42.5h26.6V562.1z M1812.5,562.1H1802v-79.7l-0.5-1.1h-0.6l-1.1,0.5V562h-16.7
		V352.4c0-0.6-0.5-1.1-1.1-1.1l-1.1,0.5v210.3h-15.7v-156c0-0.6-0.5-1.1-1.1-1.1l-1.1,0.5v156.6h-17.1V536c0-0.6-0.5-1.1-1.1-1.1
		l-1.1,0.5V562h-9.3v-64h10.9l1.1-0.5l-0.2-146.3l8.1-8.1l0.3-0.5l-0.2-114.3l9-9l0.3-0.5l-0.2-133.7l8.9-8.4l0.3-0.5V1.9h5.3v150
		l0.2,0.6l13.4,8.9v127.4l0.2,0.6l9.5,9.2v118.1l0.5,1.1h10.6V562.1z M1869.5,562.1h-7.6v-79.7l-0.5-1.1h-0.6l-1.1,0.5v80.3h-7.6
		V294.6h17.4V562.1z M1887.9,562.1h-16.4V294.6h16.4V562.1z M1907.2,562.1h-7.9v-137l-0.5-1.1h-0.6l-1.1,0.5v137.6h-7.3V294.6h17.4
		V562.1z M1907.3,282.1v10.4h-55.5v-10.6c0-0.5-3.6-40.5,27.7-72.4C1910.6,241.1,1907.5,280.4,1907.3,282.1z"/>
</g>
</svg>
