<?xml version="1.0" encoding="utf-8"?>
<!-- Generator: Adobe Illustrator 26.5.0, SVG Export Plug-In . SVG Version: 6.00 Build 0)  -->
<svg version="1.0" id="Layer_1" xmlns="http://www.w3.org/2000/svg" xmlns:xlink="http://www.w3.org/1999/xlink" x="0px" y="0px"
	 viewBox="0 0 590 87.7" style="enable-background:new 0 0 590 87.7;" xml:space="preserve">
<style type="text/css">
	.st0{fill:#FFF200;}
	.st1{fill:#FFFF00;}
	.st2{clip-path:url(#SVGID_00000177446489517394145160000010133661495736899245_);}
	.st3{opacity:0.5;clip-path:url(#SVGID_00000127029730924724782080000013405359754009715098_);}
	.st4{clip-path:url(#SVGID_00000083771164991368613650000002507770041001062534_);fill:#FFFFFF;}
	.st5{clip-path:url(#SVGID_00000040574887224986150920000012772441196030313391_);fill:#FFFF80;}
	.st6{clip-path:url(#SVGID_00000127029730924724782080000013405359754009715098_);fill:#FF0000;}
	.st7{clip-path:url(#SVGID_00000127029730924724782080000013405359754009715098_);fill:#FFFFFF;}
</style>
<g>
	<g>
		<defs>
			<rect id="SVGID_1_" x="9" y="7" width="572" height="79.7"/>
		</defs>
		<clipPath id="SVGID_00000146486326177551431610000009619506874087190709_">
			<use xlink:href="#SVGID_1_"  style="overflow:visible;"/>
		</clipPath>
		<g style="clip-path:url(#SVGID_00000146486326177551431610000009619506874087190709_);">
			<defs>
				<rect id="SVGID_00000116193361622155607200000002744193315588839305_" x="9" y="7" width="572" height="79.7"/>
			</defs>
			<clipPath id="SVGID_00000152980261019325186160000003693420532685131959_">
				<use xlink:href="#SVGID_00000116193361622155607200000002744193315588839305_"  style="overflow:visible;"/>
			</clipPath>
			<g style="opacity:0.5;clip-path:url(#SVGID_00000152980261019325186160000003693420532685131959_);">
				<g>
					<defs>
						<rect id="SVGID_00000164509475332174591340000004804253019721696130_" x="2.1" y="2.1" width="585.7" height="83.4"/>
					</defs>
					<clipPath id="SVGID_00000150816382293246382960000017381435854772279997_">
						<use xlink:href="#SVGID_00000164509475332174591340000004804253019721696130_"  style="overflow:visible;"/>
					</clipPath>
					<path style="clip-path:url(#SVGID_00000150816382293246382960000017381435854772279997_);fill:#FFFFFF;" d="M546.2,9.1H43.8
						c-8.9,0-17.1,4.2-23,11c-5.9,6.8-9.6,16.3-9.6,26.7c0,10.4,3.7,19.9,9.6,26.7c5.9,6.8,14.1,11,23,11h502.5
						c8.9,0,17.1-4.2,23-11c5.9-6.8,9.6-16.3,9.6-26.7c0-10.4-3.7-19.9-9.6-26.7C563.3,13.3,555.2,9.1,546.2,9.1"/>
				</g>
			</g>
			<g style="opacity:0.5;clip-path:url(#SVGID_00000152980261019325186160000003693420532685131959_);">
				<g>
					<defs>
						<rect id="SVGID_00000076566808685656636230000017523931717645286562_" width="590" height="87.7"/>
					</defs>
					<clipPath id="SVGID_00000124842973548866094010000003452216568972104873_">
						<use xlink:href="#SVGID_00000076566808685656636230000017523931717645286562_"  style="overflow:visible;"/>
					</clipPath>
					<path style="clip-path:url(#SVGID_00000124842973548866094010000003452216568972104873_);fill:#FFFF80;" d="M546.2,7L546.2,7
						H43.8c-9.6,0-18.4,4.5-24.6,11.7C12.9,26,9,35.9,9,46.9C9,57.8,12.9,67.7,19.1,75c6.3,7.2,15,11.7,24.6,11.7h0h502.5
						c9.6,0,18.4-4.5,24.6-11.7c6.3-7.2,10.1-17.2,10.1-28.1s-3.9-20.9-10.1-28.1C564.6,11.5,555.9,7,546.2,7 M43.8,84.6L43.8,84.6
						c-8.9,0-17.1-4.2-23-11c-5.9-6.8-9.6-16.3-9.6-26.7c0-10.4,3.7-19.9,9.6-26.7c5.9-6.8,14.1-11,23-11h502.5
						c8.9,0,17.1,4.2,23,11c5.9,6.8,9.6,16.3,9.6,26.7c0,10.4-3.7,19.9-9.6,26.7c-5.9,6.8-14.1,11-23,11H43.8z"/>
				</g>
			</g>
			<path style="clip-path:url(#SVGID_00000152980261019325186160000003693420532685131959_);fill:#FF0000;" d="M546.2,15.5H43.8
				c-15,0-27.2,14.1-27.2,31.4s12.2,31.4,27.2,31.4h502.5c15,0,27.2-14.1,27.2-31.4S561.3,15.5,546.2,15.5"/>
			<path style="clip-path:url(#SVGID_00000152980261019325186160000003693420532685131959_);fill:#FFFFFF;" d="M546.2,15.5v-0.6
				H43.8c-7.7,0-14.7,3.6-19.7,9.4c-5,5.8-8.1,13.8-8.1,22.6c0,8.8,3.1,16.8,8.1,22.6c5,5.8,12,9.4,19.7,9.4h502.5
				c7.7,0,14.7-3.6,19.7-9.4c5-5.8,8.1-13.8,8.1-22.6c0-8.8-3.1-16.8-8.1-22.6c-5-5.8-12-9.4-19.7-9.4V15.5v0.6c7.3,0,14,3.4,18.8,9
				c4.8,5.6,7.8,13.3,7.8,21.8c0,8.5-3,16.2-7.8,21.8c-4.8,5.6-11.5,9-18.8,9H43.8c-7.3,0-14-3.4-18.8-9c-4.8-5.6-7.8-13.3-7.8-21.8
				c0-8.5,3-16.2,7.8-21.8c4.8-5.6,11.5-9,18.8-9h502.5V15.5z"/>
		</g>
	</g>
</g>
</svg>
