<?xml version="1.0" encoding="utf-8"?>
<!-- Generator: Adobe Illustrator 26.5.0, SVG Export Plug-In . SVG Version: 6.00 Build 0)  -->
<svg version="1.0" id="Layer_1" xmlns="http://www.w3.org/2000/svg" xmlns:xlink="http://www.w3.org/1999/xlink" x="0px" y="0px"
	 viewBox="0 0 253.1 281.7" style="enable-background:new 0 0 253.1 281.7;" xml:space="preserve">
<style type="text/css">
	.st0{fill:#FFF200;}
	.st1{fill:#FFFF00;}
	.st2{clip-path:url(#SVGID_00000107573718299274662120000010917367962074315915_);}
	.st3{opacity:0.5;clip-path:url(#SVGID_00000014613360676601288050000017550844178821393847_);}
	.st4{clip-path:url(#SVGID_00000018942592987936180210000008876920515815980209_);fill:#FFFFFF;}
	.st5{clip-path:url(#SVGID_00000167384660749941461230000011532465326526177942_);fill:#FFFF80;}
	.st6{clip-path:url(#SVGID_00000014613360676601288050000017550844178821393847_);fill:#FF0000;}
	.st7{clip-path:url(#SVGID_00000014613360676601288050000017550844178821393847_);fill:#FFFFFF;}
</style>
<g>
	<path class="st1" d="M18.6,61L18.6,61c-8.1,0.7-15.1-5.3-15.8-13.4L0,14.5C-0.6,7.2,4.8,0.9,12.1,0.3l2.3-0.2
		c14.8-1.2,27.8,9.8,29,24.6L44,31C45.2,46.3,33.8,59.7,18.6,61"/>
	<path class="st1" d="M9.4,91c3.3,14.1,32.8,143.1,32.8,143.1s-2.8-17.2,42.3-19.3c0,0,4-47.8-8.9-89.3C62.6,84,54.3,61.3,34.4,62.8
		C14.5,64.3,5,72.4,9.4,91"/>
	<path class="st1" d="M63.2,246.2c-3.9,0-7-3.1-7-7s3.1-7,7-7c3.9,0,7,3.1,7,7S67.1,246.2,63.2,246.2 M252.7,232.4
		c-2.6-22.2-25-34.1-42.4-31.8c-17.4,2.3-140,21.4-148.9,22.5c-9.1,0-16.5,7.4-16.5,16.5c0,9.1,7.4,16.5,16.5,16.5
		c0,0,149.3-0.1,166.2,0C244.4,256.2,255.4,254.6,252.7,232.4"/>
	<path class="st1" d="M63.2,234.9c-2.4,0-4.3,1.9-4.3,4.3c0,2.4,1.9,4.3,4.3,4.3c2.4,0,4.3-1.9,4.3-4.3
		C67.5,236.9,65.6,234.9,63.2,234.9"/>
	<path class="st1" d="M190.5,275.3c-2.7,0.2-6,0.2-10.8,0.2c-3.7,0-8,0-13-0.1c-7.4-0.1-16.6-0.2-28.1-0.2h0
		c-0.3,0-30.2,0.3-40.3,0.3c-8.2,0-17.1-4.8-23.1-9.6c0.6-0.1,1.3-0.1,2.1-0.1c1.8,0,7.6,0,15.9,0c20.7,0,55.3-0.1,81.9-0.1
		c28.1,0,33.9,0.1,34.9,0.2c0.8,0,1.7,0.1,2.6,0.1c0.5,0,1.2,0,1.9,0.1C207.9,273.2,199.1,274.8,190.5,275.3 M210.3,259.7
		c-6.4-0.4-123.8,0-133,0c-9.3,0-14.2,4.2-7,10.2s17.8,11.8,28,11.8c10.2,0,40.4-0.3,40.4-0.3c29,0,43.2,0.6,52.3,0
		c9.1-0.6,22.2-2.3,30.9-14.8C228.1,259.5,216.7,260.1,210.3,259.7"/>
</g>
</svg>
