<?xml version="1.0" encoding="utf-8"?>
<!-- Generator: Adobe Illustrator 26.5.0, SVG Export Plug-In . SVG Version: 6.00 Build 0)  -->
<svg version="1.0" id="Layer_1" xmlns="http://www.w3.org/2000/svg" xmlns:xlink="http://www.w3.org/1999/xlink" x="0px" y="0px"
	 viewBox="0 0 424.8 183.4" style="enable-background:new 0 0 424.8 183.4;" xml:space="preserve">
<style type="text/css">
	.st0{fill:#FFF200;}
	.st1{fill:#FFFF00;}
	.st2{clip-path:url(#SVGID_00000060738638358574928800000007124010714742615976_);}
	.st3{opacity:0.5;clip-path:url(#SVGID_00000052819508377166704910000011289095829242623113_);}
	.st4{clip-path:url(#SVGID_00000062904028247573804120000012407466204975148703_);fill:#FFFFFF;}
	.st5{clip-path:url(#SVGID_00000129902680170983979060000001875049971034215321_);fill:#FFFF80;}
	.st6{clip-path:url(#SVGID_00000052819508377166704910000011289095829242623113_);fill:#FF0000;}
	.st7{clip-path:url(#SVGID_00000052819508377166704910000011289095829242623113_);fill:#FFFFFF;}
</style>
<g>
	<path class="st0" d="M77.2,140c0-18.6,15.2-33.8,33.8-33.8c18.6,0,33.8,15.2,33.8,33.8c0,18.6-15.2,33.8-33.8,33.8
		C92.4,173.8,77.2,158.6,77.2,140 M67.6,140c0,24,19.5,43.4,43.4,43.4c22.3,0,40.5-17,43-38.6h121.2c2.7,0,4.8-2.2,4.8-4.8
		c0-2.7-2.2-4.8-4.8-4.8H154c-2.4-21.7-20.7-38.6-43-38.6C87.1,96.5,67.6,116,67.6,140"/>
	<path class="st0" d="M106.2,9.7h86.9v48.3h-86.9V9.7z M376.5,140c0,18.6-15.2,33.8-33.8,33.8c-18.6,0-33.8-15.2-33.8-33.8
		s15.2-33.8,33.8-33.8C361.4,106.2,376.5,121.4,376.5,140 M0,62.8v67.6c0,2.2,1.5,4.1,3.7,4.7l38.6,9.7c0.4,0.1,0.8,0.1,1.2,0.1
		c2.2,0,4.1-1.5,4.7-3.7c0.6-2.6-0.9-5.2-3.5-5.9l-35-8.7V64.2L46,9.7h7.1h43.4v48.3H57.9V14.5c0-2.7-2.2-4.8-4.8-4.8
		c-2.7,0-4.8,2.2-4.8,4.8v43.4H33.8c-2.7,0-4.8,2.2-4.8,4.8c0,2.7,2.2,4.8,4.8,4.8h241.4c2.7,0,4.8-2.2,4.8-4.8
		c0-2.7-2.2-4.8-4.8-4.8h-72.4V9.7h51.1l56.5,56.5c0.8,0.8,1.8,1.3,2.9,1.4l92.9,9.3l8.6,51.8l-6.5,6.5h-22.6
		c-2.4-21.7-20.7-38.6-43-38.6c-24,0-43.4,19.5-43.4,43.4c0,24,19.5,43.4,43.4,43.4c22.3,0,40.5-17,43-38.6h24.6
		c1.3,0,2.5-0.5,3.4-1.4l9.7-9.7c1.1-1.1,1.6-2.7,1.3-4.2l-9.7-57.9c-0.4-2.2-2.1-3.8-4.3-4L316,58.1L259.3,1.4
		c-0.9-0.9-2.1-1.4-3.4-1.4H43.4c-1.6,0-3.1,0.8-4,2.1L0.8,60.1C0.3,60.9,0,61.8,0,62.8"/>
</g>
</svg>
