<?xml version="1.0" encoding="utf-8"?>
<!-- Generator: Adobe Illustrator 26.5.0, SVG Export Plug-In . SVG Version: 6.00 Build 0)  -->
<svg version="1.0" id="Layer_1" xmlns="http://www.w3.org/2000/svg" xmlns:xlink="http://www.w3.org/1999/xlink" x="0px" y="0px"
	 viewBox="0 0 424.4 173.8" style="enable-background:new 0 0 424.4 173.8;" xml:space="preserve">
<style type="text/css">
	.st0{fill:#FFF200;}
	.st1{fill:#FFFF00;}
	.st2{clip-path:url(#SVGID_00000093894679827191814020000010758562575014372006_);}
	.st3{opacity:0.5;clip-path:url(#SVGID_00000174593211570260068110000017542415574940423847_);}
	.st4{clip-path:url(#SVGID_00000024698166418037854030000004974375287503178888_);fill:#FFFFFF;}
	.st5{clip-path:url(#SVGID_00000099628688982534344010000013409589568593311658_);fill:#FFFF80;}
	.st6{clip-path:url(#SVGID_00000174593211570260068110000017542415574940423847_);fill:#FF0000;}
	.st7{clip-path:url(#SVGID_00000174593211570260068110000017542415574940423847_);fill:#FFFFFF;}
</style>
<g>
	<path class="st0" d="M57.9,130.3c0-18.6,15.2-33.8,33.8-33.8c18.6,0,33.8,15.2,33.8,33.8c0,18.6-15.2,33.8-33.8,33.8
		C73.1,164.1,57.9,149,57.9,130.3 M48.3,130.3c0,24,19.5,43.4,43.4,43.4c22.3,0,40.5-17,43-38.6h140.5c2.7,0,4.8-2.2,4.8-4.8
		c0-2.7-2.2-4.8-4.8-4.8H134.7c-2.4-21.7-20.7-38.6-43-38.6C67.8,86.9,48.3,106.4,48.3,130.3"/>
	<path class="st0" d="M376.5,130.3c0,18.6-15.2,33.8-33.8,33.8c-18.6,0-33.8-15.2-33.8-33.8c0-18.6,15.2-33.8,33.8-33.8
		C361.4,96.5,376.5,111.7,376.5,130.3 M0,82.1v38.6c0,8,6.5,14.5,14.5,14.5h9.7c2.7,0,4.8-2.2,4.8-4.8c0-2.7-2.2-4.8-4.8-4.8h-9.7
		c-2.7,0-4.8-2.2-4.8-4.8V82.1c0-2.7,2.2-4.8,4.8-4.8s4.8-2.2,4.8-4.8V48.3h33.8c1,0,1.9-0.3,2.7-0.8l56.7-37.8h70.9v48.3h-80.9
		l-18.3-9.1c-2.4-1.2-5.3-0.2-6.5,2.2c-1.2,2.4-0.2,5.3,2.2,6.5l19.3,9.7c0.7,0.3,1.4,0.5,2.2,0.5h183.4c2.7,0,4.8-2.2,4.8-4.8
		c0-2.7-2.2-4.8-4.8-4.8h-91.7V9.7h42.8c4.7,1.3,39.8,12.2,74.5,46.9c0.9,0.9,2.1,1.4,3.4,1.4c0.6,0,65,0.3,92.5,27
		c1.4,3.1,6.9,16.3,8.4,35.3c0.1,1.4-0.3,2.7-1.3,3.8c-0.9,1-2.2,1.5-3.5,1.5h-24.2c-2.4-21.7-20.7-38.6-43-38.6
		c-24,0-43.4,19.5-43.4,43.4c0,24,19.5,43.4,43.4,43.4c22.3,0,40.5-17,43-38.6h24.2c4,0,7.9-1.7,10.6-4.7c2.8-3,4.1-7,3.8-11.1
		c-1.9-23.7-9.4-38.9-9.7-39.5c-0.2-0.5-0.5-0.9-0.9-1.3c-27.5-27.5-86.1-30.1-97.9-30.4c-38.6-38-76.5-47.7-78.1-48.1
		C237.3,0,236.9,0,236.5,0H111c-1,0-1.9,0.3-2.7,0.8L51.6,38.6H14.5c-2.7,0-4.8,2.2-4.8,4.8v25C4,70.4,0,75.8,0,82.1"/>
</g>
</svg>
