<?xml version="1.0" encoding="utf-8"?>
<!-- Generator: Adobe Illustrator 26.5.0, SVG Export Plug-In . SVG Version: 6.00 Build 0)  -->
<svg version="1.0" id="Layer_1" xmlns="http://www.w3.org/2000/svg" xmlns:xlink="http://www.w3.org/1999/xlink" x="0px" y="0px"
	 viewBox="0 0 450.2 164.1" style="enable-background:new 0 0 450.2 164.1;" xml:space="preserve">
<style type="text/css">
	.st0{fill:#FFF200;}
	.st1{fill:#FFFF00;}
	.st2{clip-path:url(#SVGID_00000061444379160697969280000008638522514641430440_);}
	.st3{opacity:0.5;clip-path:url(#SVGID_00000001653654478003036720000003579502061373757840_);}
	.st4{clip-path:url(#SVGID_00000139994166362443924250000007749126985469733294_);fill:#FFFFFF;}
	.st5{clip-path:url(#SVGID_00000018935961468071806990000007964479681048610234_);fill:#FFFF80;}
	.st6{clip-path:url(#SVGID_00000001653654478003036720000003579502061373757840_);fill:#FF0000;}
	.st7{clip-path:url(#SVGID_00000001653654478003036720000003579502061373757840_);fill:#FFFFFF;}
</style>
<g>
	<path class="st0" d="M67.6,120.7c0-18.6,15.2-33.8,33.8-33.8c18.6,0,33.8,15.2,33.8,33.8c0,18.6-15.2,33.8-33.8,33.8
		C82.7,154.5,67.6,139.3,67.6,120.7 M57.9,120.7c0,24,19.5,43.4,43.4,43.4c15.4,0,28.8-8.1,36.6-20.2c0.7,0.3,1.3,0.9,2.1,0.9h170.2
		c2.7,0,4.8-2.2,4.8-4.8c0-2.7-2.2-4.8-4.8-4.8H142.1c1.6-4.6,2.7-9.4,2.7-14.5c0-24-19.5-43.4-43.4-43.4
		C77.4,77.2,57.9,96.7,57.9,120.7"/>
	<path class="st0" d="M401.9,120.7c0,18.6-15.2,33.8-33.8,33.8c-18.6,0-33.8-15.2-33.8-33.8s15.2-33.8,33.8-33.8
		C386.8,86.9,401.9,102.1,401.9,120.7 M0,101.4v19.3c0,0.7,0.2,1.5,0.5,2.2l9.7,19.3c0.8,1.6,2.5,2.7,4.3,2.7h29
		c2.7,0,4.8-2.2,4.8-4.8c0-2.7-2.2-4.8-4.8-4.8h-26l-7.8-15.6v-16.2l8.2-8.2c0.9-0.9,1.4-2.1,1.4-3.4V48.3h33.8
		c0.8,0,1.7-0.2,2.4-0.6l66.5-38h22.9v29h-43.4c-2.7,0-4.8,2.2-4.8,4.8c0,2.7,2.2,4.8,4.8,4.8h154.5c2.7,0,4.8-2.2,4.8-4.8
		c0-2.7-2.2-4.8-4.8-4.8H154.5v-29h71.5c6.5,2.7,48.1,20.2,65.1,37.2c0.9,0.9,2.1,1.4,3.4,1.4c31,0,129.4,4.7,146.1,25.7v61.2h-31.6
		c1.6-4.6,2.7-9.4,2.7-14.5c0-24-19.5-43.4-43.4-43.4c-24,0-43.4,19.5-43.4,43.4c0,24,19.5,43.4,43.4,43.4
		c15.4,0,28.8-8.1,36.6-20.2c0.7,0.3,1.3,0.9,2.1,0.9h38.6c2.7,0,4.8-2.2,4.8-4.8V72.4c0-1-0.3-1.9-0.8-2.7
		c-19.3-29-134.2-31-153-31.1c-20.6-19.3-65.8-37.5-67.7-38.3c-0.6-0.2-1.2-0.3-1.8-0.3H120.7c-0.8,0-1.7,0.2-2.4,0.6l-66.5,38H14.5
		c-2.7,0-4.8,2.2-4.8,4.8v46.3L1.4,98C0.5,98.9,0,100.1,0,101.4"/>
</g>
</svg>
