<?xml version="1.0" encoding="utf-8"?>
<!-- Generator: Adobe Illustrator 26.5.0, SVG Export Plug-In . SVG Version: 6.00 Build 0)  -->
<svg version="1.0" id="Layer_1" xmlns="http://www.w3.org/2000/svg" xmlns:xlink="http://www.w3.org/1999/xlink" x="0px" y="0px"
	 viewBox="0 0 471 173.8" style="enable-background:new 0 0 471 173.8;" xml:space="preserve">
<style type="text/css">
	.st0{fill:#FFF200;}
	.st1{fill:#FFFF00;}
	.st2{clip-path:url(#SVGID_00000132073845384438314870000012314882483473720976_);}
	.st3{opacity:0.5;clip-path:url(#SVGID_00000158718648016823739860000002063807093261419146_);}
	.st4{clip-path:url(#SVGID_00000020372996661032005550000010722231745029319612_);fill:#FFFFFF;}
	.st5{clip-path:url(#SVGID_00000154421678889168781110000005763600514216667792_);fill:#FFFF80;}
	.st6{clip-path:url(#SVGID_00000158718648016823739860000002063807093261419146_);fill:#FF0000;}
	.st7{clip-path:url(#SVGID_00000158718648016823739860000002063807093261419146_);fill:#FFFFFF;}
</style>
<g>
	<path class="st0" d="M84.2,130.3c0-18.6,15.2-33.8,33.8-33.8c18.6,0,33.8,15.2,33.8,33.8c0,18.6-15.2,33.8-33.8,33.8
		C99.3,164.1,84.2,149,84.2,130.3 M74.5,130.3c0,24,19.5,43.4,43.4,43.4c18.9,0,34.8-12.1,40.8-29H331c2.7,0,4.8-2.2,4.8-4.8
		c0-2.7-2.2-4.8-4.8-4.8H160.9c0.2-1.6,0.5-3.2,0.5-4.8c0-24-19.5-43.4-43.4-43.4C94,86.9,74.5,106.4,74.5,130.3"/>
	<path class="st0" d="M432.4,130.3c0,18.6-15.2,33.8-33.8,33.8c-18.6,0-33.8-15.2-33.8-33.8c0-18.6,15.2-33.8,33.8-33.8
		C417.2,96.5,432.4,111.7,432.4,130.3 M0.8,37.8l24.9,35.3l-8.9,26.7c-0.4,1.2-0.3,2.5,0.3,3.7l19.3,38.6c0.8,1.6,2.5,2.7,4.3,2.7
		h9.7c2.7,0,4.8-2.2,4.8-4.8c0-2.7-2.2-4.8-4.8-4.8h-6.7L26.6,101l9-27.1c0.5-1.4,0.3-3-0.6-4.2L13.8,39.9L89,48.3
		c1.3,0,2.5-0.5,3.4-1.4c0.4-0.4,38.2-37.2,102.8-37.2c53.6,0,121.4,25.2,144.5,34.5l-39,23.4H177.5l-37.3-28
		c-2.1-1.6-5.2-1.2-6.8,1c-1.6,2.1-1.2,5.2,1,6.8l38.6,29c0.8,0.6,1.8,1,2.9,1H302c0.9,0,1.7-0.2,2.5-0.7l47.3-28.4
		c10.1-0.7,100.8-5.8,109.5,44v36.2l-6.8,6.8h-13c0.2-1.6,0.5-3.2,0.5-4.8c0-24-19.5-43.4-43.4-43.4c-24,0-43.4,19.5-43.4,43.4
		c0,24,19.5,43.4,43.4,43.4c18.9,0,34.8-12.1,40.8-29h17.1c1.3,0,2.5-0.5,3.4-1.4l9.7-9.7c0.9-0.9,1.4-2.1,1.4-3.4V91.7
		c0-0.3,0-0.5-0.1-0.8c-9.7-58.4-105.7-53.4-119.5-52.4C341.3,33,258.9,0,195.2,0C133,0,95,31.4,87.1,38.6L4.8,30.3
		c-1.8,0-3.4,1-4.3,2.5C-0.3,34.4-0.2,36.3,0.8,37.8"/>
</g>
</svg>
